<?xml version="1.0" encoding="UTF-8"?>
<svg width="60px" height="44px" viewBox="0 0 60 44" version="1.1" xmlns="http://www.w3.org/2000/svg" xmlns:xlink="http://www.w3.org/1999/xlink">
    <!-- Generator: Sketch 47.1 (45422) - http://www.bohemiancoding.com/sketch -->
    <title>coins</title>
    <desc>Created with Sketch.</desc>
    <defs></defs>
    <g id="Page-1" stroke="none" stroke-width="1" fill="none" fill-rule="evenodd">
        <g id="coins" fill-rule="nonzero">
            <g id="Group" transform="translate(19.090909, 34.218037)">
                <rect id="Rectangle-path" fill="#F5B445" x="2.72727273" y="2.73744292" width="28.6363636" height="4.10616438"></rect>
                <rect id="Rectangle-path" fill="#FFCB5B" x="2.72727273" y="2.73744292" width="28.6363636" height="1.36872146"></rect>
                <path d="M2.72727273,2.73744292 L2.72727273,6.84360731 L11.3181818,6.84360731 C12.6818182,5.61175799 13.9090909,4.24303653 14.8636364,2.73744292 L2.72727273,2.73744292 Z" id="Shape" fill="#E99C35"></path>
                <path d="M14.8636364,2.73744292 L2.72727273,2.73744292 L2.72727273,4.10616438 L13.9090909,4.10616438 C14.3181818,3.69554795 14.5909091,3.14805936 14.8636364,2.73744292 Z" id="Shape" fill="#F5B445"></path>
                <path d="M32.7272727,0 L1.36363636,0 C0.545454545,0 0,0.547488584 0,1.36872146 L0,8.21232877 C0,9.03356164 0.545454545,9.58105023 1.36363636,9.58105023 L32.7272727,9.58105023 C33.5454545,9.58105023 34.0909091,9.03356164 34.0909091,8.21232877 L34.0909091,1.36872146 C34.0909091,0.547488584 33.5454545,0 32.7272727,0 Z M31.3636364,6.84360731 L28.6363636,6.84360731 L28.6363636,4.79052511 C28.6363636,4.37990868 28.3636364,4.10616438 27.9545455,4.10616438 C27.5454545,4.10616438 27.2727273,4.37990868 27.2727273,4.79052511 L27.2727273,6.84360731 L23.1818182,6.84360731 L23.1818182,4.79052511 C23.1818182,4.37990868 22.9090909,4.10616438 22.5,4.10616438 C22.0909091,4.10616438 21.8181818,4.37990868 21.8181818,4.79052511 L21.8181818,6.84360731 L17.7272727,6.84360731 L17.7272727,4.79052511 C17.7272727,4.37990868 17.4545455,4.10616438 17.0454545,4.10616438 C16.6363636,4.10616438 16.3636364,4.37990868 16.3636364,4.79052511 L16.3636364,6.84360731 L12.2727273,6.84360731 L12.2727273,4.79052511 C12.2727273,4.37990868 12,4.10616438 11.5909091,4.10616438 C11.1818182,4.10616438 10.9090909,4.37990868 10.9090909,4.79052511 L10.9090909,6.84360731 L6.81818182,6.84360731 L6.81818182,4.79052511 C6.81818182,4.37990868 6.54545455,4.10616438 6.13636364,4.10616438 C5.72727273,4.10616438 5.45454545,4.37990868 5.45454545,4.79052511 L5.45454545,6.84360731 L2.72727273,6.84360731 L2.72727273,2.73744292 L31.3636364,2.73744292 L31.3636364,6.84360731 Z" id="Shape" fill="#0B3A5B"></path>
            </g>
            <g id="Group" transform="translate(25.909091, 27.374429)">
                <rect id="Rectangle-path" fill="#F5B445" x="2.72727273" y="2.73744292" width="28.6363636" height="4.10616438"></rect>
                <rect id="Rectangle-path" fill="#FFCB5B" x="2.72727273" y="2.73744292" width="28.6363636" height="1.36872146"></rect>
                <path d="M10.6363636,2.73744292 L5.45454545,2.73744292 L5.45454545,6.84360731 L9.54545455,6.84360731 C10.0909091,5.61175799 10.5,4.10616438 10.6363636,2.73744292 Z" id="Shape" fill="#E99C35"></path>
                <path d="M10.3636364,4.10616438 C10.5,3.69554795 10.6363636,3.14805936 10.6363636,2.73744292 L5.45454545,2.73744292 L5.45454545,4.10616438 L10.3636364,4.10616438 Z" id="Shape" fill="#F5B445"></path>
                <path d="M32.7272727,0 L1.36363636,0 C0.545454545,0 0,0.547488584 0,1.36872146 L0,8.21232877 C0,9.03356164 0.545454545,9.58105023 1.36363636,9.58105023 L32.7272727,9.58105023 C33.5454545,9.58105023 34.0909091,9.03356164 34.0909091,8.21232877 L34.0909091,1.36872146 C34.0909091,0.547488584 33.5454545,0 32.7272727,0 Z M31.3636364,6.84360731 L28.6363636,6.84360731 L28.6363636,4.79052511 C28.6363636,4.37990868 28.3636364,4.10616438 27.9545455,4.10616438 C27.5454545,4.10616438 27.2727273,4.37990868 27.2727273,4.79052511 L27.2727273,6.84360731 L23.1818182,6.84360731 L23.1818182,4.79052511 C23.1818182,4.37990868 22.9090909,4.10616438 22.5,4.10616438 C22.0909091,4.10616438 21.8181818,4.37990868 21.8181818,4.79052511 L21.8181818,6.84360731 L17.7272727,6.84360731 L17.7272727,4.79052511 C17.7272727,4.37990868 17.4545455,4.10616438 17.0454545,4.10616438 C16.6363636,4.10616438 16.3636364,4.37990868 16.3636364,4.79052511 L16.3636364,6.84360731 L12.2727273,6.84360731 L12.2727273,4.79052511 C12.2727273,4.37990868 12,4.10616438 11.5909091,4.10616438 C11.1818182,4.10616438 10.9090909,4.37990868 10.9090909,4.79052511 L10.9090909,6.84360731 L6.81818182,6.84360731 L6.81818182,4.79052511 C6.81818182,4.37990868 6.54545455,4.10616438 6.13636364,4.10616438 C5.72727273,4.10616438 5.45454545,4.37990868 5.45454545,4.79052511 L5.45454545,6.84360731 L2.72727273,6.84360731 L2.72727273,2.73744292 L31.3636364,2.73744292 L31.3636364,6.84360731 Z" id="Shape" fill="#0B3A5B"></path>
            </g>
            <g id="Group" transform="translate(21.818182, 20.530822)">
                <rect id="Rectangle-path" fill="#F5B445" x="2.72727273" y="2.73744292" width="28.6363636" height="4.10616438"></rect>
                <rect id="Rectangle-path" fill="#FFCB5B" x="2.72727273" y="2.73744292" width="28.6363636" height="1.36872146"></rect>
                <path d="M8.18181818,2.73744292 L8.18181818,6.84360731 L15,6.84360731 C15,5.47488584 14.8636364,4.10616438 14.4545455,2.73744292 L8.18181818,2.73744292 Z" id="Shape" fill="#E99C35"></path>
                <path d="M14.7272727,4.10616438 C14.5909091,3.69554795 14.5909091,3.14805936 14.4545455,2.73744292 L8.18181818,2.73744292 L8.18181818,4.10616438 L14.7272727,4.10616438 Z" id="Shape" fill="#F5B445"></path>
                <path d="M32.7272727,0 L1.36363636,0 C0.545454545,0 0,0.547488584 0,1.36872146 L0,8.21232877 C0,9.03356164 0.545454545,9.58105023 1.36363636,9.58105023 L32.7272727,9.58105023 C33.5454545,9.58105023 34.0909091,9.03356164 34.0909091,8.21232877 L34.0909091,1.36872146 C34.0909091,0.547488584 33.5454545,0 32.7272727,0 Z M31.3636364,6.84360731 L28.6363636,6.84360731 L28.6363636,4.79052511 C28.6363636,4.37990868 28.3636364,4.10616438 27.9545455,4.10616438 C27.5454545,4.10616438 27.2727273,4.37990868 27.2727273,4.79052511 L27.2727273,6.84360731 L23.1818182,6.84360731 L23.1818182,4.79052511 C23.1818182,4.37990868 22.9090909,4.10616438 22.5,4.10616438 C22.0909091,4.10616438 21.8181818,4.37990868 21.8181818,4.79052511 L21.8181818,6.84360731 L17.7272727,6.84360731 L17.7272727,4.79052511 C17.7272727,4.37990868 17.4545455,4.10616438 17.0454545,4.10616438 C16.6363636,4.10616438 16.3636364,4.37990868 16.3636364,4.79052511 L16.3636364,6.84360731 L12.2727273,6.84360731 L12.2727273,4.79052511 C12.2727273,4.37990868 12,4.10616438 11.5909091,4.10616438 C11.1818182,4.10616438 10.9090909,4.37990868 10.9090909,4.79052511 L10.9090909,6.84360731 L6.81818182,6.84360731 L6.81818182,4.79052511 C6.81818182,4.37990868 6.54545455,4.10616438 6.13636364,4.10616438 C5.72727273,4.10616438 5.45454545,4.37990868 5.45454545,4.79052511 L5.45454545,6.84360731 L2.72727273,6.84360731 L2.72727273,2.73744292 L31.3636364,2.73744292 L31.3636364,6.84360731 Z" id="Shape" fill="#0B3A5B"></path>
            </g>
            <g id="Group" transform="translate(24.545455, 13.687215)">
                <rect id="Rectangle-path" fill="#F5B445" x="2.72727273" y="2.73744292" width="28.6363636" height="4.10616438"></rect>
                <path d="M32.7272727,0 L1.36363636,0 C0.545454545,0 0,0.547488584 0,1.36872146 L0,8.21232877 C0,9.03356164 0.545454545,9.58105023 1.36363636,9.58105023 L32.7272727,9.58105023 C33.5454545,9.58105023 34.0909091,9.03356164 34.0909091,8.21232877 L34.0909091,1.36872146 C34.0909091,0.547488584 33.5454545,0 32.7272727,0 Z M31.3636364,6.84360731 L28.6363636,6.84360731 L28.6363636,4.79052511 C28.6363636,4.37990868 28.3636364,4.10616438 27.9545455,4.10616438 C27.5454545,4.10616438 27.2727273,4.37990868 27.2727273,4.79052511 L27.2727273,6.84360731 L23.1818182,6.84360731 L23.1818182,4.79052511 C23.1818182,4.37990868 22.9090909,4.10616438 22.5,4.10616438 C22.0909091,4.10616438 21.8181818,4.37990868 21.8181818,4.79052511 L21.8181818,6.84360731 L17.7272727,6.84360731 L17.7272727,4.79052511 C17.7272727,4.37990868 17.4545455,4.10616438 17.0454545,4.10616438 C16.6363636,4.10616438 16.3636364,4.37990868 16.3636364,4.79052511 L16.3636364,6.84360731 L12.2727273,6.84360731 L12.2727273,4.79052511 C12.2727273,4.37990868 12,4.10616438 11.5909091,4.10616438 C11.1818182,4.10616438 10.9090909,4.37990868 10.9090909,4.79052511 L10.9090909,6.84360731 L6.81818182,6.84360731 L6.81818182,4.79052511 C6.81818182,4.37990868 6.54545455,4.10616438 6.13636364,4.10616438 C5.72727273,4.10616438 5.45454545,4.37990868 5.45454545,4.79052511 L5.45454545,6.84360731 L2.72727273,6.84360731 L2.72727273,2.73744292 L31.3636364,2.73744292 L31.3636364,6.84360731 Z" id="Shape" fill="#0B3A5B"></path>
                <rect id="Rectangle-path" fill="#FFCB5B" x="2.72727273" y="2.73744292" width="28.6363636" height="1.36872146"></rect>
                <path d="M8.45454545,2.73744292 L2.72727273,2.73744292 L2.72727273,6.84360731 L10.9090909,6.84360731 C10.2272727,5.3380137 9.40909091,3.96929224 8.45454545,2.73744292 Z" id="Shape" fill="#E99C35"></path>
                <path d="M8.45454545,2.73744292 L2.72727273,2.73744292 L2.72727273,4.10616438 L9.40909091,4.10616438 C9.13636364,3.69554795 8.86363636,3.14805936 8.45454545,2.73744292 Z" id="Shape" fill="#F5B445"></path>
            </g>
            <g id="Group" transform="translate(23.181818, 0.000000)">
                <rect id="Rectangle-path" fill="#F5B445" x="2.72727273" y="2.73744292" width="28.6363636" height="4.10616438"></rect>
                <path d="M32.7272727,0 L1.36363636,0 C0.545454545,0 0,0.547488584 0,1.36872146 L0,8.21232877 C0,9.03356164 0.545454545,9.58105023 1.36363636,9.58105023 L32.7272727,9.58105023 C33.5454545,9.58105023 34.0909091,9.03356164 34.0909091,8.21232877 L34.0909091,1.36872146 C34.0909091,0.547488584 33.5454545,0 32.7272727,0 Z M31.3636364,6.84360731 L28.6363636,6.84360731 L28.6363636,4.79052511 C28.6363636,4.37990868 28.3636364,4.10616438 27.9545455,4.10616438 C27.5454545,4.10616438 27.2727273,4.37990868 27.2727273,4.79052511 L27.2727273,6.84360731 L23.1818182,6.84360731 L23.1818182,4.79052511 C23.1818182,4.37990868 22.9090909,4.10616438 22.5,4.10616438 C22.0909091,4.10616438 21.8181818,4.37990868 21.8181818,4.79052511 L21.8181818,6.84360731 L17.7272727,6.84360731 L17.7272727,4.79052511 C17.7272727,4.37990868 17.4545455,4.10616438 17.0454545,4.10616438 C16.6363636,4.10616438 16.3636364,4.37990868 16.3636364,4.79052511 L16.3636364,6.84360731 L12.2727273,6.84360731 L12.2727273,4.79052511 C12.2727273,4.37990868 12,4.10616438 11.5909091,4.10616438 C11.1818182,4.10616438 10.9090909,4.37990868 10.9090909,4.79052511 L10.9090909,6.84360731 L6.81818182,6.84360731 L6.81818182,4.79052511 C6.81818182,4.37990868 6.54545455,4.10616438 6.13636364,4.10616438 C5.72727273,4.10616438 5.45454545,4.37990868 5.45454545,4.79052511 L5.45454545,6.84360731 L2.72727273,6.84360731 L2.72727273,2.73744292 L31.3636364,2.73744292 L31.3636364,6.84360731 Z" id="Shape" fill="#0B3A5B"></path>
                <rect id="Rectangle-path" fill="#FFCB5B" x="2.72727273" y="2.73744292" width="28.6363636" height="1.36872146"></rect>
            </g>
            <g id="Group" transform="translate(19.090909, 6.843607)">
                <rect id="Rectangle-path" fill="#F5B445" x="2.72727273" y="2.73744292" width="28.6363636" height="4.10616438"></rect>
                <path d="M32.7272727,0 L1.36363636,0 C0.545454545,0 0,0.547488584 0,1.36872146 L0,8.21232877 C0,9.03356164 0.545454545,9.58105023 1.36363636,9.58105023 L32.7272727,9.58105023 C33.5454545,9.58105023 34.0909091,9.03356164 34.0909091,8.21232877 L34.0909091,1.36872146 C34.0909091,0.547488584 33.5454545,0 32.7272727,0 Z M31.3636364,6.84360731 L28.6363636,6.84360731 L28.6363636,4.79052511 C28.6363636,4.37990868 28.3636364,4.10616438 27.9545455,4.10616438 C27.5454545,4.10616438 27.2727273,4.37990868 27.2727273,4.79052511 L27.2727273,6.84360731 L23.1818182,6.84360731 L23.1818182,4.79052511 C23.1818182,4.37990868 22.9090909,4.10616438 22.5,4.10616438 C22.0909091,4.10616438 21.8181818,4.37990868 21.8181818,4.79052511 L21.8181818,6.84360731 L17.7272727,6.84360731 L17.7272727,4.79052511 C17.7272727,4.37990868 17.4545455,4.10616438 17.0454545,4.10616438 C16.6363636,4.10616438 16.3636364,4.37990868 16.3636364,4.79052511 L16.3636364,6.84360731 L12.2727273,6.84360731 L12.2727273,4.79052511 C12.2727273,4.37990868 12,4.10616438 11.5909091,4.10616438 C11.1818182,4.10616438 10.9090909,4.37990868 10.9090909,4.79052511 L10.9090909,6.84360731 L6.81818182,6.84360731 L6.81818182,4.79052511 C6.81818182,4.37990868 6.54545455,4.10616438 6.13636364,4.10616438 C5.72727273,4.10616438 5.45454545,4.37990868 5.45454545,4.79052511 L5.45454545,6.84360731 L2.72727273,6.84360731 L2.72727273,2.73744292 L31.3636364,2.73744292 L31.3636364,6.84360731 Z" id="Shape" fill="#0B3A5B"></path>
                <rect id="Rectangle-path" fill="#FFCB5B" x="2.72727273" y="2.73744292" width="28.6363636" height="1.36872146"></rect>
            </g>
            <g id="Group" transform="translate(0.000000, 8.212329)">
                <g>
                    <ellipse id="Oval" fill="#F5B445" cx="17.7272727" cy="17.793379" rx="15" ry="15.0559361"></ellipse>
                    <path d="M17.7272727,35.586758 C7.90909091,35.586758 0,27.6481735 0,17.793379 C0,7.93858447 7.90909091,0 17.7272727,0 C27.5454545,0 35.4545455,7.93858447 35.4545455,17.793379 C35.4545455,27.6481735 27.5454545,35.586758 17.7272727,35.586758 Z M17.7272727,2.73744292 C9.40909091,2.73744292 2.72727273,9.44417808 2.72727273,17.793379 C2.72727273,26.1425799 9.40909091,32.8493151 17.7272727,32.8493151 C26.0454545,32.8493151 32.7272727,26.1425799 32.7272727,17.793379 C32.7272727,9.44417808 26.0454545,2.73744292 17.7272727,2.73744292 Z" id="Shape" fill="#0B3A5B"></path>
                </g>
                <path d="M9,29.975 L29.8636364,9.03356164 C28.3636364,6.98047945 26.3181818,5.3380137 24,4.24303653 L4.09090909,24.2263699 C5.18181818,26.5531963 6.95454545,28.4694064 9,29.975 Z" id="Shape" fill="#FFCB5B"></path>
                <path d="M17.7272727,32.8493151 C26.0454545,32.8493151 32.7272727,26.1425799 32.7272727,17.793379 C32.7272727,15.7402968 32.3181818,13.8240868 31.6363636,12.0447489 L12,31.7543379 C13.7727273,32.4386986 15.6818182,32.8493151 17.7272727,32.8493151 Z" id="Shape" fill="#FFCB5B"></path>
                <g transform="translate(5.454545, 5.474886)">
                    <ellipse id="Oval" fill="#FFCB5B" cx="12.2727273" cy="12.3184932" rx="10.9090909" ry="10.9497717"></ellipse>
                    <path d="M12.2727273,1.36872146 C18.2727273,1.36872146 23.1818182,6.29611872 23.1818182,12.3184932 C23.1818182,18.3408676 18.2727273,23.2682648 12.2727273,23.2682648 C6.27272727,23.2682648 1.36363636,18.3408676 1.36363636,12.3184932 C1.36363636,6.29611872 6.27272727,1.36872146 12.2727273,1.36872146 L12.2727273,1.36872146 Z M12.2727273,0 C5.45454545,0 0,5.47488584 0,12.3184932 C0,19.1621005 5.45454545,24.6369863 12.2727273,24.6369863 C19.0909091,24.6369863 24.5454545,19.1621005 24.5454545,12.3184932 C24.5454545,5.47488584 19.0909091,0 12.2727273,0 L12.2727273,0 Z" id="Shape" fill="#0B3A5B"></path>
                </g>
                <path d="M8.18181818,19.1621005 C8.18181818,13.139726 13.0909091,8.21232877 19.0909091,8.21232877 C21.8181818,8.21232877 24.1363636,9.17043379 26.0454545,10.8128995 C24.1363636,8.34920091 21.1363636,6.84360731 17.7272727,6.84360731 C11.7272727,6.84360731 6.81818182,11.7710046 6.81818182,17.793379 C6.81818182,21.2151826 8.31818182,24.2263699 10.7727273,26.1425799 C9.13636364,24.2263699 8.18181818,21.8995434 8.18181818,19.1621005 Z" id="Shape" fill="#F6B545"></path>
                <path d="M20.8636364,7.39109589 L7.22727273,21.0783105 C8.04545455,23.5420091 9.68181818,25.7319635 11.8636364,27.1006849 L26.8636364,12.0447489 C25.5,9.71792237 23.4545455,8.07545662 20.8636364,7.39109589 Z" id="Shape" fill="#FFE27A"></path>
                <g transform="translate(6.818182, 6.843607)" id="Shape" fill="#FFCB5B">
                    <path d="M13.2272727,1.36872146 C15.5454545,1.50559361 17.5909091,2.46369863 19.3636364,3.83242009 C18,2.18995434 16.2272727,1.09497717 14.1818182,0.410616438 L13.2272727,1.36872146 Z"></path>
                    <path d="M3.95454545,19.2989726 C2.59090909,17.6565068 1.63636364,15.4665525 1.5,13.139726 L0.545454545,14.0978311 C1.09090909,16.1509132 2.31818182,18.0671233 3.95454545,19.2989726 Z"></path>
                </g>
                <path d="M17.7272727,28.7431507 C23.7272727,28.7431507 28.6363636,23.8157534 28.6363636,17.793379 C28.6363636,16.9721461 28.5,16.0140411 28.3636364,15.1928082 L15.2727273,28.3325342 C15.9545455,28.6062785 16.9090909,28.7431507 17.7272727,28.7431507 Z" id="Shape" fill="#FFE27A"></path>
            </g>
        </g>
    </g>
</svg>