<?xml version="1.0" encoding="UTF-8"?>
<svg width="60px" height="70px" viewBox="0 0 60 70" version="1.1" xmlns="http://www.w3.org/2000/svg" xmlns:xlink="http://www.w3.org/1999/xlink">
    <!-- Generator: Sketch 47.1 (45422) - http://www.bohemiancoding.com/sketch -->
    <title>headset</title>
    <desc>Created with Sketch.</desc>
    <defs></defs>
    <g id="Page-1" stroke="none" stroke-width="1" fill="none" fill-rule="evenodd">
        <g id="headset" fill-rule="nonzero">
            <path d="M18.7330137,53.5789279 C19.0409589,54.6380702 18.4287671,55.7453801 17.3656164,56.0518519 L15.5536986,56.5744639 C14.490411,56.8812086 13.3790411,56.2714035 13.0710959,55.2123977 L7.59452055,36.3747563 C7.28657534,35.315614 7.89876712,34.208577 8.96191781,33.9018324 L10.7738356,33.3792203 C11.8371233,33.0724756 12.9484932,33.6825536 13.2564384,34.7415595 L18.7330137,53.5789279 Z" id="Shape" fill="#2D404E"></path>
            <polygon id="Shape" fill="#2D404E" points="7.59465753 36.3747563 6.10150685 36.8553411 10.9938356 53.8833528 12.5510959 53.4236452"></polygon>
            <path d="M4.68657534,31.0424756 L6.10136986,36.8553411 L10.9938356,53.8833528 C10.9938356,53.8833528 11.6423288,55.93846 12.0549315,56.4082651 C12.0549315,56.4082651 10.9938356,58.1110526 10.3454795,58.1110526 C10.3454795,58.1110526 9.7560274,57.3477388 8.75383562,53.8834893 C7.75191781,50.4189669 4.39205479,38.675614 4.39205479,38.675614 C4.39205479,38.675614 3.80232877,36.7381287 3.56671233,35.1526901 C3.33109589,33.5672515 2.68246575,31.0426121 2.68246575,31.0426121 L4.68657534,31.0426121 C4.68657534,31.0426121 4.68657534,31.0424756 4.68657534,31.0424756 Z" id="Shape" fill="#F2B643"></path>
            <path d="M8.7539726,53.8833528 C7.75191781,50.4189669 4.39205479,38.675614 4.39205479,38.675614 C4.39205479,38.675614 3.80232877,36.7381287 3.56671233,35.1526901 C3.33109589,33.5672515 2.68246575,31.0426121 2.68246575,31.0426121 L0.0887671233,31.5710916 C0.0887671233,31.5710916 0.0104109589,38.1277583 0.639178082,42.5121053 C1.26794521,46.8961793 2.99712329,52.0240546 4.3330137,53.8834893 C5.66917808,55.742924 6.10150685,56.1735673 6.10150685,56.1735673 C6.10150685,56.1735673 9.34342466,57.9938402 10.3456164,58.1110526 C10.3456164,58.1109162 9.75616438,57.3477388 8.7539726,53.8833528 Z" id="Shape" fill="#9D6227"></path>
            <path d="M10.9938356,53.8833528 C10.9938356,53.8833528 11.6423288,55.93846 12.0549315,56.4082651 C12.0549315,56.4082651 12.1728767,55.4491423 11.5243836,53.7267057 L10.9938356,53.8833528 Z" id="Shape" fill="#D89932"></path>
            <path d="M2.68246575,30.8075049 C2.68246575,30.8075049 1.85739726,27.9892203 2.26986301,25.3469591 C2.68246575,22.7045614 3.97931507,18.4183236 6.3960274,14.3082456 L5.33520548,13.6622807 C5.33520548,13.6622807 2.56465753,18.8879922 1.73931507,21.4717154 C0.914246575,24.0553021 0.0845205479,29.75 0.085890411,31.2773099 L2.68246575,30.8075049 Z" id="Shape" fill="#9D6227"></path>
            <path d="M2.68246575,30.8075049 C2.68246575,30.8075049 1.85739726,27.9892203 2.26986301,25.3469591 C2.68246575,22.7045614 3.97931507,18.4183236 6.3960274,14.3082456 L7.67328767,15.1107212 C7.67328767,15.1107212 2.17136986,22.6653996 4.56863014,30.8075049 L2.68246575,30.8075049 Z" id="Shape" fill="#F2B643"></path>
            <path d="M37.9579452,53.5789279 C37.65,54.6380702 38.2624658,55.7453801 39.3256164,56.0518519 L41.1372603,56.5744639 C42.2005479,56.8812086 43.3121918,56.2714035 43.620137,55.2123977 L49.0967123,36.3747563 C49.4043836,35.315614 48.7921918,34.208577 47.7290411,33.9018324 L45.9171233,33.3792203 C44.8538356,33.0724756 43.7424658,33.6825536 43.4345205,34.7415595 L37.9579452,53.5789279 Z" id="Shape" fill="#2D404E"></path>
            <polygon id="Shape" fill="#2D404E" points="49.0967123 36.3747563 50.589589 36.8553411 45.6971233 53.8833528 44.14 53.4236452"></polygon>
            <path d="M52.0043836,31.0424756 L50.589589,36.8553411 L45.6971233,53.8833528 C45.6971233,53.8833528 45.0486301,55.93846 44.6360274,56.4082651 C44.6360274,56.4082651 45.6971233,58.1110526 46.3454795,58.1110526 C46.3454795,58.1110526 46.9352055,57.3477388 47.9371233,53.8834893 C48.9390411,50.4192398 52.2993151,38.6757505 52.2993151,38.6757505 C52.2993151,38.6757505 52.8887671,36.7382651 53.1243836,35.1528265 C53.36,33.5673879 54.0086301,31.0427485 54.0086301,31.0427485 L52.0043836,31.0427485 L52.0043836,31.0424756 L52.0043836,31.0424756 Z" id="Shape" fill="#F2B643"></path>
            <path d="M56.6023288,31.5709552 L54.0086301,31.0424756 C54.0086301,31.0424756 53.360137,33.567115 53.1243836,35.1525536 C52.8886301,36.7379922 52.2993151,38.6754776 52.2993151,38.6754776 C52.2993151,38.6754776 48.9391781,50.4188304 47.9371233,53.8832164 C46.9350685,57.3476023 46.3454795,58.1107797 46.3454795,58.1107797 C47.3476712,57.9935673 50.589589,56.1732943 50.589589,56.1732943 C50.589589,56.1732943 51.0219178,55.7426511 52.3580822,53.8832164 C53.6942466,52.0237817 55.4234247,46.8959064 56.0521918,42.5118324 C56.6809589,38.1276218 56.6023288,31.5709552 56.6023288,31.5709552 Z" id="Shape" fill="#9D6227"></path>
            <path d="M45.6971233,53.8833528 C45.6971233,53.8833528 45.0486301,55.93846 44.6360274,56.4082651 C44.6360274,56.4082651 44.5180822,55.4491423 45.1665753,53.7267057 L45.6971233,53.8833528 Z" id="Shape" fill="#D89932"></path>
            <path d="M54.0086301,30.8075049 C54.0086301,30.8075049 54.8336986,27.9892203 54.4212329,25.3469591 C54.0086301,22.7045614 52.7117808,18.4183236 50.2950685,14.3082456 L51.3561644,13.6622807 C51.3561644,13.6622807 54.1267123,18.8879922 54.9517808,21.4717154 C55.7771233,24.0553021 56.6065753,29.75 56.6054795,31.2773099 L54.0086301,30.8075049 Z" id="Shape" fill="#9D6227"></path>
            <path d="M54.0086301,30.8075049 C54.0086301,30.8075049 54.8336986,27.9892203 54.4212329,25.3469591 C54.0086301,22.7045614 52.7117808,18.4183236 50.2950685,14.3082456 L49.0180822,15.1107212 C49.0180822,15.1107212 54.52,22.6653996 52.1227397,30.8075049 L54.0086301,30.8075049 Z" id="Shape" fill="#F2B643"></path>
            <path d="M39.94,2.78007797 C34.3990411,-0.116803119 28.3456164,0.000682261209 28.3456164,0.000682261209 C28.3456164,0.000682261209 22.2920548,-0.116803119 16.7509589,2.78007797 C11.21,5.67682261 7.12315068,10.6090253 5.51191781,13.3100975 L7.67315068,14.7974269 C7.67315068,14.7974269 9.40232877,11.8223587 13.4891781,8.41664717 C13.4891781,8.41664717 13.5287671,6.89001949 15.2576712,5.44185185 C16.9865753,3.99341131 20.9982192,1.76214425 28.3454795,1.40982456 C35.6924658,1.76214425 39.7041096,3.99341131 41.4330137,5.44185185 C43.1621918,6.89001949 43.2015068,8.41664717 43.2015068,8.41664717 C47.2883562,11.8223587 49.0178082,14.7974269 49.0178082,14.7974269 L51.1790411,13.3100975 C49.5678082,10.6090253 45.4809589,5.67682261 39.94,2.78007797 Z" id="Shape" fill="#9D6227"></path>
            <path d="M42.6909589,6.06830409 L42.470274,6.24610136 C42.470274,6.24610136 43.280411,6.99795322 43.4572603,7.90808967 C43.4572603,7.90808967 46.5815068,10.697037 48.1728767,13.0163158 C48.1728767,13.0163158 48.4089041,12.0183041 47.789726,10.9905458 C47.1708219,9.96306043 42.6909589,6.06830409 42.6909589,6.06830409 Z" id="Shape" fill="#2D404E"></path>
            <path d="M28.3456164,1.40996101 C21.4020548,1.74276803 17.4378082,3.75393762 15.5638356,5.19623782 C15.5638356,5.19623782 16.4564384,6.04851852 17.6550685,6.36167641 C18.8536986,6.67483431 20.6219178,6.55762183 21.6242466,6.49867446 C22.6261644,6.44 28.3456164,6.40083821 28.3456164,6.40083821 C28.3456164,6.40083821 34.0647945,6.44 35.0669863,6.49867446 C36.0689041,6.55762183 37.8375342,6.67483431 39.0361644,6.36167641 C40.2347945,6.04851852 41.1271233,5.19623782 41.1271233,5.19623782 C39.2531507,3.75393762 35.2889041,1.74290448 28.3456164,1.40996101 Z" id="Shape" fill="#2D404E"></path>
            <path d="M55.8542466,43.9151072 L56.8219178,44.2511891 C56.8219178,44.2511891 57.5079452,42.8075244 58.7983562,43.25577 C60.0887671,43.7034698 60.1465753,44.7447368 59.5467123,46.4587135 C58.6658904,48.975848 57.9456164,48.9657505 57.6230137,48.8538596 L56.5172603,52.0135478 L55.4210959,51.597232 L56.5082192,48.4910331 C56.5082192,48.4910331 55.4436986,48.4521442 56.219863,46.1439181 L55.4016438,45.8600975 L55.8542466,43.9151072 Z" id="Shape" fill="#2D404E"></path>
            <path d="M55.4210959,51.597232 C55.4210959,51.597232 49.0717808,67.597076 33.5108219,67.597076 L33.5108219,68.8033138 C33.5108219,68.8033138 49.3226027,69.5610331 56.5172603,52.0135478 L55.4210959,51.597232 Z" id="Shape" fill="#2D404E"></path>
            <path d="M33.5184932,68.9817934 C33.5184932,69.468655 33.0631507,69.8636842 32.5017808,69.8636842 L27.290411,69.8636842 C26.7287671,69.8636842 26.2736986,69.468655 26.2736986,68.9817934 L26.2736986,67.5809747 C26.2736986,67.0941131 26.7287671,66.6993567 27.290411,66.6993567 L32.5017808,66.6993567 C33.0631507,66.6993567 33.5184932,67.0941131 33.5184932,67.5809747 L33.5184932,68.9817934 Z" id="Shape" fill="#2D404E"></path>
            <path d="M14.000411,6.06830409 L14.2208219,6.24610136 C14.2208219,6.24610136 13.4109589,6.99795322 13.2341096,7.90808967 C13.2341096,7.90808967 10.109863,10.697037 8.51821918,13.0163158 C8.51821918,13.0163158 8.28246575,12.0183041 8.90136986,10.9905458 C9.52027397,9.96306043 14.000411,6.06830409 14.000411,6.06830409 Z" id="Shape" fill="#2D404E"></path>
            <path d="M8.7539726,53.8833528 C9.75616438,57.3477388 10.3456164,58.1109162 10.3456164,58.1109162 C9.34342466,57.9937037 6.10150685,56.1734308 6.10150685,56.1734308 C6.10150685,56.1734308 5.66917808,55.7427875 4.3330137,53.8833528 C2.99712329,52.0239181 1.26794521,46.8960429 0.639178082,42.5119688 C0.0104109589,38.1276218 0.0887671233,31.5709552 0.0887671233,31.5709552 L0.654657534,31.4555166 C0.654657534,31.4555166 0.73739726,39.3214425 1.68041096,43.0206628 C2.62342466,46.719883 5.74767123,52.7090448 7.10342466,53.4136842 C8.45931507,54.1181871 8.7539726,53.8833528 8.7539726,53.8833528 Z" id="Shape" fill="#915A26"></path>
            <path d="M47.9371233,53.8833528 C46.9352055,57.3477388 46.3454795,58.1109162 46.3454795,58.1109162 C47.3476712,57.9937037 50.589589,56.1734308 50.589589,56.1734308 C50.589589,56.1734308 51.0219178,55.7427875 52.3580822,53.8833528 C53.6942466,52.0239181 55.4234247,46.8960429 56.0521918,42.5119688 C56.6809589,38.1276218 56.6023288,31.5709552 56.6023288,31.5709552 L56.0367123,31.4555166 C56.0367123,31.4555166 55.9539726,39.3214425 55.0106849,43.0206628 C54.0675342,46.7197466 50.9434247,52.7090448 49.5876712,53.4136842 C48.2319178,54.1181871 47.9371233,53.8833528 47.9371233,53.8833528 Z" id="Shape" fill="#915A26"></path>
            <path d="M0.556438356,31.1923002 C0.556438356,31.1923002 0.914109589,27.754386 1.32671233,25.1118519 C1.73931507,22.4697271 3.39273973,18.0610916 5.80958904,13.9510136 L5.33520548,13.6621442 C5.33520548,13.6621442 2.56465753,18.8878558 1.73931507,21.4715789 C0.914246575,24.0551657 0.0845205479,29.7498635 0.085890411,31.2771735 L0.556438356,31.1923002 Z" id="Shape" fill="#915A26"></path>
            <path d="M56.1349315,31.1923002 C56.1349315,31.1923002 55.7772603,27.754386 55.3643836,25.1118519 C54.9517808,22.4697271 53.2983562,18.0610916 50.8815068,13.9510136 L51.3561644,13.6621442 C51.3561644,13.6621442 54.1267123,18.8878558 54.9517808,21.4715789 C55.7771233,24.0551657 56.6065753,29.7498635 56.6054795,31.2771735 L56.1349315,31.1923002 Z" id="Shape" fill="#915A26"></path>
            <path d="M5.81013699,13.5153216 L5.51205479,13.3100975 C7.12328767,10.6090253 11.210137,5.67682261 16.7510959,2.78007797 C16.7510959,2.78007797 10.2934247,6.49867446 5.81013699,13.5153216 Z" id="Shape" fill="#915A26"></path>
            <path d="M50.9082192,13.4963548 L51.1793151,13.3100975 C49.5678082,10.6090253 45.4809589,5.67682261 39.94,2.78007797 C39.94,2.78007797 46.0230137,5.93239766 50.9082192,13.4963548 Z" id="Shape" fill="#915A26"></path>
            <path d="M3.24082192,30.8075049 L2.68246575,30.8075049 C2.68246575,30.8075049 1.85739726,27.9892203 2.26986301,25.3469591 C2.68246575,22.7045614 3.97931507,18.4183236 6.3960274,14.3082456 L6.68767123,14.4910916 C6.68767123,14.4910916 3.2130137,20.2385965 2.68246575,25.3470955 C2.26369863,28.6425536 3.24082192,30.8075049 3.24082192,30.8075049 Z" id="Shape" fill="#D89932"></path>
            <path d="M53.450274,30.8075049 L54.0086301,30.8075049 C54.0086301,30.8075049 54.8336986,27.9892203 54.4212329,25.3469591 C54.0086301,22.7045614 52.7117808,18.4183236 50.2950685,14.3082456 L50.0036986,14.4910916 C50.0036986,14.4910916 53.4780822,20.2385965 54.0086301,25.3470955 C54.4273973,28.6425536 53.450274,30.8075049 53.450274,30.8075049 Z" id="Shape" fill="#D89932"></path>
            <path d="M11.1658904,57.5779337 C10.8860274,57.8745809 10.5871233,58.1109162 10.3456164,58.1109162 C10.3456164,58.1109162 9.75616438,57.3476023 8.7539726,53.8833528 C7.75191781,50.4189669 4.39205479,38.675614 4.39205479,38.675614 C4.39205479,38.675614 3.80232877,36.7381287 3.56671233,35.1526901 C3.33109589,33.5672515 2.68246575,31.0426121 2.68246575,31.0426121 L3.24082192,31.0426121 C3.24082192,31.0426121 4.19753425,36.0921637 4.91383562,38.5584016 C5.62986301,41.0243665 9.34342466,53.5899805 10.0508219,55.351306 C10.7582192,57.1129045 11.1658904,57.5779337 11.1658904,57.5779337 Z" id="Shape" fill="#D89932"></path>
            <path d="M45.5250685,57.5779337 C45.8052055,57.8745809 46.1041096,58.1109162 46.3453425,58.1109162 C46.3453425,58.1109162 46.9350685,57.3476023 47.9369863,53.8833528 C48.9389041,50.4191033 52.2991781,38.675614 52.2991781,38.675614 C52.2991781,38.675614 52.8886301,36.7381287 53.1242466,35.1526901 C53.359863,33.5672515 54.0084932,31.0426121 54.0084932,31.0426121 L53.450137,31.0426121 C53.450137,31.0426121 52.4934247,36.0921637 51.7773973,38.5584016 C51.0610959,41.0243665 47.3475342,53.5899805 46.640137,55.351306 C45.9328767,57.1129045 45.5250685,57.5779337 45.5250685,57.5779337 Z" id="Shape" fill="#D89932"></path>
            <path d="M8.96205479,33.9018324 C7.89876712,34.208577 7.28671233,35.315614 7.59465753,36.3747563 L13.0712329,55.2123977 C13.3791781,56.27154 14.4905479,56.8812086 15.5538356,56.5744639 L8.96205479,33.9018324 Z" id="Shape" fill="#253744"></path>
            <path d="M47.7289041,33.9018324 C48.7921918,34.208577 49.4042466,35.315614 49.0965753,36.3747563 L43.62,55.2123977 C43.3120548,56.27154 42.200411,56.8812086 41.1371233,56.5744639 L47.7289041,33.9018324 Z" id="Shape" fill="#253744"></path>
            <polygon id="Shape" fill="#223440" points="7.59465753 36.3747563 6.68767123 36.6666277 11.5243836 53.7265692 12.5510959 53.4236452"></polygon>
            <polygon id="Shape" fill="#223440" points="49.0967123 36.3747563 50.0036986 36.6666277 45.1665753 53.7265692 44.14 53.4236452"></polygon>
            <path d="M15.9794521,5.53450292 C15.7161644,5.34183236 15.5639726,5.19623782 15.5639726,5.19623782 C17.4379452,3.75393762 21.4021918,1.74276803 28.3457534,1.40996101 C35.2890411,1.74276803 39.2532877,3.75393762 41.1272603,5.19623782 C41.1272603,5.19623782 41.0046575,5.31345029 40.7893151,5.47692008 C40.7893151,5.47692008 36.7230137,2.78007797 28.3457534,2.78007797 C19.9680822,2.78007797 15.9794521,5.53450292 15.9794521,5.53450292 Z" id="Shape" fill="#253744"></path>
            <path d="M55.6950685,51.7012086 L55.4210959,51.597232 L56.5082192,48.4910331 C56.5082192,48.4910331 55.4436986,48.4521442 56.219863,46.1439181 L55.4016438,45.8600975 L55.8543836,43.9151072 L56.8220548,44.2511891 C56.8220548,44.2511891 57.5080822,42.8075244 58.7984932,43.25577 C58.7984932,43.25577 58.1071233,43.1003509 57.4712329,44.5766277 C56.8354795,46.052768 56.199589,47.8037232 56.910137,48.2510136 L55.6950685,51.7012086 Z" id="Shape" fill="#253744"></path>
            <path d="M26.2736986,68.9817934 C26.2736986,69.468655 26.7287671,69.8636842 27.290411,69.8636842 L32.5017808,69.8636842 C33.0631507,69.8636842 33.5184932,69.468655 33.5184932,68.9817934 L26.2736986,68.9817934 L26.2736986,68.9817934 Z" id="Shape" fill="#253744"></path>
            <rect id="Rectangle-path" fill="#F2B643" x="27.7894521" y="66.6994932" width="1" height="3.16419103"></rect>
            <rect id="Rectangle-path" fill="#D89932" x="27.7894521" y="68.9817934" width="1" height="1"></rect>
        </g>
    </g>
</svg>