<?xml version="1.0" encoding="UTF-8"?>
<svg width="397px" height="98px" viewBox="0 0 397 98" version="1.1" xmlns="http://www.w3.org/2000/svg" xmlns:xlink="http://www.w3.org/1999/xlink">
    <!-- Generator: Sketch 48.1 (47250) - http://www.bohemiancoding.com/sketch -->
    <title>Group 5</title>
    <desc>Created with Sketch.</desc>
    <defs></defs>
    <g id="Page-1" stroke="none" stroke-width="1" fill="none" fill-rule="evenodd">
        <g id="Layer_5" transform="translate(-894.000000, -971.000000)" fill="#FFFFFF">
            <g id="Group-2">
                <g id="Group-4">
                    <g id="Group-5" transform="translate(894.000000, 935.000000)">
                        <g id="Group-Copy-2" transform="translate(0.000000, 36.126629)" fill-rule="nonzero">
                            <path d="M12.1783456,8.51361691 L49.9670356,73.0878289 C51.9370621,76.6554649 56.951675,76.6554649 58.9217015,73.0878289 L79.1592464,37.9466141 C81.1292729,34.5573599 78.6219665,30.2761966 74.6819135,30.2761966 L59.1007948,30.2761966 C56.0562084,30.2761966 53.7279953,27.7788514 53.9070886,24.7463608 L53.9070886,24.567979 C54.0861819,21.892252 56.4143951,19.7516704 59.1007948,19.7516704 L92.7703386,20.108434 C96.7103916,20.108434 99.217698,24.3895972 97.2476715,27.7788514 L58.7426082,95.0287904 C56.7725817,98.4180446 51.7579688,98.4180446 49.7879423,95.0287904 L0.895466588,13.6866891 C-1.07455991,10.1190531 1.43274654,5.83788989 5.37279953,5.83788989 L7.52191934,5.83788989 C9.49194584,5.83788989 11.282879,6.9081807 12.1783456,8.51361691 Z" id="Combined-Shape-Copy"></path>
                            <path d="M57.488955,39.5520503 L58.0262349,39.5520503 C61.6081013,39.5520503 63.9363144,43.2980681 62.3244746,46.5089405 L58.9217015,52.9306854 C57.1307683,56.3199396 52.4743421,56.3199396 50.5043156,53.1090672 L23.2821313,7.2649443 C21.4911981,4.05407188 23.6403179,0.129672258 27.4012776,0.129672258 L105.306871,0.129672258 C108.888737,0.129672258 111.21695,3.87569008 109.60511,7.0865625 C108.709644,8.69199871 107.097804,9.58390771 105.306871,9.58390771 L44.7733294,9.58390771 C41.0123698,9.58390771 38.6841566,13.6866891 40.6541831,16.8975616 L53.3698087,37.4114687 C54.2652753,38.8385231 55.8771151,39.5520503 57.488955,39.5520503 Z" id="Shape-Copy-9"></path>
                        </g>
                        <g id="Group-3" transform="translate(104.400372, 0.000000)" font-family="BrandonGrotesque-Medium, Brandon Grotesque" font-size="107.26257" font-weight="400">
                            <text id="vendex">
                                <tspan x="1.08193669" y="113">vendex</tspan>
                            </text>
                        </g>
                    </g>
                </g>
            </g>
        </g>
    </g>
</svg>