<?xml version="1.0" encoding="UTF-8"?>
<svg width="80px" height="71px" viewBox="0 0 80 71" version="1.1" xmlns="http://www.w3.org/2000/svg" xmlns:xlink="http://www.w3.org/1999/xlink">
    <!-- Generator: Sketch 48.2 (47327) - http://www.bohemiancoding.com/sketch -->
    <title>Group-Copy-2</title>
    <desc>Created with Sketch.</desc>
    <defs></defs>
    <g id="Page-1" stroke="none" stroke-width="1" fill="none" fill-rule="evenodd">
        <g id="Group-Copy-2" fill="#FFFFFF" fill-rule="nonzero">
            <path d="M8.83752917,6.19463114 L36.2598623,53.1797643 C37.6894627,55.7756281 41.3284453,55.7756281 42.7580456,53.1797643 L57.4439396,27.6105068 C58.8735399,25.1444362 57.0540486,22.0293998 54.194848,22.0293998 L42.8880092,22.0293998 C40.6786269,22.0293998 38.9890993,20.2122952 39.119063,18.005811 L39.119063,17.8760178 C39.2490266,15.9291201 40.9385543,14.3716018 42.8880092,14.3716018 L67.3211781,14.6311882 C70.1803787,14.6311882 71.99987,17.7462247 70.5702697,20.2122952 L42.6280819,69.1443262 C41.1984816,71.6103967 37.559499,71.6103967 36.1298987,69.1443262 L0.649818322,9.95863352 C-0.779781986,7.36276981 1.03970931,4.24773336 3.89890993,4.24773336 L5.4584739,4.24773336 C6.88807421,4.24773336 8.18771085,5.02649247 8.83752917,6.19463114 Z" id="Combined-Shape-Copy"></path>
            <path d="M41.7183362,28.7786454 L42.1082272,28.7786454 C44.7075005,28.7786454 46.3970282,31.5043023 45.2273552,33.8405797 L42.7580456,38.5131344 C41.4584089,40.9792049 38.0793536,40.9792049 36.6497533,38.6429276 L16.8952764,5.28607884 C15.5956397,2.9498015 17.1552037,0.0943514154 19.8844406,0.0943514154 L76.4186346,0.0943514154 C79.0179079,0.0943514154 80.7074355,2.82000831 79.5377626,5.15628566 C78.8879442,6.32442433 77.7182713,6.97339025 76.4186346,6.97339025 L32.4909161,6.97339025 C29.7616791,6.97339025 28.0721515,9.95863352 29.5017518,12.2949109 L38.729172,27.2211272 C39.3789903,28.2594727 40.5486633,28.7786454 41.7183362,28.7786454 Z" id="Shape-Copy-9"></path>
        </g>
    </g>
</svg>