<?xml version="1.0" encoding="UTF-8"?>
<svg width="60px" height="60px" viewBox="0 0 60 60" version="1.1" xmlns="http://www.w3.org/2000/svg" xmlns:xlink="http://www.w3.org/1999/xlink">
    <!-- Generator: Sketch 47.1 (45422) - http://www.bohemiancoding.com/sketch -->
    <title>cpu</title>
    <desc>Created with Sketch.</desc>
    <defs>
        <linearGradient x1="46.1247282%" y1="46.0930818%" x2="98.0369459%" y2="98.0170226%" id="linearGradient-1">
            <stop stop-color="#000000" stop-opacity="0.1" offset="0%"></stop>
            <stop stop-color="#000000" stop-opacity="0" offset="100%"></stop>
        </linearGradient>
        <linearGradient x1="14.8503917%" y1="26.2821201%" x2="100.190916%" y2="99.8438779%" id="linearGradient-2">
            <stop stop-color="#000000" stop-opacity="0.1" offset="0%"></stop>
            <stop stop-color="#000000" stop-opacity="0" offset="100%"></stop>
        </linearGradient>
        <linearGradient x1="-1.70878015%" y1="25.890556%" x2="101.709548%" y2="74.1181394%" id="linearGradient-3">
            <stop stop-color="#FFFFFF" stop-opacity="0.2" offset="0%"></stop>
            <stop stop-color="#FFFFFF" stop-opacity="0" offset="100%"></stop>
        </linearGradient>
    </defs>
    <g id="Page-1" stroke="none" stroke-width="1" fill="none" fill-rule="evenodd">
        <g id="cpu" fill-rule="nonzero">
            <path d="M58.553234,23.1488936 C59.3059149,23.1488936 59.9149787,22.5398298 59.9149787,21.7871489 C59.9149787,21.0344681 59.3059149,20.4255319 58.553234,20.4255319 L54.4681277,20.4255319 L54.4681277,14.9786809 L58.553234,14.9786809 C59.3059149,14.9786809 59.9149787,14.369617 59.9149787,13.6169362 C59.9149787,12.8642553 59.3059149,12.2551915 58.553234,12.2551915 L54.4681277,12.2551915 L54.4681277,10.8935745 C54.4681277,7.88961702 52.0253617,5.4467234 49.0212766,5.4467234 L47.6595319,5.4467234 L47.6595319,1.36161702 C47.6595319,0.60906383 47.0505957,0 46.2979149,0 C45.545234,0 44.9361702,0.60906383 44.9361702,1.36174468 L44.9361702,5.44685106 L39.4893191,5.44685106 L39.4893191,1.36174468 C39.4893191,0.60906383 38.880383,0 38.1277021,0 C37.3750213,0 36.7659574,0.60906383 36.7659574,1.36174468 L36.7659574,5.44685106 L31.3191064,5.44685106 L31.3191064,1.36174468 C31.3191064,0.60906383 30.7101702,0 29.9574894,0 C29.2048085,0 28.5957447,0.60906383 28.5957447,1.36174468 L28.5957447,5.44685106 L23.1488936,5.44685106 L23.1488936,1.36174468 C23.1488936,0.60906383 22.5399574,0 21.7872766,0 C21.0345957,0 20.4255319,0.60906383 20.4255319,1.36174468 L20.4255319,5.44685106 L14.9786809,5.44685106 L14.9786809,1.36174468 C14.9786809,0.60906383 14.3697447,0 13.6170638,0 C12.864383,0 12.2553191,0.60906383 12.2553191,1.36174468 L12.2553191,5.44685106 L10.8935745,5.44685106 C7.88961702,5.44685106 5.4467234,7.88961702 5.4467234,10.8937021 L5.4467234,12.2553191 L1.36161702,12.2553191 C0.60906383,12.2553191 0,12.864383 0,13.6170638 C0,14.3697447 0.60906383,14.9788085 1.36174468,14.9788085 L5.44685106,14.9788085 L5.44685106,20.4255319 L1.36174468,20.4255319 C0.60906383,20.4255319 0,21.0345957 0,21.7872766 C0,22.5399574 0.60906383,23.1490213 1.36174468,23.1490213 L5.44685106,23.1490213 L5.44685106,28.5957447 L1.36174468,28.5957447 C0.60906383,28.5957447 0,29.2048085 0,29.9574894 C0,30.7101702 0.60906383,31.319234 1.36174468,31.319234 L5.44685106,31.319234 L5.44685106,36.7659574 L1.36174468,36.7659574 C0.60906383,36.7659574 0,37.3750213 0,38.1277021 C0,38.880383 0.60906383,39.4894468 1.36174468,39.4894468 L5.44685106,39.4894468 L5.44685106,44.9361702 L1.36174468,44.9361702 C0.60906383,44.9361702 0,45.545234 0,46.2979149 C0,47.0505957 0.60906383,47.6596596 1.36174468,47.6596596 L5.44685106,47.6596596 L5.44685106,49.0212766 C5.44685106,52.025234 7.88961702,54.4681277 10.8937021,54.4681277 L12.2553191,54.4681277 L12.2553191,58.553234 C12.2553191,59.3059149 12.864383,59.9149787 13.6170638,59.9149787 C14.3697447,59.9149787 14.9788085,59.3059149 14.9788085,58.553234 L14.9788085,54.4681277 L20.4255319,54.4681277 L20.4255319,58.553234 C20.4255319,59.3059149 21.0345957,59.9149787 21.7872766,59.9149787 C22.5399574,59.9149787 23.1490213,59.3059149 23.1490213,58.553234 L23.1490213,54.4681277 L28.5957447,54.4681277 L28.5957447,58.553234 C28.5957447,59.3059149 29.2048085,59.9149787 29.9574894,59.9149787 C30.7101702,59.9149787 31.319234,59.3059149 31.319234,58.553234 L31.319234,54.4681277 L36.7659574,54.4681277 L36.7659574,58.553234 C36.7659574,59.3059149 37.3750213,59.9149787 38.1277021,59.9149787 C38.880383,59.9149787 39.4894468,59.3059149 39.4894468,58.553234 L39.4894468,54.4681277 L44.9361702,54.4681277 L44.9361702,58.553234 C44.9361702,59.3059149 45.545234,59.9149787 46.2979149,59.9149787 C47.0505957,59.9149787 47.6596596,59.3059149 47.6596596,58.553234 L47.6596596,54.4681277 L49.0212766,54.4681277 C52.025234,54.4681277 54.4681277,52.0253617 54.4681277,49.0212766 L54.4681277,47.6595319 L58.553234,47.6595319 C59.3059149,47.6595319 59.9149787,47.0504681 59.9149787,46.2977872 C59.9149787,45.5451064 59.3059149,44.9360426 58.553234,44.9360426 L54.4681277,44.9360426 L54.4681277,39.4891915 L58.553234,39.4891915 C59.3059149,39.4891915 59.9149787,38.8801277 59.9149787,38.1274468 C59.9149787,37.374766 59.3059149,36.7657021 58.553234,36.7657021 L54.4681277,36.7657021 L54.4681277,31.3188511 L58.553234,31.3188511 C59.3059149,31.3188511 59.9149787,30.7097872 59.9149787,29.9571064 C59.9149787,29.2044255 59.3059149,28.5957447 58.553234,28.5957447 L54.4681277,28.5957447 L54.4681277,23.1488936 L58.553234,23.1488936 Z" id="Shape" fill="#0B3A5B"></path>
            <path d="M49.0212766,51.7446383 L10.8935745,51.7446383 C9.39229787,51.7446383 8.17021277,50.5225532 8.17021277,49.0212766 L8.17021277,10.8935745 C8.17021277,9.39229787 9.39229787,8.17021277 10.8935745,8.17021277 L49.0212766,8.17021277 C50.5225532,8.17021277 51.7446383,9.39229787 51.7446383,10.8935745 L51.7446383,49.0212766 C51.7446383,50.5225532 50.5225532,51.7446383 49.0212766,51.7446383 Z" id="Shape" fill="#3BB54A"></path>
            <path d="M47.6595319,10.8935745 L12.2553191,10.8935745 C11.5026383,10.8935745 10.8935745,11.5026383 10.8935745,12.2553191 L10.8935745,47.6595319 C10.8935745,48.4122128 11.5026383,49.0212766 12.2553191,49.0212766 L47.6595319,49.0212766 C48.4122128,49.0212766 49.0212766,48.4122128 49.0212766,47.6595319 L49.0212766,12.2553191 C49.0212766,11.5026383 48.4122128,10.8935745 47.6595319,10.8935745 Z" id="Shape" fill="#0B3A5B"></path>
            <rect id="SVGCleanerId_0" fill="#F2F2F2" x="13.6170638" y="13.6170638" width="32.6808511" height="32.6808511"></rect>
            <rect id="SVGCleanerId_0_1_" fill="#F2F2F2" x="13.6170638" y="13.6170638" width="32.6808511" height="32.6808511"></rect>
            <path d="M48.6662553,11.3567234 L48.6662553,11.3567234 C48.8808511,11.5973617 49.0212766,11.9070638 49.0212766,12.2553191 L49.0212766,47.6595319 C49.0212766,48.4122128 48.4122128,49.0212766 47.6595319,49.0212766 L12.2553191,49.0212766 C11.8876596,49.0212766 11.5570213,48.8722979 11.3120426,48.636 L11.3114043,48.6366383 L14.4192766,51.7446383 L49.0212766,51.7446383 C50.5225532,51.7446383 51.7446383,50.5225532 51.7446383,49.0212766 L51.7446383,14.435234 L48.6662553,11.3567234 Z" id="Shape" fill="url(#linearGradient-1)"></path>
            <path d="M21.7872766,34.0433617 L27.2341277,34.0433617 L27.2341277,42.2135745 C27.2341277,42.8186809 27.6330638,43.3519149 28.2155745,43.5208085 C28.3404255,43.5580851 28.4680851,43.5753191 28.5957447,43.5753191 C29.0531489,43.5753191 29.4893617,43.3452766 29.7446809,42.9449362 L39.2766383,27.9662553 C39.5425532,27.546 39.5611915,27.0154468 39.3218298,26.579234 C39.0824681,26.1444255 38.6250638,25.8731489 38.1277021,25.8731489 L32.6808511,25.8731489 L32.6808511,17.7029362 C32.6808511,17.0978298 32.2819149,16.5645957 31.6994043,16.3957021 C31.1249362,16.2228511 30.497234,16.4582553 30.1701702,16.9714468 L20.6382128,31.9501277 C20.3722979,32.370383 20.3536596,32.9009362 20.5930213,33.3371489 C20.8325106,33.7720851 21.2899149,34.0433617 21.7872766,34.0433617 Z" id="Shape" fill="#0B3A5B"></path>
            <path d="M29.9574894,22.3784681 L29.9574894,27.2348936 C29.9574894,27.9875745 30.5665532,28.5966383 31.319234,28.5966383 L35.646383,28.5966383 L29.9574894,37.5381702 L29.9574894,32.6817447 C29.9574894,31.9290638 29.3484255,31.32 28.5957447,31.32 L24.2685957,31.32 L29.9574894,22.3784681 Z" id="Shape" fill="#F6B545"></path>
            <path d="M21.0210638,33.7789787 L21.0132766,33.7904681 L27.234,40.0111915 L27.234,34.0434894 L21.7871489,34.0434894 C21.5027234,34.0433617 21.2461277,33.9365106 21.0210638,33.7789787 Z M32.4628085,16.9868936 L32.4490213,17.0071915 C32.5770638,17.2161702 32.6808511,17.4453191 32.6808511,17.7030638 L32.6808511,25.8732766 L38.1277021,25.8732766 C38.6250638,25.8732766 39.0824681,26.1445532 39.3218298,26.5793617 C39.5611915,27.0155745 39.5425532,27.5461277 39.2766383,27.966383 L29.7446809,42.9449362 C29.4893617,43.3451489 29.0531489,43.5753191 28.5957447,43.5753191 C28.4680851,43.5753191 28.3404255,43.5580851 28.2154468,43.5208085 L30.9926809,46.2979149 L46.2979149,46.2979149 L46.2979149,30.822 L32.4628085,16.9868936 Z" id="Shape" fill="url(#linearGradient-2)"></path>
            <path d="M58.553234,23.1488936 C59.3059149,23.1488936 59.9149787,22.5398298 59.9149787,21.7871489 C59.9149787,21.0344681 59.3059149,20.4255319 58.553234,20.4255319 L54.4681277,20.4255319 L54.4681277,14.9786809 L58.553234,14.9786809 C59.3059149,14.9786809 59.9149787,14.369617 59.9149787,13.6169362 C59.9149787,12.8642553 59.3059149,12.2551915 58.553234,12.2551915 L54.4681277,12.2551915 L54.4681277,10.8935745 C54.4681277,7.88961702 52.0253617,5.4467234 49.0212766,5.4467234 L47.6595319,5.4467234 L47.6595319,1.36161702 C47.6595319,0.60906383 47.0505957,0 46.2979149,0 C45.545234,0 44.9361702,0.60906383 44.9361702,1.36174468 L44.9361702,5.44685106 L39.4893191,5.44685106 L39.4893191,1.36174468 C39.4893191,0.60906383 38.880383,0 38.1277021,0 C37.3750213,0 36.7659574,0.60906383 36.7659574,1.36174468 L36.7659574,5.44685106 L31.3191064,5.44685106 L31.3191064,1.36174468 C31.3191064,0.60906383 30.7101702,0 29.9574894,0 C29.2048085,0 28.5957447,0.60906383 28.5957447,1.36174468 L28.5957447,5.44685106 L23.1488936,5.44685106 L23.1488936,1.36174468 C23.1488936,0.60906383 22.5399574,0 21.7872766,0 C21.0345957,0 20.4255319,0.60906383 20.4255319,1.36174468 L20.4255319,5.44685106 L14.9786809,5.44685106 L14.9786809,1.36174468 C14.9786809,0.60906383 14.3697447,0 13.6170638,0 C12.864383,0 12.2553191,0.60906383 12.2553191,1.36174468 L12.2553191,5.44685106 L10.8935745,5.44685106 C7.88961702,5.44685106 5.4467234,7.88961702 5.4467234,10.8937021 L5.4467234,12.2553191 L1.36161702,12.2553191 C0.60906383,12.2553191 0,12.864383 0,13.6170638 C0,14.3697447 0.60906383,14.9788085 1.36174468,14.9788085 L5.44685106,14.9788085 L5.44685106,20.4255319 L1.36174468,20.4255319 C0.60906383,20.4255319 0,21.0345957 0,21.7872766 C0,22.5399574 0.60906383,23.1490213 1.36174468,23.1490213 L5.44685106,23.1490213 L5.44685106,28.5957447 L1.36174468,28.5957447 C0.60906383,28.5957447 0,29.2048085 0,29.9574894 C0,30.7101702 0.60906383,31.319234 1.36174468,31.319234 L5.44685106,31.319234 L5.44685106,36.7659574 L1.36174468,36.7659574 C0.60906383,36.7659574 0,37.3750213 0,38.1277021 C0,38.880383 0.60906383,39.4894468 1.36174468,39.4894468 L5.44685106,39.4894468 L5.44685106,44.9361702 L1.36174468,44.9361702 C0.60906383,44.9361702 0,45.545234 0,46.2979149 C0,47.0505957 0.60906383,47.6596596 1.36174468,47.6596596 L5.44685106,47.6596596 L5.44685106,49.0212766 C5.44685106,52.025234 7.88961702,54.4681277 10.8937021,54.4681277 L12.2553191,54.4681277 L12.2553191,58.553234 C12.2553191,59.3059149 12.864383,59.9149787 13.6170638,59.9149787 C14.3697447,59.9149787 14.9788085,59.3059149 14.9788085,58.553234 L14.9788085,54.4681277 L20.4255319,54.4681277 L20.4255319,58.553234 C20.4255319,59.3059149 21.0345957,59.9149787 21.7872766,59.9149787 C22.5399574,59.9149787 23.1490213,59.3059149 23.1490213,58.553234 L23.1490213,54.4681277 L28.5957447,54.4681277 L28.5957447,58.553234 C28.5957447,59.3059149 29.2048085,59.9149787 29.9574894,59.9149787 C30.7101702,59.9149787 31.319234,59.3059149 31.319234,58.553234 L31.319234,54.4681277 L36.7659574,54.4681277 L36.7659574,58.553234 C36.7659574,59.3059149 37.3750213,59.9149787 38.1277021,59.9149787 C38.880383,59.9149787 39.4894468,59.3059149 39.4894468,58.553234 L39.4894468,54.4681277 L44.9361702,54.4681277 L44.9361702,58.553234 C44.9361702,59.3059149 45.545234,59.9149787 46.2979149,59.9149787 C47.0505957,59.9149787 47.6596596,59.3059149 47.6596596,58.553234 L47.6596596,54.4681277 L49.0212766,54.4681277 C52.025234,54.4681277 54.4681277,52.0253617 54.4681277,49.0212766 L54.4681277,47.6595319 L58.553234,47.6595319 C59.3059149,47.6595319 59.9149787,47.0504681 59.9149787,46.2977872 C59.9149787,45.5451064 59.3059149,44.9360426 58.553234,44.9360426 L54.4681277,44.9360426 L54.4681277,39.4891915 L58.553234,39.4891915 C59.3059149,39.4891915 59.9149787,38.8801277 59.9149787,38.1274468 C59.9149787,37.374766 59.3059149,36.7657021 58.553234,36.7657021 L54.4681277,36.7657021 L54.4681277,31.3188511 L58.553234,31.3188511 C59.3059149,31.3188511 59.9149787,30.7097872 59.9149787,29.9571064 C59.9149787,29.2044255 59.3059149,28.5957447 58.553234,28.5957447 L54.4681277,28.5957447 L54.4681277,23.1488936 L58.553234,23.1488936 Z" id="Shape" fill="url(#linearGradient-3)"></path>
        </g>
    </g>
</svg>