<?xml version="1.0" encoding="UTF-8"?>
<svg width="40px" height="64px" viewBox="0 0 40 64" version="1.1" xmlns="http://www.w3.org/2000/svg" xmlns:xlink="http://www.w3.org/1999/xlink">
    <!-- Generator: Sketch 47.1 (45422) - http://www.bohemiancoding.com/sketch -->
    <title>Group</title>
    <desc>Created with Sketch.</desc>
    <defs></defs>
    <g id="Page-1" stroke="none" stroke-width="1" fill="none" fill-rule="evenodd">
        <g id="bitcoin" transform="translate(-32.000000, -23.000000)" fill-rule="nonzero">
            <g id="Group" transform="translate(32.000000, 23.000000)">
                <path d="M34,60 L6,60 C3.8,60 2,58.2 2,56 L2,30 L38,30 L38,56 C38,58.2 36.2,60 34,60 Z" id="Shape" fill="#4E9CD5"></path>
                <path d="M32,36 L32,54 C32,55.2 31.2,56 30,56 L4,56 C4,57.2 4.8,58 6,58 L34,58 C35.2,58 36,57.2 36,56 L36,32 L36,32 C33.8,32 32,33.8 32,36 Z" id="Shape" fill="#368ACA"></path>
                <path d="M24,42 C24,39.8 22.2,38 20,38 C17.8,38 16,39.8 16,42 C16,43.4 16.8,44.8 18,45.4 L18,48 C18,49.2 18.8,50 20,50 C21.2,50 22,49.2 22,48 L22,45.4 C23.2,44.8 24,43.4 24,42 Z" id="Shape" fill="#0F395A"></path>
                <path d="M38,28 L36,28 C36,26.8 35.2,26 34,26 L34,14 C34,6.2 27.8,0 20,0 C12.2,0 6,6.2 6,14 L6,26 C4.8,26 4,26.8 4,28 L2,28 C0.8,28 0,28.8 0,30 L0,56 C0,59.4 2.6,62 6,62 L8,62 C8,63.2 8.8,64 10,64 L30,64 C31.2,64 32,63.2 32,62 L34,62 C37.4,62 40,59.4 40,56 L40,30 C40,28.8 39.2,28 38,28 Z M10,26 L10,14 C10,8.4 14.4,4 20,4 C25.6,4 30,8.4 30,14 L30,26 C28.8,26 28,26.8 28,28 L12,28 C12,26.8 11.2,26 10,26 Z M36,56 C36,57.2 35.2,58 34,58 L6,58 C4.8,58 4,57.2 4,56 L4,32 L36,32 L36,56 Z" id="Shape" fill="#0F395A"></path>
            </g>
        </g>
    </g>
</svg>