<?xml version="1.0" encoding="UTF-8"?>
<svg width="64px" height="64px" viewBox="0 0 64 64" version="1.1" xmlns="http://www.w3.org/2000/svg" xmlns:xlink="http://www.w3.org/1999/xlink">
    <!-- Generator: Sketch 47.1 (45422) - http://www.bohemiancoding.com/sketch -->
    <title>trade</title>
    <desc>Created with Sketch.</desc>
    <defs></defs>
    <g id="Page-1" stroke="none" stroke-width="1" fill="none" fill-rule="evenodd">
        <g id="trade" fill-rule="nonzero">
            <g id="Group" transform="translate(13.090909, 0.000000)">
                <g>
                    <circle id="Oval" fill="#3BB54A" cx="18.9090909" cy="18.9090909" r="17.4545455"></circle>
                    <path d="M18.9090909,37.8181818 C8.43636364,37.8181818 0,29.3818182 0,18.9090909 C0,8.43636364 8.43636364,0 18.9090909,0 C29.3818182,0 37.8181818,8.43636364 37.8181818,18.9090909 C37.8181818,29.3818182 29.3818182,37.8181818 18.9090909,37.8181818 Z M18.9090909,2.90909091 C10.0363636,2.90909091 2.90909091,10.0363636 2.90909091,18.9090909 C2.90909091,27.7818182 10.0363636,34.9090909 18.9090909,34.9090909 C27.7818182,34.9090909 34.9090909,27.7818182 34.9090909,18.9090909 C34.9090909,10.0363636 27.7818182,2.90909091 18.9090909,2.90909091 Z" id="Shape" fill="#0B3A5B"></path>
                </g>
                <path d="M9.6,31.8545455 L31.8545455,9.6 C30.2545455,7.41818182 28.0727273,5.67272727 25.6,4.50909091 L4.36363636,25.7454545 C5.52727273,28.2181818 7.41818182,30.2545455 9.6,31.8545455 Z" id="Shape" fill="#89C763"></path>
                <path d="M18.9090909,34.9090909 C27.7818182,34.9090909 34.9090909,27.7818182 34.9090909,18.9090909 C34.9090909,16.7272727 34.4727273,14.6909091 33.7454545,12.8 L12.8,33.7454545 C14.6909091,34.4727273 16.7272727,34.9090909 18.9090909,34.9090909 Z" id="Shape" fill="#89C763"></path>
                <g transform="translate(5.818182, 5.818182)">
                    <circle id="Oval" fill="#89C763" cx="13.0909091" cy="13.0909091" r="11.6363636"></circle>
                    <path d="M13.0909091,1.45454545 C19.4909091,1.45454545 24.7272727,6.69090909 24.7272727,13.0909091 C24.7272727,19.4909091 19.4909091,24.7272727 13.0909091,24.7272727 C6.69090909,24.7272727 1.45454545,19.4909091 1.45454545,13.0909091 C1.45454545,6.69090909 6.69090909,1.45454545 13.0909091,1.45454545 L13.0909091,1.45454545 Z M13.0909091,0 C5.81818182,0 0,5.81818182 0,13.0909091 C0,20.3636364 5.81818182,26.1818182 13.0909091,26.1818182 C20.3636364,26.1818182 26.1818182,20.3636364 26.1818182,13.0909091 C26.1818182,5.81818182 20.3636364,0 13.0909091,0 L13.0909091,0 Z" id="Shape" fill="#0B3A5B"></path>
                </g>
                <path d="M8.72727273,20.3636364 C8.72727273,13.9636364 13.9636364,8.72727273 20.3636364,8.72727273 C23.2727273,8.72727273 25.7454545,9.74545455 27.7818182,11.4909091 C25.7454545,8.87272727 22.5454545,7.27272727 18.9090909,7.27272727 C12.5090909,7.27272727 7.27272727,12.5090909 7.27272727,18.9090909 C7.27272727,22.5454545 8.87272727,25.7454545 11.4909091,27.7818182 C9.74545455,25.7454545 8.72727273,23.2727273 8.72727273,20.3636364 Z" id="Shape" fill="#3BB54A"></path>
                <path d="M22.2545455,7.85454545 L7.70909091,22.4 C8.58181818,25.0181818 10.3272727,27.3454545 12.6545455,28.8 L28.6545455,12.8 C27.2,10.3272727 25.0181818,8.58181818 22.2545455,7.85454545 Z" id="Shape" fill="#AED477"></path>
                <g transform="translate(7.272727, 7.272727)" id="Shape" fill="#89C763">
                    <path d="M14.1090909,1.45454545 C16.5818182,1.6 18.7636364,2.61818182 20.6545455,4.07272727 C19.2,2.32727273 17.3090909,1.16363636 15.1272727,0.436363636 L14.1090909,1.45454545 Z"></path>
                    <path d="M4.21818182,20.5090909 C2.76363636,18.7636364 1.74545455,16.4363636 1.6,13.9636364 L0.581818182,14.9818182 C1.16363636,17.1636364 2.47272727,19.2 4.21818182,20.5090909 Z"></path>
                </g>
                <path d="M18.9090909,30.5454545 C25.3090909,30.5454545 30.5454545,25.3090909 30.5454545,18.9090909 C30.5454545,18.0363636 30.4,17.0181818 30.2545455,16.1454545 L16.2909091,30.1090909 C17.0181818,30.4 18.0363636,30.5454545 18.9090909,30.5454545 Z" id="Shape" fill="#AED477"></path>
                <path d="M20.3636364,17.4545455 L17.4545455,17.4545455 C16.5818182,17.4545455 16,16.8727273 16,16 C16,15.1272727 16.5818182,14.5454545 17.4545455,14.5454545 L21.8181818,14.5454545 C22.6909091,14.5454545 23.2727273,13.9636364 23.2727273,13.0909091 C23.2727273,12.2181818 22.6909091,11.6363636 21.8181818,11.6363636 L20.3636364,11.6363636 C20.3636364,10.7636364 19.7818182,10.1818182 18.9090909,10.1818182 C18.0363636,10.1818182 17.4545455,10.7636364 17.4545455,11.6363636 C14.9818182,11.6363636 13.0909091,13.5272727 13.0909091,16 C13.0909091,18.4727273 14.9818182,20.3636364 17.4545455,20.3636364 L20.3636364,20.3636364 C21.2363636,20.3636364 21.8181818,20.9454545 21.8181818,21.8181818 C21.8181818,22.6909091 21.2363636,23.2727273 20.3636364,23.2727273 L16,23.2727273 C15.1272727,23.2727273 14.5454545,23.8545455 14.5454545,24.7272727 C14.5454545,25.6 15.1272727,26.1818182 16,26.1818182 L17.4545455,26.1818182 C17.4545455,27.0545455 18.0363636,27.6363636 18.9090909,27.6363636 C19.7818182,27.6363636 20.3636364,27.0545455 20.3636364,26.1818182 C22.8363636,26.1818182 24.7272727,24.2909091 24.7272727,21.8181818 C24.7272727,19.3454545 22.8363636,17.4545455 20.3636364,17.4545455 Z" id="Shape" fill="#0B3A5B"></path>
            </g>
            <g id="Group" transform="translate(0.000000, 26.181818)">
                <g>
                    <circle id="Oval" fill="#F5B445" cx="18.9090909" cy="18.9090909" r="17.4545455"></circle>
                    <path d="M18.9090909,37.8181818 C8.43636364,37.8181818 0,29.3818182 0,18.9090909 C0,8.43636364 8.43636364,0 18.9090909,0 C29.3818182,0 37.8181818,8.43636364 37.8181818,18.9090909 C37.8181818,29.3818182 29.3818182,37.8181818 18.9090909,37.8181818 Z M18.9090909,2.90909091 C10.0363636,2.90909091 2.90909091,10.0363636 2.90909091,18.9090909 C2.90909091,27.7818182 10.0363636,34.9090909 18.9090909,34.9090909 C27.7818182,34.9090909 34.9090909,27.7818182 34.9090909,18.9090909 C34.9090909,10.0363636 27.7818182,2.90909091 18.9090909,2.90909091 Z" id="Shape" fill="#0B3A5B"></path>
                </g>
                <path d="M9.6,31.8545455 L31.8545455,9.6 C30.2545455,7.41818182 28.0727273,5.67272727 25.6,4.50909091 L4.36363636,25.7454545 C5.52727273,28.2181818 7.41818182,30.2545455 9.6,31.8545455 Z" id="Shape" fill="#FFCB5B"></path>
                <path d="M18.9090909,34.9090909 C27.7818182,34.9090909 34.9090909,27.7818182 34.9090909,18.9090909 C34.9090909,16.7272727 34.4727273,14.6909091 33.7454545,12.8 L12.8,33.7454545 C14.6909091,34.4727273 16.7272727,34.9090909 18.9090909,34.9090909 Z" id="Shape" fill="#FFCB5B"></path>
                <g transform="translate(5.818182, 5.818182)">
                    <circle id="Oval" fill="#FFCB5B" cx="13.0909091" cy="13.0909091" r="11.6363636"></circle>
                    <path d="M13.0909091,1.45454545 C19.4909091,1.45454545 24.7272727,6.69090909 24.7272727,13.0909091 C24.7272727,19.4909091 19.4909091,24.7272727 13.0909091,24.7272727 C6.69090909,24.7272727 1.45454545,19.4909091 1.45454545,13.0909091 C1.45454545,6.69090909 6.69090909,1.45454545 13.0909091,1.45454545 L13.0909091,1.45454545 Z M13.0909091,0 C5.81818182,0 0,5.81818182 0,13.0909091 C0,20.3636364 5.81818182,26.1818182 13.0909091,26.1818182 C20.3636364,26.1818182 26.1818182,20.3636364 26.1818182,13.0909091 C26.1818182,5.81818182 20.3636364,0 13.0909091,0 L13.0909091,0 Z" id="Shape" fill="#0B3A5B"></path>
                </g>
                <path d="M8.72727273,20.3636364 C8.72727273,13.9636364 13.9636364,8.72727273 20.3636364,8.72727273 C23.2727273,8.72727273 25.7454545,9.74545455 27.7818182,11.4909091 C25.7454545,8.87272727 22.5454545,7.27272727 18.9090909,7.27272727 C12.5090909,7.27272727 7.27272727,12.5090909 7.27272727,18.9090909 C7.27272727,22.5454545 8.87272727,25.7454545 11.4909091,27.7818182 C9.74545455,25.7454545 8.72727273,23.2727273 8.72727273,20.3636364 Z" id="Shape" fill="#F6B545"></path>
                <path d="M22.2545455,7.85454545 L7.70909091,22.4 C8.58181818,25.0181818 10.3272727,27.3454545 12.6545455,28.8 L28.6545455,12.8 C27.2,10.3272727 25.0181818,8.58181818 22.2545455,7.85454545 Z" id="Shape" fill="#FFE27A"></path>
                <g transform="translate(7.272727, 7.272727)" id="Shape" fill="#FFCB5B">
                    <path d="M14.1090909,1.45454545 C16.5818182,1.6 18.7636364,2.61818182 20.6545455,4.07272727 C19.2,2.32727273 17.3090909,1.16363636 15.1272727,0.436363636 L14.1090909,1.45454545 Z"></path>
                    <path d="M4.21818182,20.5090909 C2.76363636,18.7636364 1.74545455,16.4363636 1.6,13.9636364 L0.581818182,14.9818182 C1.16363636,17.1636364 2.47272727,19.2 4.21818182,20.5090909 Z"></path>
                </g>
                <path d="M18.9090909,30.5454545 C25.3090909,30.5454545 30.5454545,25.3090909 30.5454545,18.9090909 C30.5454545,18.0363636 30.4,17.0181818 30.2545455,16.1454545 L16.2909091,30.1090909 C17.0181818,30.4 18.0363636,30.5454545 18.9090909,30.5454545 Z" id="Shape" fill="#FFE27A"></path>
                <path d="M24.1454545,18.1818182 C24.4363636,17.4545455 24.7272727,16.7272727 24.7272727,16 C24.7272727,13.5272727 22.8363636,11.6363636 20.3636364,11.6363636 C20.3636364,10.7636364 19.7818182,10.1818182 18.9090909,10.1818182 C18.0363636,10.1818182 17.4545455,10.7636364 17.4545455,11.6363636 L14.5454545,11.6363636 C13.6727273,11.6363636 13.0909091,12.2181818 13.0909091,13.0909091 C13.0909091,13.9636364 13.6727273,14.5454545 14.5454545,14.5454545 L14.5454545,23.2727273 C13.6727273,23.2727273 13.0909091,23.8545455 13.0909091,24.7272727 C13.0909091,25.6 13.6727273,26.1818182 14.5454545,26.1818182 L17.4545455,26.1818182 C17.4545455,27.0545455 18.0363636,27.6363636 18.9090909,27.6363636 C19.7818182,27.6363636 20.3636364,27.0545455 20.3636364,26.1818182 L21.8181818,26.1818182 C24.2909091,26.1818182 26.1818182,24.2909091 26.1818182,21.8181818 C26.1818182,20.2181818 25.3090909,18.9090909 24.1454545,18.1818182 Z M20.3636364,14.5454545 C21.2363636,14.5454545 21.8181818,15.1272727 21.8181818,16 C21.8181818,16.8727273 21.2363636,17.4545455 20.3636364,17.4545455 L17.4545455,17.4545455 L17.4545455,14.5454545 L20.3636364,14.5454545 Z M21.8181818,23.2727273 L17.4545455,23.2727273 L17.4545455,20.3636364 L21.8181818,20.3636364 C22.6909091,20.3636364 23.2727273,20.9454545 23.2727273,21.8181818 C23.2727273,22.6909091 22.6909091,23.2727273 21.8181818,23.2727273 Z" id="Shape" fill="#0B3A5B"></path>
            </g>
            <g id="Group" transform="translate(26.181818, 21.818182)">
                <g>
                    <circle id="Oval" fill="#B0C4D9" cx="18.9090909" cy="18.9090909" r="17.4545455"></circle>
                    <path d="M18.9090909,37.8181818 C8.43636364,37.8181818 0,29.3818182 0,18.9090909 C0,8.43636364 8.43636364,0 18.9090909,0 C29.3818182,0 37.8181818,8.43636364 37.8181818,18.9090909 C37.8181818,29.3818182 29.3818182,37.8181818 18.9090909,37.8181818 Z M18.9090909,2.90909091 C10.0363636,2.90909091 2.90909091,10.0363636 2.90909091,18.9090909 C2.90909091,27.7818182 10.0363636,34.9090909 18.9090909,34.9090909 C27.7818182,34.9090909 34.9090909,27.7818182 34.9090909,18.9090909 C34.9090909,10.0363636 27.7818182,2.90909091 18.9090909,2.90909091 Z" id="Shape" fill="#0B3A5B"></path>
                </g>
                <path d="M9.6,31.8545455 L31.8545455,9.6 C30.2545455,7.41818182 28.0727273,5.67272727 25.6,4.50909091 L4.36363636,25.7454545 C5.52727273,28.2181818 7.41818182,30.2545455 9.6,31.8545455 Z" id="Shape" fill="#D5E3EF"></path>
                <path d="M18.9090909,34.9090909 C27.7818182,34.9090909 34.9090909,27.7818182 34.9090909,18.9090909 C34.9090909,16.7272727 34.4727273,14.6909091 33.7454545,12.8 L12.8,33.7454545 C14.6909091,34.4727273 16.7272727,34.9090909 18.9090909,34.9090909 Z" id="Shape" fill="#D5E3EF"></path>
                <g transform="translate(5.818182, 5.818182)">
                    <circle id="Oval" fill="#D5E3EF" cx="13.0909091" cy="13.0909091" r="11.6363636"></circle>
                    <path d="M13.0909091,1.45454545 C19.4909091,1.45454545 24.7272727,6.69090909 24.7272727,13.0909091 C24.7272727,19.4909091 19.4909091,24.7272727 13.0909091,24.7272727 C6.69090909,24.7272727 1.45454545,19.4909091 1.45454545,13.0909091 C1.45454545,6.69090909 6.69090909,1.45454545 13.0909091,1.45454545 L13.0909091,1.45454545 Z M13.0909091,0 C5.81818182,0 0,5.81818182 0,13.0909091 C0,20.3636364 5.81818182,26.1818182 13.0909091,26.1818182 C20.3636364,26.1818182 26.1818182,20.3636364 26.1818182,13.0909091 C26.1818182,5.81818182 20.3636364,0 13.0909091,0 L13.0909091,0 Z" id="Shape" fill="#0B3A5B"></path>
                </g>
                <path d="M8.72727273,20.3636364 C8.72727273,13.9636364 13.9636364,8.72727273 20.3636364,8.72727273 C23.2727273,8.72727273 25.7454545,9.74545455 27.7818182,11.4909091 C25.7454545,8.87272727 22.5454545,7.27272727 18.9090909,7.27272727 C12.5090909,7.27272727 7.27272727,12.5090909 7.27272727,18.9090909 C7.27272727,22.5454545 8.87272727,25.7454545 11.4909091,27.7818182 C9.74545455,25.7454545 8.72727273,23.2727273 8.72727273,20.3636364 Z" id="Shape" fill="#B0C4D9"></path>
                <path d="M22.2545455,7.85454545 L7.70909091,22.4 C8.58181818,25.0181818 10.3272727,27.3454545 12.6545455,28.8 L28.6545455,12.8 C27.2,10.3272727 25.0181818,8.58181818 22.2545455,7.85454545 Z" id="Shape" fill="#FFFFFF"></path>
                <g transform="translate(7.272727, 7.272727)" id="Shape" fill="#C9D5E3">
                    <path d="M14.1090909,1.45454545 C16.5818182,1.6 18.7636364,2.61818182 20.6545455,4.07272727 C19.2,2.32727273 17.3090909,1.16363636 15.1272727,0.436363636 L14.1090909,1.45454545 Z"></path>
                    <path d="M4.21818182,20.5090909 C2.76363636,18.7636364 1.74545455,16.4363636 1.6,13.9636364 L0.581818182,14.9818182 C1.16363636,17.1636364 2.47272727,19.2 4.21818182,20.5090909 Z"></path>
                </g>
                <path d="M18.9090909,30.5454545 C25.3090909,30.5454545 30.5454545,25.3090909 30.5454545,18.9090909 C30.5454545,18.0363636 30.4,17.0181818 30.2545455,16.1454545 L16.2909091,30.1090909 C17.0181818,30.4 18.0363636,30.5454545 18.9090909,30.5454545 Z" id="Shape" fill="#FFFFFF"></path>
                <polygon id="Shape" fill="#0B3A5B" points="24.7272727 17.4545455 18.9090909 20.3636364 13.0909091 17.4545455 18.9090909 10.1818182"></polygon>
                <polygon id="Shape" fill="#0B3A5B" points="13.0909091 18.9090909 18.9090909 21.8181818 24.7272727 18.9090909 18.9090909 27.6363636"></polygon>
            </g>
        </g>
    </g>
</svg>