<?xml version="1.0" encoding="UTF-8"?>
<svg width="60px" height="60px" viewBox="0 0 60 60" version="1.1" xmlns="http://www.w3.org/2000/svg" xmlns:xlink="http://www.w3.org/1999/xlink">
    <!-- Generator: Sketch 47.1 (45422) - http://www.bohemiancoding.com/sketch -->
    <title>puzzle</title>
    <desc>Created with Sketch.</desc>
    <defs></defs>
    <g id="Page-1" stroke="none" stroke-width="1" fill="none" fill-rule="evenodd">
        <g id="puzzle" fill-rule="nonzero">
            <path d="M55.2841102,39.572405 C54.1816945,40.5634344 52.6138142,40.129859 52.6138142,38.1973516 L52.6138142,33.5519009 C52.6138142,32.1520718 51.4746512,31 50.090507,31 L46.8690031,31 C47.236475,31.75566 47.43246,32.5732593 47.43246,33.3908586 C47.43246,36.2524562 45.2276284,38.4203332 42.1898605,38.5442119 L42.091868,38.5442119 L41.9938755,38.5442119 C38.9561075,38.4203332 36.7512759,36.2524562 36.7512759,33.3908586 C36.7512759,32.5608714 36.947261,31.7432721 37.3147329,31 L33.9584893,31 L33.9462402,31 L33.897244,31 C32.5375978,31 31.422933,32.1149082 31.422933,33.5023494 L31.422933,38.1973516 C31.422933,40.129859 29.8305546,40.5510466 28.7281388,39.572405 C26.9030282,37.9495942 24.1224906,38.816745 24,41.7774455 C24.1224906,44.7381461 26.9030282,45.6052969 28.7158898,43.9824861 C29.8183055,42.9914566 31.422933,43.425032 31.422933,45.3575395 L31.422933,49.9534387 C31.422933,51.3284921 32.5253488,52.4557881 33.897244,52.4557881 L38.5028921,52.4557881 C40.4137462,52.4557881 40.8302144,54.0785989 39.8625383,55.193507 C38.2579109,57.0392994 39.1153454,59.8761213 42.0428717,60 C44.9703981,59.8761213 45.8278326,57.0392994 44.2232052,55.193507 C43.24328,54.0785989 43.6719973,52.4434003 45.5828513,52.4434003 L50.1640014,52.4434003 C51.5236475,52.4434003 52.6383124,51.3284921 52.6383124,49.9410508 L52.6383124,45.3451516 C52.6383124,43.4126442 54.1939435,42.9914566 55.2963593,43.9700982 C57.0969718,45.592909 59.8775094,44.7257582 60,41.7774455 C59.8775094,38.816745 57.1092208,37.9495942 55.2841102,39.572405 Z" id="Shape" fill="#B0C4D9"></path>
            <path d="M55.1955594,15.7767948 C54.0811272,16.75672 52.4466268,16.3280027 52.4466268,14.4171487 L52.4466268,9.86049677 C52.4466268,8.50085063 51.3321947,7.38618578 49.9453459,7.38618578 L45.3514091,7.38618578 C43.4197267,7.38618578 42.998719,5.83055461 43.9769428,4.72813882 C45.5990606,2.90302824 44.7322801,0.122490643 41.7728437,0 C38.8134073,0.122490643 37.9466268,2.89077918 39.5687447,4.71588976 C40.559351,5.81830555 40.1259607,7.38618578 38.1942784,7.38618578 L33.5508113,7.38618578 C32.1515798,7.38618578 31,8.52534876 31,9.90949302 L31,13.1309969 C31.7553373,12.763525 32.5725875,12.56754 33.3898377,12.56754 C36.2625961,12.56754 38.4295474,14.7723716 38.5533732,17.8101395 L38.5533732,17.908132 L38.5533732,18.0061245 C38.4295474,21.0438925 36.2625961,23.2487241 33.4022203,23.2487241 C32.5725875,23.2487241 31.7553373,23.052739 31.0123826,22.6852671 L31.0123826,26.0415107 L31.0123826,26.0537598 L31.0123826,26.102756 C31.0123826,27.4624022 32.1268147,28.577067 33.5136635,28.577067 L38.206661,28.577067 C40.1383433,28.577067 40.559351,30.1694454 39.5811272,31.2718612 C37.9590094,33.0969718 38.8257899,35.8775094 41.7852263,36 C44.7446627,35.8775094 45.6114432,33.0969718 43.9893254,31.2841102 C42.998719,30.1816945 43.4321093,28.577067 45.3637916,28.577067 L49.9577284,28.577067 C51.3321947,28.577067 52.4590094,27.4746512 52.4590094,26.102756 L52.4590094,21.4971079 C52.4590094,19.5862538 54.0811272,19.1697856 55.1955594,20.1374617 C57.0405636,21.7420891 59.8761742,20.8846546 60,17.9571283 C59.8761742,15.0296019 57.0405636,14.1721674 55.1955594,15.7767948 Z" id="Shape" fill="#3BB54A"></path>
            <path d="M26.4976506,31.422933 L21.8026484,31.422933 C19.870141,31.422933 19.4489534,29.8305546 20.427595,28.7281388 C22.0504058,26.9030282 21.183255,24.1224906 18.2225545,24 C15.2618539,24.1224906 14.3947031,26.9030282 16.0175139,28.7158898 C17.0085434,29.8183055 16.574968,31.422933 14.6424605,31.422933 L10.0465613,31.422933 C8.6715079,31.422933 7.54421188,32.5253488 7.54421188,33.897244 L7.54421188,38.5028921 C7.54421188,40.4137462 5.92140111,40.8302144 4.80649295,39.8625383 C2.96070056,38.2579109 0.123878684,39.1153454 0,42.0428717 C0.111490816,44.9459 2.96070056,45.8033345 4.79410508,44.198707 C5.90901324,43.2187819 7.54421188,43.6474991 7.54421188,45.5583532 L7.54421188,50.1395032 C7.54421188,51.4991494 8.65912003,52.6138142 10.0465613,52.6138142 L14.6424605,52.6138142 C16.574968,52.6138142 16.9961555,54.1694454 16.0175139,55.2718612 C14.3947031,57.0969718 15.2618539,59.8775094 18.2225545,60 C21.183255,59.8775094 22.0504058,57.1092208 20.427595,55.2841102 C19.4365656,54.1816945 19.870141,52.6138142 21.8026484,52.6138142 L26.4480991,52.6138142 C27.8479282,52.6138142 29,51.4746512 29,50.090507 L29,46.8690031 C28.24434,47.236475 27.4267407,47.43246 26.6091414,47.43246 C23.7475438,47.43246 21.5796668,45.2276284 21.4557881,42.1898605 L21.4557881,42.091868 L21.4557881,41.9938755 C21.5796668,38.9561075 23.7475438,36.7512759 26.6091414,36.7512759 C27.4391286,36.7512759 28.2567279,36.947261 29,37.3147329 L29,33.9584893 L29,33.9462402 L29,33.897244 C29,32.5375978 27.8850918,31.422933 26.4976506,31.422933 Z" id="Shape" fill="#F6B545"></path>
            <path d="M31.2841102,16.0119658 C30.1816945,17.0034188 28.577067,16.5696581 28.577067,14.6363248 L28.577067,10.0508547 C28.577067,8.67521368 27.4746512,7.5474359 26.102756,7.5474359 L21.4971079,7.5474359 C19.5862538,7.5474359 19.1697856,5.92393162 20.1374617,4.80854701 C21.7420891,2.96196581 20.8846546,0.123931624 17.9571283,0 C15.0296019,0.123931624 14.1721674,2.96196581 15.7767948,4.80854701 C16.75672,5.92393162 16.3280027,7.55982906 14.4171487,7.55982906 L9.86049677,7.55982906 C8.50085063,7.55982906 7.38618578,8.67521368 7.38618578,10.0632479 L7.38618578,14.6611111 C7.38618578,16.5944444 5.83055461,17.015812 4.72813882,16.0367521 C2.90302824,14.4132479 0.122490643,15.2807692 0,18.242735 C0.122490643,21.1799145 2.89077918,22.0474359 4.71588976,20.4239316 C5.81830555,19.4324786 7.38618578,19.8662393 7.38618578,21.7995726 L7.38618578,26.4470085 C7.38618578,27.8474359 8.52534876,29 9.90949302,29 L13.1309969,29 C12.763525,28.2440171 12.56754,27.4260684 12.56754,26.6081197 C12.56754,23.7452991 14.7723716,21.5764957 17.8101395,21.4525641 L17.908132,21.4525641 L18.0061245,21.4525641 C21.0438925,21.5764957 23.2487241,23.7452991 23.2487241,26.6081197 C23.2487241,27.4384615 23.052739,28.2564103 22.6852671,29 L26.0415107,29 L26.0537598,29 L26.102756,29 C27.4624022,29 28.577067,27.8846154 28.577067,26.4965812 L28.577067,21.7995726 C28.577067,19.8662393 30.1694454,19.4448718 31.2718612,20.4239316 C33.0969718,22.0474359 35.8775094,21.1799145 36,18.2179487 C35.8775094,15.2559829 33.0969718,14.3884615 31.2841102,16.0119658 Z" id="Shape" fill="#0B3A5B"></path>
        </g>
    </g>
</svg>