<?xml version="1.0" encoding="UTF-8"?>
<svg width="168px" height="102px" viewBox="0 0 168 102" version="1.1" xmlns="http://www.w3.org/2000/svg" xmlns:xlink="http://www.w3.org/1999/xlink">
    <!-- Generator: Sketch 48.2 (47327) - http://www.bohemiancoding.com/sketch -->
    <title>Group 2</title>
    <desc>Created with Sketch.</desc>
    <defs></defs>
    <g id="Page-1" stroke="none" stroke-width="1" fill="none" fill-rule="evenodd">
        <g id="Group" transform="translate(-25.000000, -13.000000)" fill="#FFFFFF">
            <g id="Group-2" transform="translate(25.000000, 13.000000)">
                <g id="Group-Copy-2" transform="translate(54.166667, 0.000000)" fill-rule="nonzero">
                    <path d="M6.90431967,4.79865793 L28.3280175,41.1955921 C29.4448927,43.2064724 32.2878479,43.2064724 33.4047231,41.1955921 L44.8780778,21.3884207 C45.9949531,19.4780844 44.5734755,17.065028 42.339725,17.065028 L33.5062572,17.065028 C31.7801773,17.065028 30.4602338,15.6574118 30.5617679,13.9481635 L30.5617679,13.8476195 C30.6633021,12.3394592 31.9832455,11.132931 33.5062572,11.132931 L52.5946704,11.334019 C54.8284209,11.334019 56.2498985,13.7470754 55.1330232,15.6574118 L33.303189,53.5625062 C32.1863137,55.4728425 29.3433586,55.4728425 28.2264833,53.5625062 L0.507670564,7.71443442 C-0.609204677,5.70355408 0.812272902,3.29049767 3.04602338,3.29049767 L4.26443274,3.29049767 C5.38130798,3.29049767 6.3966491,3.89376177 6.90431967,4.79865793 Z" id="Combined-Shape-Copy"></path>
                    <path d="M32.5924502,22.2933169 L32.8970525,22.2933169 C34.9277348,22.2933169 36.2476783,24.4047413 35.3338712,26.2145336 L33.4047231,29.8341182 C32.389382,31.7444545 29.749495,31.7444545 28.6326198,29.9346622 L13.1994347,4.09484981 C12.1840935,2.2850575 13.4025029,0.0730891246 15.5347193,0.0730891246 L59.7020583,0.0730891246 C61.7327406,0.0730891246 63.052684,2.18451348 62.138877,3.99430579 C61.6312064,4.89920194 60.7173994,5.40192203 59.7020583,5.40192203 L25.3835282,5.40192203 C23.2513118,5.40192203 21.9313684,7.71443442 23.0482436,9.52422673 L30.2571656,21.0867887 C30.7648362,21.8911408 31.6786432,22.2933169 32.5924502,22.2933169 Z" id="Shape-Copy-9"></path>
                </g>
                <path d="M11.5933333,100.833333 L0.678333333,77.585 C0.308333333,76.7833333 0.678333333,76.1666667 1.60333333,76.1666667 L5.24166667,76.1666667 C5.85833333,76.1666667 6.16666667,76.475 6.35166667,76.845 L12.765,91.3983333 L12.8266667,91.3983333 L19.4866667,76.845 C19.795,76.1666667 20.4733333,76.1666667 21.1516667,76.1666667 L23.9883333,76.1666667 C24.9133333,76.1666667 25.2833333,76.7833333 24.9133333,77.585 L13.9983333,100.833333 C13.875,101.141667 13.505,101.45 12.95,101.45 L12.6416667,101.45 C12.0866667,101.45 11.7166667,101.141667 11.5933333,100.833333 Z M27.8116667,88.5 C27.8116667,81.5316667 32.745,75.55 40.145,75.55 C46.5583333,75.55 51.4916667,80.36 51.4916667,86.9583333 C51.4916667,87.39 51.43,88.1916667 51.3683333,88.6233333 C51.3066667,89.24 50.8133333,89.6716667 50.2583333,89.6716667 L33.485,89.6716667 C33.67,93.0016667 36.5683333,96.27 40.5766667,96.27 C42.7966667,96.27 44.8316667,95.2833333 46.065,94.4816667 C46.805,94.05 47.2366667,93.8033333 47.73,94.42 L49.4566667,96.7633333 C49.8883333,97.2566667 50.0733333,97.75 49.3333333,98.3666667 C47.545,99.9083333 44.3383333,101.45 40.2066667,101.45 C32.745,101.45 27.8116667,95.5916667 27.8116667,88.5 Z M33.7933333,85.7866667 L45.7566667,85.7866667 C45.5716667,82.8266667 43.105,80.2983333 40.0833333,80.2983333 C36.7533333,80.2983333 34.1633333,82.7033333 33.7933333,85.7866667 Z M57.4116667,99.6616667 L57.4116667,77.3383333 C57.4116667,76.7216667 57.9666667,76.1666667 58.5833333,76.1666667 L60.3716667,76.1666667 C60.865,76.1666667 61.235,76.475 61.3583333,76.9066667 L62.0983333,79.0033333 C62.53,78.51 65.7983333,75.55 70.7316667,75.55 C78.255,75.55 81.03,80.8533333 81.03,87.2666667 L81.03,99.6616667 C81.03,100.278333 80.475,100.833333 79.8583333,100.833333 L76.3433333,100.833333 C75.665,100.833333 75.1716667,100.278333 75.1716667,99.6616667 L75.1716667,87.02 C75.1716667,83.0733333 73.26,80.915 70.0533333,80.915 C66.1683333,80.915 63.5166667,83.7516667 63.2083333,84.615 L63.2083333,99.6616667 C63.2083333,100.463333 62.8383333,100.833333 61.79,100.833333 L58.5833333,100.833333 C57.9666667,100.833333 57.4116667,100.278333 57.4116667,99.6616667 Z M86.95,88.5 C86.95,81.285 92.2533333,75.55 99.0983333,75.55 C102.243333,75.55 104.463333,76.7216667 105.018333,76.9066667 L105.018333,58.8383333 C105.018333,58.2216667 105.573333,57.6666667 106.19,57.6666667 L109.766667,57.6666667 C110.383333,57.6666667 110.938333,58.2216667 110.938333,58.8383333 L110.938333,99.6616667 C110.938333,100.278333 110.383333,100.833333 109.766667,100.833333 L107.916667,100.833333 C107.361667,100.833333 106.991667,100.401667 106.806667,99.785 L106.313333,97.9966667 C106.313333,97.9966667 103.353333,101.45 98.4816667,101.45 C91.945,101.45 86.95,95.5916667 86.95,88.5 Z M92.685,88.5 C92.685,92.6316667 95.275,96.1466667 99.2216667,96.1466667 C102.983333,96.1466667 104.771667,93.125 105.08,92.4466667 L105.08,82.395 C105.08,82.395 102.921667,80.915 99.715,80.915 C95.5833333,80.915 92.685,84.3066667 92.685,88.5 Z M117.166667,88.5 C117.166667,81.5316667 122.1,75.55 129.5,75.55 C135.913333,75.55 140.846667,80.36 140.846667,86.9583333 C140.846667,87.39 140.785,88.1916667 140.723333,88.6233333 C140.661667,89.24 140.168333,89.6716667 139.613333,89.6716667 L122.84,89.6716667 C123.025,93.0016667 125.923333,96.27 129.931667,96.27 C132.151667,96.27 134.186667,95.2833333 135.42,94.4816667 C136.16,94.05 136.591667,93.8033333 137.085,94.42 L138.811667,96.7633333 C139.243333,97.2566667 139.428333,97.75 138.688333,98.3666667 C136.9,99.9083333 133.693333,101.45 129.561667,101.45 C122.1,101.45 117.166667,95.5916667 117.166667,88.5 Z M123.148333,85.7866667 L135.111667,85.7866667 C134.926667,82.8266667 132.46,80.2983333 129.438333,80.2983333 C126.108333,80.2983333 123.518333,82.7033333 123.148333,85.7866667 Z M144.546667,99.23 L152.563333,88.2533333 L144.793333,77.8316667 C144.176667,77.03 144.608333,76.1666667 145.533333,76.1666667 L149.541667,76.1666667 C150.096667,76.1666667 150.651667,76.3516667 151.021667,76.845 L155.955,83.9366667 L156.016667,83.9366667 L161.073333,76.845 C161.381667,76.4133333 161.875,76.1666667 162.491667,76.1666667 L166.561667,76.1666667 C167.61,76.1666667 167.918333,76.9683333 167.301667,77.77 L159.531667,88.1916667 L167.363333,99.23 C167.918333,100.031667 167.61,100.833333 166.623333,100.833333 L162.738333,100.833333 C162.245,100.833333 161.751667,100.525 161.443333,100.093333 L156.016667,92.4466667 L155.955,92.4466667 L150.405,100.34 C150.22,100.586667 149.911667,100.833333 149.418333,100.833333 L145.286667,100.833333 C144.238333,100.833333 143.991667,100.031667 144.546667,99.23 Z" id="vendex-copy"></path>
            </g>
        </g>
    </g>
</svg>