<?xml version="1.0" encoding="UTF-8"?>
<svg width="414px" height="164px" viewBox="0 0 414 164" version="1.1" xmlns="http://www.w3.org/2000/svg" xmlns:xlink="http://www.w3.org/1999/xlink">
    <!-- Generator: Sketch 48.2 (47327) - http://www.bohemiancoding.com/sketch -->
    <title>Group</title>
    <desc>Created with Sketch.</desc>
    <defs></defs>
    <g id="Page-1" stroke="none" stroke-width="1" fill="none" fill-rule="evenodd">
        <g id="Group" fill="#FFFFFF">
            <path d="M4,150.765751 L4,148.827141 L19.7590361,148.827141 L19.7590361,150.765751 L12.9156627,150.765751 L12.9156627,163.250404 L10.8674699,163.250404 L10.8674699,150.765751 L4,150.765751 Z M34.2650602,157.227787 L24.0481928,157.227787 L24.0481928,163.250404 L22.0481928,163.250404 L22.0481928,150.274637 L24.0481928,150.274637 L24.0481928,155.315024 L34.2650602,155.315024 L34.2650602,150.274637 L36.2650602,150.274637 L36.2650602,163.250404 L34.2650602,163.250404 L34.2650602,157.227787 Z M40.3614458,150.274637 L52.4096386,150.274637 L52.4096386,152.187399 L42.4096386,152.187399 L42.4096386,155.495961 L50.8192771,155.495961 L50.8192771,157.434572 L42.3855422,157.434572 L42.3855422,161.337641 L52.4096386,161.337641 L52.4096386,163.250404 L40.3614458,163.250404 L40.3614458,150.274637 Z M67.2289157,156.865913 L72.9156627,156.865913 L70.0722892,152.135703 L67.2289157,156.865913 Z M74.0722892,158.804523 L66.0722892,158.804523 L63.3975904,163.250404 L60.9638554,163.250404 L70.0722892,148.077544 L79.1807229,163.250404 L76.746988,163.250404 L74.0722892,158.804523 Z M81.4698795,150.274637 L93.5180723,150.274637 L93.5180723,152.187399 L83.5180723,152.187399 L83.5180723,155.495961 L91.9277108,155.495961 L91.9277108,157.434572 L83.4939759,157.434572 L83.4939759,163.250404 L81.4698795,163.250404 L81.4698795,150.274637 Z M98.8915663,155.625202 L104.096386,155.625202 C105.108439,155.625202 105.827307,155.474423 106.253012,155.172859 C106.678717,154.871296 106.891566,154.444806 106.891566,153.893376 C106.891566,153.341947 106.678717,152.919765 106.253012,152.626817 C105.827307,152.33387 105.108439,152.187399 104.096386,152.187399 L98.8915663,152.187399 L98.8915663,155.625202 Z M98.8915663,163.250404 L96.8915663,163.250404 L96.8915663,150.274637 L104.313253,150.274637 C104.85944,150.274637 105.409636,150.334948 105.963855,150.455574 C106.518075,150.576199 107.020078,150.774366 107.46988,151.050081 C107.919681,151.325796 108.285139,151.696282 108.566265,152.161551 C108.847391,152.62682 108.987952,153.204089 108.987952,153.893376 C108.987952,154.410342 108.907631,154.858372 108.746988,155.23748 C108.586345,155.616588 108.373495,155.948302 108.108434,156.232633 C107.843372,156.516964 107.534138,156.749595 107.180723,156.930533 C106.827307,157.111471 106.449801,157.253634 106.048193,157.357027 L109.638554,163.250404 L107.301205,163.250404 L103.903614,157.537964 L98.8915663,157.537964 L98.8915663,163.250404 Z M113.73494,163.250404 L113.73494,150.274637 L115.710843,150.274637 L115.710843,163.250404 L113.73494,163.250404 Z M121.686747,156.736672 C121.686747,157.443191 121.85542,158.102313 122.192771,158.714055 C122.530122,159.325797 122.991965,159.855679 123.578313,160.303716 C124.164662,160.751752 124.847386,161.109315 125.626506,161.376414 C126.405626,161.643512 127.244975,161.77706 128.144578,161.77706 C129.349404,161.77706 130.45381,161.548737 131.457831,161.092084 C132.461852,160.635431 133.277105,159.993542 133.903614,159.166397 L133.903614,161.932149 C133.132526,162.483578 132.257033,162.918684 131.277108,163.23748 C130.297184,163.556275 129.253018,163.71567 128.144578,163.71567 C126.955817,163.71567 125.839363,163.534735 124.795181,163.172859 C123.750999,162.810984 122.843377,162.311258 122.072289,161.673667 C121.301201,161.036077 120.690765,160.295104 120.240964,159.450727 C119.791162,158.60635 119.566265,157.701674 119.566265,156.736672 C119.566265,155.77167 119.791162,154.862686 120.240964,154.009693 C120.690765,153.1567 121.301201,152.415727 122.072289,151.786753 C122.843377,151.157778 123.750999,150.658052 124.795181,150.287561 C125.839363,149.917069 126.955817,149.731826 128.144578,149.731826 C129.253018,149.731826 130.297184,149.895529 131.277108,150.22294 C132.257033,150.550352 133.132526,150.989766 133.903614,151.541195 L133.903614,154.332795 C133.277105,153.50565 132.457836,152.855145 131.445783,152.38126 C130.43373,151.907375 129.333339,151.670436 128.144578,151.670436 C127.244975,151.670436 126.405626,151.803984 125.626506,152.071082 C124.847386,152.338181 124.164662,152.700052 123.578313,153.156704 C122.991965,153.613357 122.530122,154.147547 122.192771,154.759289 C121.85542,155.371032 121.686747,156.030153 121.686747,156.736672 Z M141.927711,157.408724 L146.626506,157.408724 L144.289157,153.479806 L141.927711,157.408724 Z M147.759036,159.295638 L140.795181,159.295638 L138.433735,163.250404 L136.072289,163.250404 L144.289157,149.52504 L152.53012,163.250404 L150.144578,163.250404 L147.759036,159.295638 Z M155.325301,148.025848 L157.373494,148.025848 L155.73494,152.44588 L154.216867,152.44588 L155.325301,148.025848 Z M171.060241,159.631664 C171.060241,160.38988 170.87952,161.027461 170.518072,161.544426 C170.156625,162.061392 169.674702,162.483574 169.072289,162.810985 C168.469877,163.138397 167.787152,163.375336 167.024096,163.521809 C166.26104,163.668283 165.485948,163.741519 164.698795,163.741519 C164.120479,163.741519 163.542172,163.707055 162.963855,163.638126 C162.385539,163.569197 161.83936,163.470114 161.325301,163.340872 C160.811242,163.211631 160.341368,163.056544 159.915663,162.875606 C159.489958,162.694668 159.1245,162.492193 158.819277,162.268174 L158.819277,159.760905 C159.092371,160.019387 159.445781,160.26925 159.879518,160.510501 C160.313255,160.751751 160.791162,160.971458 161.313253,161.169628 C161.835344,161.367799 162.393571,161.522886 162.987952,161.634895 C163.582332,161.746904 164.168672,161.802908 164.746988,161.802908 C165.389561,161.802908 165.971885,161.746904 166.493976,161.634895 C167.016067,161.522886 167.45783,161.372106 167.819277,161.182553 C168.180725,160.992999 168.461846,160.781907 168.662651,160.549273 C168.863455,160.316639 168.963855,160.071084 168.963855,159.812601 C168.963855,159.502422 168.843375,159.235327 168.60241,159.011309 C168.361445,158.78729 168.040163,158.597739 167.638554,158.442649 C167.236946,158.28756 166.787151,158.154012 166.289157,158.042003 C165.791162,157.929994 165.285143,157.830911 164.771084,157.74475 C164.048189,157.624124 163.313257,157.481961 162.566265,157.318255 C161.819273,157.15455 161.144581,156.926227 160.542169,156.633279 C159.939756,156.340332 159.449801,155.948306 159.072289,155.457189 C158.694777,154.966072 158.506024,154.341415 158.506024,153.583199 C158.506024,152.945608 158.682729,152.389879 159.036145,151.915994 C159.38956,151.442109 159.851403,151.058698 160.421687,150.765751 C160.991971,150.472804 161.634535,150.253097 162.349398,150.106624 C163.064261,149.96015 163.783129,149.886914 164.506024,149.886914 C165.020083,149.886914 165.534134,149.912762 166.048193,149.964459 C166.562252,150.016155 167.056223,150.098007 167.53012,150.210016 C168.004018,150.322025 168.437749,150.455573 168.831325,150.610662 C169.224902,150.765752 169.5502,150.946687 169.807229,151.153473 L169.807229,153.453958 C169.084334,152.91976 168.253017,152.510502 167.313253,152.226171 C166.373489,151.94184 165.365467,151.799677 164.289157,151.799677 C163.999999,151.799677 163.646588,151.825525 163.228916,151.877221 C162.811243,151.928918 162.413657,152.023693 162.036145,152.161551 C161.658633,152.299408 161.333335,152.484652 161.060241,152.717286 C160.787147,152.94992 160.650602,153.247171 160.650602,153.609047 C160.650602,153.970923 160.775099,154.268173 161.024096,154.500808 C161.273094,154.733442 161.602408,154.931609 162.012048,155.095315 C162.421689,155.259021 162.891564,155.392568 163.421687,155.495961 C163.95181,155.599354 164.489957,155.702746 165.036145,155.806139 C165.742975,155.926764 166.453812,156.06462 167.168675,156.219709 C167.883538,156.374799 168.530118,156.590198 169.108434,156.865913 C169.68675,157.141628 170.156625,157.49919 170.518072,157.938611 C170.87952,158.378031 171.060241,158.942377 171.060241,159.631664 Z M179.180723,150.765751 L179.180723,148.827141 L194.939759,148.827141 L194.939759,150.765751 L188.096386,150.765751 L188.096386,163.250404 L186.048193,163.250404 L186.048193,150.765751 L179.180723,150.765751 Z M198.746988,156.788368 C198.746988,157.494888 198.915661,158.154009 199.253012,158.765751 C199.590363,159.377494 200.052206,159.907375 200.638554,160.355412 C201.224903,160.803449 201.911643,161.161011 202.698795,161.42811 C203.485948,161.695209 204.329313,161.828756 205.228916,161.828756 C206.112454,161.828756 206.947787,161.695209 207.73494,161.42811 C208.522092,161.161011 209.208832,160.803449 209.795181,160.355412 C210.381529,159.907375 210.843372,159.377494 211.180723,158.765751 C211.518074,158.154009 211.686747,157.494888 211.686747,156.788368 C211.686747,156.081849 211.518074,155.422728 211.180723,154.810985 C210.843372,154.199243 210.381529,153.665053 209.795181,153.208401 C209.208832,152.751748 208.522092,152.389877 207.73494,152.122779 C206.947787,151.85568 206.112454,151.722132 205.228916,151.722132 C204.329313,151.722132 203.485948,151.85568 202.698795,152.122779 C201.911643,152.389877 201.224903,152.751748 200.638554,153.208401 C200.052206,153.665053 199.590363,154.199243 199.253012,154.810985 C198.915661,155.422728 198.746988,156.081849 198.746988,156.788368 Z M196.626506,156.788368 C196.626506,155.823366 196.851403,154.914382 197.301205,154.061389 C197.751006,153.208396 198.365458,152.467424 199.144578,151.838449 C199.923699,151.209475 200.835336,150.709749 201.879518,150.339257 C202.9237,149.968765 204.040155,149.783522 205.228916,149.783522 C206.417677,149.783522 207.534131,149.968765 208.578313,150.339257 C209.622495,150.709749 210.530117,151.209475 211.301205,151.838449 C212.072293,152.467424 212.682729,153.208396 213.13253,154.061389 C213.582332,154.914382 213.807229,155.823366 213.807229,156.788368 C213.807229,157.75337 213.582332,158.658046 213.13253,159.502423 C212.682729,160.3468 212.072293,161.087773 211.301205,161.725363 C210.530117,162.362954 209.622495,162.86268 208.578313,163.224556 C207.534131,163.586432 206.417677,163.767367 205.228916,163.767367 C204.040155,163.767367 202.9237,163.586432 201.879518,163.224556 C200.835336,162.86268 199.923699,162.362954 199.144578,161.725363 C198.365458,161.087773 197.751006,160.3468 197.301205,159.502423 C196.851403,158.658046 196.626506,157.75337 196.626506,156.788368 Z M219.39759,163.250404 L217.421687,163.250404 L217.421687,150.274637 L219.39759,150.274637 L219.39759,156.581583 L226.216867,150.274637 L228.891566,150.274637 L224.289157,154.591276 L230.891566,163.250404 L228.409639,163.250404 L222.626506,156.038772 L219.39759,158.98546 L219.39759,163.250404 Z M233.277108,150.274637 L245.325301,150.274637 L245.325301,152.187399 L235.325301,152.187399 L235.325301,155.495961 L243.73494,155.495961 L243.73494,157.434572 L235.301205,157.434572 L235.301205,161.337641 L245.325301,161.337641 L245.325301,163.250404 L233.277108,163.250404 L233.277108,150.274637 Z M248.819277,163.250404 L248.819277,149.705977 L260.987952,159.528271 L260.987952,150.274637 L262.963855,150.274637 L262.963855,163.767367 L250.795181,153.893376 L250.795181,163.250404 L248.819277,163.250404 Z M278.457831,154.849758 L284.409639,154.849758 C285.614464,154.849758 286.461845,154.677438 286.951807,154.332795 C287.44177,153.988151 287.686747,153.479809 287.686747,152.807754 C287.686747,152.135699 287.44177,151.627358 286.951807,151.282714 C286.461845,150.93807 285.614464,150.765751 284.409639,150.765751 L278.457831,150.765751 L278.457831,154.849758 Z M278.457831,163.250404 L276.409639,163.250404 L276.409639,148.827141 L284.650602,148.827141 C285.261047,148.827141 285.875499,148.89176 286.493976,149.021002 C287.112453,149.150243 287.67068,149.36995 288.168675,149.680129 C288.666669,149.990308 289.072288,150.399567 289.385542,150.907916 C289.698797,151.416265 289.855422,152.049538 289.855422,152.807754 C289.855422,153.56597 289.698797,154.199244 289.385542,154.707593 C289.072288,155.215942 288.666669,155.6252 288.168675,155.93538 C287.67068,156.245559 287.112453,156.465266 286.493976,156.594507 C285.875499,156.723749 285.261047,156.788368 284.650602,156.788368 L278.457831,156.788368 L278.457831,163.250404 Z M294.891566,161.337641 L304.698795,161.337641 L304.698795,163.250404 L292.86747,163.250404 L292.86747,150.274637 L294.891566,150.274637 L294.891566,161.337641 Z M311.036145,157.408724 L315.73494,157.408724 L313.39759,153.479806 L311.036145,157.408724 Z M316.86747,159.295638 L309.903614,159.295638 L307.542169,163.250404 L305.180723,163.250404 L313.39759,149.52504 L321.638554,163.250404 L319.253012,163.250404 L316.86747,159.295638 Z M322.120482,152.187399 L322.120482,150.274637 L336.289157,150.274637 L336.289157,152.187399 L330.216867,152.187399 L330.216867,163.250404 L328.192771,163.250404 L328.192771,152.187399 L322.120482,152.187399 Z M338.578313,150.274637 L350.626506,150.274637 L350.626506,152.187399 L340.626506,152.187399 L340.626506,155.495961 L349.036145,155.495961 L349.036145,157.434572 L340.60241,157.434572 L340.60241,163.250404 L338.578313,163.250404 L338.578313,150.274637 Z M355.156627,156.788368 C355.156627,157.494888 355.3253,158.154009 355.662651,158.765751 C356.000002,159.377494 356.461844,159.907375 357.048193,160.355412 C357.634541,160.803449 358.321281,161.161011 359.108434,161.42811 C359.895586,161.695209 360.738951,161.828756 361.638554,161.828756 C362.522093,161.828756 363.357426,161.695209 364.144578,161.42811 C364.931731,161.161011 365.618471,160.803449 366.204819,160.355412 C366.791168,159.907375 367.25301,159.377494 367.590361,158.765751 C367.927713,158.154009 368.096386,157.494888 368.096386,156.788368 C368.096386,156.081849 367.927713,155.422728 367.590361,154.810985 C367.25301,154.199243 366.791168,153.665053 366.204819,153.208401 C365.618471,152.751748 364.931731,152.389877 364.144578,152.122779 C363.357426,151.85568 362.522093,151.722132 361.638554,151.722132 C360.738951,151.722132 359.895586,151.85568 359.108434,152.122779 C358.321281,152.389877 357.634541,152.751748 357.048193,153.208401 C356.461844,153.665053 356.000002,154.199243 355.662651,154.810985 C355.3253,155.422728 355.156627,156.081849 355.156627,156.788368 Z M353.036145,156.788368 C353.036145,155.823366 353.261042,154.914382 353.710843,154.061389 C354.160645,153.208396 354.775097,152.467424 355.554217,151.838449 C356.333337,151.209475 357.244975,150.709749 358.289157,150.339257 C359.333339,149.968765 360.449793,149.783522 361.638554,149.783522 C362.827315,149.783522 363.94377,149.968765 364.987952,150.339257 C366.032134,150.709749 366.939755,151.209475 367.710843,151.838449 C368.481932,152.467424 369.092367,153.208396 369.542169,154.061389 C369.99197,154.914382 370.216867,155.823366 370.216867,156.788368 C370.216867,157.75337 369.99197,158.658046 369.542169,159.502423 C369.092367,160.3468 368.481932,161.087773 367.710843,161.725363 C366.939755,162.362954 366.032134,162.86268 364.987952,163.224556 C363.94377,163.586432 362.827315,163.767367 361.638554,163.767367 C360.449793,163.767367 359.333339,163.586432 358.289157,163.224556 C357.244975,162.86268 356.333337,162.362954 355.554217,161.725363 C354.775097,161.087773 354.160645,160.3468 353.710843,159.502423 C353.261042,158.658046 353.036145,157.75337 353.036145,156.788368 Z M376.072289,155.625202 L381.277108,155.625202 C382.289162,155.625202 383.00803,155.474423 383.433735,155.172859 C383.85944,154.871296 384.072289,154.444806 384.072289,153.893376 C384.072289,153.341947 383.85944,152.919765 383.433735,152.626817 C383.00803,152.33387 382.289162,152.187399 381.277108,152.187399 L376.072289,152.187399 L376.072289,155.625202 Z M376.072289,163.250404 L374.072289,163.250404 L374.072289,150.274637 L381.493976,150.274637 C382.040163,150.274637 382.590359,150.334948 383.144578,150.455574 C383.698798,150.576199 384.200801,150.774366 384.650602,151.050081 C385.100404,151.325796 385.465862,151.696282 385.746988,152.161551 C386.028114,152.62682 386.168675,153.204089 386.168675,153.893376 C386.168675,154.410342 386.088354,154.858372 385.927711,155.23748 C385.767067,155.616588 385.554218,155.948302 385.289157,156.232633 C385.024095,156.516964 384.714861,156.749595 384.361446,156.930533 C384.00803,157.111471 383.630524,157.253634 383.228916,157.357027 L386.819277,163.250404 L384.481928,163.250404 L381.084337,157.537964 L376.072289,157.537964 L376.072289,163.250404 Z M391.277108,163.250404 L389.108434,163.250404 L394.240964,148 L401.542169,159.993538 L408.86747,148 L414,163.250404 L411.807229,163.250404 L408.289157,152.833603 L401.566265,164 L394.819277,152.833603 L391.277108,163.250404 Z" id="The-Africa’s-Token-P"></path>
            <path d="M13.912,119 L0.814,91.102 C0.37,90.14 0.814,89.4 1.924,89.4 L6.29,89.4 C7.03,89.4 7.4,89.77 7.622,90.214 L15.318,107.678 L15.392,107.678 L23.384,90.214 C23.754,89.4 24.568,89.4 25.382,89.4 L28.786,89.4 C29.896,89.4 30.34,90.14 29.896,91.102 L16.798,119 C16.65,119.37 16.206,119.74 15.54,119.74 L15.17,119.74 C14.504,119.74 14.06,119.37 13.912,119 Z M33.374,104.2 C33.374,95.838 39.294,88.66 48.174,88.66 C55.87,88.66 61.79,94.432 61.79,102.35 C61.79,102.868 61.716,103.83 61.642,104.348 C61.568,105.088 60.976,105.606 60.31,105.606 L40.182,105.606 C40.404,109.602 43.882,113.524 48.692,113.524 C51.356,113.524 53.798,112.34 55.278,111.378 C56.166,110.86 56.684,110.564 57.276,111.304 L59.348,114.116 C59.866,114.708 60.088,115.3 59.2,116.04 C57.054,117.89 53.206,119.74 48.248,119.74 C39.294,119.74 33.374,112.71 33.374,104.2 Z M40.552,100.944 L54.908,100.944 C54.686,97.392 51.726,94.358 48.1,94.358 C44.104,94.358 40.996,97.244 40.552,100.944 Z M68.894,117.594 L68.894,90.806 C68.894,90.066 69.56,89.4 70.3,89.4 L72.446,89.4 C73.038,89.4 73.482,89.77 73.63,90.288 L74.518,92.804 C75.036,92.212 78.958,88.66 84.878,88.66 C93.906,88.66 97.236,95.024 97.236,102.72 L97.236,117.594 C97.236,118.334 96.57,119 95.83,119 L91.612,119 C90.798,119 90.206,118.334 90.206,117.594 L90.206,102.424 C90.206,97.688 87.912,95.098 84.064,95.098 C79.402,95.098 76.22,98.502 75.85,99.538 L75.85,117.594 C75.85,118.556 75.406,119 74.148,119 L70.3,119 C69.56,119 68.894,118.334 68.894,117.594 Z M104.34,104.2 C104.34,95.542 110.704,88.66 118.918,88.66 C122.692,88.66 125.356,90.066 126.022,90.288 L126.022,68.606 C126.022,67.866 126.688,67.2 127.428,67.2 L131.72,67.2 C132.46,67.2 133.126,67.866 133.126,68.606 L133.126,117.594 C133.126,118.334 132.46,119 131.72,119 L129.5,119 C128.834,119 128.39,118.482 128.168,117.742 L127.576,115.596 C127.576,115.596 124.024,119.74 118.178,119.74 C110.334,119.74 104.34,112.71 104.34,104.2 Z M111.222,104.2 C111.222,109.158 114.33,113.376 119.066,113.376 C123.58,113.376 125.726,109.75 126.096,108.936 L126.096,96.874 C126.096,96.874 123.506,95.098 119.658,95.098 C114.7,95.098 111.222,99.168 111.222,104.2 Z M140.6,104.2 C140.6,95.838 146.52,88.66 155.4,88.66 C163.096,88.66 169.016,94.432 169.016,102.35 C169.016,102.868 168.942,103.83 168.868,104.348 C168.794,105.088 168.202,105.606 167.536,105.606 L147.408,105.606 C147.63,109.602 151.108,113.524 155.918,113.524 C158.582,113.524 161.024,112.34 162.504,111.378 C163.392,110.86 163.91,110.564 164.502,111.304 L166.574,114.116 C167.092,114.708 167.314,115.3 166.426,116.04 C164.28,117.89 160.432,119.74 155.474,119.74 C146.52,119.74 140.6,112.71 140.6,104.2 Z M147.778,100.944 L162.134,100.944 C161.912,97.392 158.952,94.358 155.326,94.358 C151.33,94.358 148.222,97.244 147.778,100.944 Z M173.456,117.076 L183.076,103.904 L173.752,91.398 C173.012,90.436 173.53,89.4 174.64,89.4 L179.45,89.4 C180.116,89.4 180.782,89.622 181.226,90.214 L187.146,98.724 L187.22,98.724 L193.288,90.214 C193.658,89.696 194.25,89.4 194.99,89.4 L199.874,89.4 C201.132,89.4 201.502,90.362 200.762,91.324 L191.438,103.83 L200.836,117.076 C201.502,118.038 201.132,119 199.948,119 L195.286,119 C194.694,119 194.102,118.63 193.732,118.112 L187.22,108.936 L187.146,108.936 L180.486,118.408 C180.264,118.704 179.894,119 179.302,119 L174.344,119 C173.086,119 172.79,118.038 173.456,117.076 Z M205.424,104.274 C205.424,95.542 212.75,88.66 220.964,88.66 C225.478,88.66 228.956,90.51 231.694,93.914 C232.212,94.58 232.064,95.468 231.398,95.986 L228.956,98.206 C228.068,99.02 227.55,98.428 226.958,97.91 C225.626,96.43 223.48,95.098 221.038,95.098 C216.228,95.098 212.454,99.168 212.454,104.2 C212.454,109.306 216.154,113.376 220.964,113.376 C224.738,113.376 226.292,111.452 227.846,109.972 C228.512,109.306 229.178,109.306 229.844,109.824 L231.842,111.452 C232.582,112.044 232.878,112.784 232.36,113.524 C229.992,117.298 225.996,119.74 220.89,119.74 C212.602,119.74 205.424,113.154 205.424,104.274 Z M239.76,117.594 L239.76,68.606 C239.76,67.866 240.426,67.2 241.166,67.2 L245.458,67.2 C246.198,67.2 246.864,67.866 246.864,68.606 L246.864,91.842 C247.604,91.324 251.008,88.66 255.744,88.66 C264.106,88.66 268.102,94.654 268.102,102.72 L268.102,117.594 C268.102,118.334 267.436,119 266.696,119 L262.552,119 C261.738,119 261.146,118.334 261.146,117.594 L261.146,102.572 C261.146,97.762 258.704,95.098 254.856,95.098 C250.342,95.098 247.234,98.502 246.864,99.76 L246.864,117.594 C246.864,118.408 246.346,119 245.384,119 L241.166,119 C240.426,119 239.76,118.334 239.76,117.594 Z M275.206,109.824 C275.206,104.422 279.498,100.278 287.046,100.278 C290.154,100.278 292.892,101.166 292.892,101.166 C292.966,96.504 292.078,94.654 288.304,94.654 C284.9,94.654 281.57,95.542 280.016,95.986 C279.128,96.208 278.61,95.616 278.388,94.802 L277.796,92.064 C277.574,91.102 278.092,90.584 278.758,90.362 C279.276,90.14 283.494,88.66 288.97,88.66 C298.442,88.66 299.33,94.432 299.33,101.832 L299.33,117.594 C299.33,118.334 298.664,119 297.924,119 L295.852,119 C295.186,119 294.89,118.704 294.594,117.964 L293.854,115.966 C292.226,117.52 289.34,119.74 284.752,119.74 C279.202,119.74 275.206,115.966 275.206,109.824 Z M281.644,109.75 C281.644,112.414 283.42,114.486 286.158,114.486 C289.118,114.486 291.93,112.266 292.818,110.786 L292.818,106.05 C292.374,105.754 290.302,104.866 287.638,104.866 C284.086,104.866 281.644,106.716 281.644,109.75 Z M308.654,117.594 L308.654,90.806 C308.654,90.066 309.32,89.4 310.06,89.4 L312.206,89.4 C312.798,89.4 313.242,89.77 313.39,90.288 L314.278,92.804 C314.796,92.212 318.718,88.66 324.638,88.66 C333.666,88.66 336.996,95.024 336.996,102.72 L336.996,117.594 C336.996,118.334 336.33,119 335.59,119 L331.372,119 C330.558,119 329.966,118.334 329.966,117.594 L329.966,102.424 C329.966,97.688 327.672,95.098 323.824,95.098 C319.162,95.098 315.98,98.502 315.61,99.538 L315.61,117.594 C315.61,118.556 315.166,119 313.908,119 L310.06,119 C309.32,119 308.654,118.334 308.654,117.594 Z M348.54,108.788 C348.54,108.788 348.539991,108.787989 348.539991,108.787989 L348.54,108.788 Z M348.539991,108.787989 C348.534761,108.781741 346.246,106.044927 346.246,101.61 C346.246,94.728 351.426,88.66 358.974,88.66 L371.924,88.66 C372.738,88.66 373.33,89.252 373.33,90.066 L373.33,91.916 C373.33,92.434 373.034,93.1 372.516,93.174 L368.446,94.284 C368.446,94.284 371.628,96.652 371.628,102.202 C371.628,108.492 366.744,114.264 359.048,114.264 C355.274,114.264 353.202,113.08 352.61,113.08 C352.092,113.08 349.576,114.338 349.576,116.706 C349.576,118.408 350.908,119.74 353.128,119.74 L363.192,119.74 C369.63,119.74 374.81,123.218 374.81,129.656 C374.81,136.168 368.89,141.94 359.048,141.94 C348.614,141.94 344.396,136.612 344.396,131.802 C344.396,127.362 348.022,125.29 348.762,124.846 L348.762,124.624 C347.208,124.18 343.286,122.182 343.286,117.224 C343.286,111.528336 348.535693,108.790245 348.539997,108.788001 L348.539991,108.787989 Z M359.122,108.566 C362.822,108.566 365.338,105.754 365.338,101.758 C365.338,97.762 362.822,94.95 359.122,94.95 C355.348,94.95 352.61,97.762 352.61,101.758 C352.61,105.754 355.348,108.566 359.122,108.566 Z M351.278,130.618 C351.278,133.652 354.46,135.872 358.974,135.872 C363.488,135.872 367.41,133.578 367.41,130.026 C367.41,128.842 366.67,125.808 361.86,125.808 C359.714,125.808 357.494,125.808 355.348,125.956 C354.904,126.104 351.278,127.288 351.278,130.618 Z M378.14,104.2 C378.14,95.838 384.06,88.66 392.94,88.66 C400.636,88.66 406.556,94.432 406.556,102.35 C406.556,102.868 406.482,103.83 406.408,104.348 C406.334,105.088 405.742,105.606 405.076,105.606 L384.948,105.606 C385.17,109.602 388.648,113.524 393.458,113.524 C396.122,113.524 398.564,112.34 400.044,111.378 C400.932,110.86 401.45,110.564 402.042,111.304 L404.114,114.116 C404.632,114.708 404.854,115.3 403.966,116.04 C401.82,117.89 397.972,119.74 393.014,119.74 C384.06,119.74 378.14,112.71 378.14,104.2 Z M385.318,100.944 L399.674,100.944 C399.452,97.392 396.492,94.358 392.866,94.358 C388.87,94.358 385.762,97.244 385.318,100.944 Z" id="vendexchange-copy"></path>
            <g id="Group-Copy-2" transform="translate(177.000000, 0.000000)" fill-rule="nonzero">
                <path d="M7.18049245,5.0604029 L29.4611382,43.4426244 C30.6226884,45.5631891 33.5793618,45.5631891 34.740912,43.4426244 L46.673201,22.5550619 C47.8347512,20.5405254 46.3564145,17.9958477 44.033314,17.9958477 L34.8465075,17.9958477 C33.0513844,17.9958477 31.6786432,16.5114524 31.7842387,14.7089724 L31.7842387,14.6029442 C31.8898341,13.0125206 33.2625753,11.7401818 34.8465075,11.7401818 L54.6984572,11.9522383 C57.0215577,11.9522383 58.4998944,14.4969159 57.3383442,16.5114524 L34.6353165,56.4840974 C33.4737663,58.4986339 30.5170929,58.4986339 29.3555427,56.4840974 L0.527977386,8.13522175 C-0.633572864,6.01465703 0.844763818,3.46997936 3.16786432,3.46997936 L4.43501005,3.46997936 C5.5965603,3.46997936 6.65251507,4.10614878 7.18049245,5.0604029 Z" id="Combined-Shape-Copy"></path>
                <path d="M33.8961482,23.509316 L34.2129346,23.509316 C36.3248442,23.509316 37.6975854,25.735909 36.7472261,27.6444172 L34.740912,31.4614337 C33.6849572,33.4759702 30.9394748,33.4759702 29.7779246,31.5674619 L13.727412,4.31820525 C12.6714573,2.409697 13.938603,0.0770758041 16.156108,0.0770758041 L62.0901406,0.0770758041 C64.2020502,0.0770758041 65.5747914,2.30366876 64.6244321,4.21217701 C64.0964547,5.16643114 63.1460954,5.69657232 62.0901406,5.69657232 L26.3988693,5.69657232 C24.1813643,5.69657232 22.8086231,8.13522175 23.9701733,10.04373 L31.4674522,22.2369772 C31.9954296,23.0852031 32.9457889,23.509316 33.8961482,23.509316 Z" id="Shape-Copy-9"></path>
            </g>
        </g>
    </g>
</svg>