<?xml version="1.0" encoding="UTF-8"?>
<svg width="406px" height="142px" viewBox="0 0 406 142" version="1.1" xmlns="http://www.w3.org/2000/svg" xmlns:xlink="http://www.w3.org/1999/xlink">
    <!-- Generator: Sketch 48.2 (47327) - http://www.bohemiancoding.com/sketch -->
    <title>Group 2</title>
    <desc>Created with Sketch.</desc>
    <defs></defs>
    <g id="Page-1" stroke="none" stroke-width="1" fill="none" fill-rule="evenodd">
        <g id="Group" transform="translate(-4.000000, 0.000000)" fill="#FFFFFF">
            <g id="Group-2" transform="translate(4.000000, 0.000000)">
                <path d="M13.2681423,118.8 L0.170142316,90.902 C-0.273857684,89.94 0.170142316,89.2 1.28014232,89.2 L5.64614232,89.2 C6.38614232,89.2 6.75614232,89.57 6.97814232,90.014 L14.6741423,107.478 L14.7481423,107.478 L22.7401423,90.014 C23.1101423,89.2 23.9241423,89.2 24.7381423,89.2 L28.1421423,89.2 C29.2521423,89.2 29.6961423,89.94 29.2521423,90.902 L16.1541423,118.8 C16.0061423,119.17 15.5621423,119.54 14.8961423,119.54 L14.5261423,119.54 C13.8601423,119.54 13.4161423,119.17 13.2681423,118.8 Z M32.7301423,104 C32.7301423,95.638 38.6501423,88.46 47.5301423,88.46 C55.2261423,88.46 61.1461423,94.232 61.1461423,102.15 C61.1461423,102.668 61.0721423,103.63 60.9981423,104.148 C60.9241423,104.888 60.3321423,105.406 59.6661423,105.406 L39.5381423,105.406 C39.7601423,109.402 43.2381423,113.324 48.0481423,113.324 C50.7121423,113.324 53.1541423,112.14 54.6341423,111.178 C55.5221423,110.66 56.0401423,110.364 56.6321423,111.104 L58.7041423,113.916 C59.2221423,114.508 59.4441423,115.1 58.5561423,115.84 C56.4101423,117.69 52.5621423,119.54 47.6041423,119.54 C38.6501423,119.54 32.7301423,112.51 32.7301423,104 Z M39.9081423,100.744 L54.2641423,100.744 C54.0421423,97.192 51.0821423,94.158 47.4561423,94.158 C43.4601423,94.158 40.3521423,97.044 39.9081423,100.744 Z M68.2501423,117.394 L68.2501423,90.606 C68.2501423,89.866 68.9161423,89.2 69.6561423,89.2 L71.8021423,89.2 C72.3941423,89.2 72.8381423,89.57 72.9861423,90.088 L73.8741423,92.604 C74.3921423,92.012 78.3141423,88.46 84.2341423,88.46 C93.2621423,88.46 96.5921423,94.824 96.5921423,102.52 L96.5921423,117.394 C96.5921423,118.134 95.9261423,118.8 95.1861423,118.8 L90.9681423,118.8 C90.1541423,118.8 89.5621423,118.134 89.5621423,117.394 L89.5621423,102.224 C89.5621423,97.488 87.2681423,94.898 83.4201423,94.898 C78.7581423,94.898 75.5761423,98.302 75.2061423,99.338 L75.2061423,117.394 C75.2061423,118.356 74.7621423,118.8 73.5041423,118.8 L69.6561423,118.8 C68.9161423,118.8 68.2501423,118.134 68.2501423,117.394 Z M103.696142,104 C103.696142,95.342 110.060142,88.46 118.274142,88.46 C122.048142,88.46 124.712142,89.866 125.378142,90.088 L125.378142,68.406 C125.378142,67.666 126.044142,67 126.784142,67 L131.076142,67 C131.816142,67 132.482142,67.666 132.482142,68.406 L132.482142,117.394 C132.482142,118.134 131.816142,118.8 131.076142,118.8 L128.856142,118.8 C128.190142,118.8 127.746142,118.282 127.524142,117.542 L126.932142,115.396 C126.932142,115.396 123.380142,119.54 117.534142,119.54 C109.690142,119.54 103.696142,112.51 103.696142,104 Z M110.578142,104 C110.578142,108.958 113.686142,113.176 118.422142,113.176 C122.936142,113.176 125.082142,109.55 125.452142,108.736 L125.452142,96.674 C125.452142,96.674 122.862142,94.898 119.014142,94.898 C114.056142,94.898 110.578142,98.968 110.578142,104 Z M139.956142,104 C139.956142,95.638 145.876142,88.46 154.756142,88.46 C162.452142,88.46 168.372142,94.232 168.372142,102.15 C168.372142,102.668 168.298142,103.63 168.224142,104.148 C168.150142,104.888 167.558142,105.406 166.892142,105.406 L146.764142,105.406 C146.986142,109.402 150.464142,113.324 155.274142,113.324 C157.938142,113.324 160.380142,112.14 161.860142,111.178 C162.748142,110.66 163.266142,110.364 163.858142,111.104 L165.930142,113.916 C166.448142,114.508 166.670142,115.1 165.782142,115.84 C163.636142,117.69 159.788142,119.54 154.830142,119.54 C145.876142,119.54 139.956142,112.51 139.956142,104 Z M147.134142,100.744 L161.490142,100.744 C161.268142,97.192 158.308142,94.158 154.682142,94.158 C150.686142,94.158 147.578142,97.044 147.134142,100.744 Z M172.812142,116.876 L182.432142,103.704 L173.108142,91.198 C172.368142,90.236 172.886142,89.2 173.996142,89.2 L178.806142,89.2 C179.472142,89.2 180.138142,89.422 180.582142,90.014 L186.502142,98.524 L186.576142,98.524 L192.644142,90.014 C193.014142,89.496 193.606142,89.2 194.346142,89.2 L199.230142,89.2 C200.488142,89.2 200.858142,90.162 200.118142,91.124 L190.794142,103.63 L200.192142,116.876 C200.858142,117.838 200.488142,118.8 199.304142,118.8 L194.642142,118.8 C194.050142,118.8 193.458142,118.43 193.088142,117.912 L186.576142,108.736 L186.502142,108.736 L179.842142,118.208 C179.620142,118.504 179.250142,118.8 178.658142,118.8 L173.700142,118.8 C172.442142,118.8 172.146142,117.838 172.812142,116.876 Z M204.780142,104.074 C204.780142,95.342 212.106142,88.46 220.320142,88.46 C224.834142,88.46 228.312142,90.31 231.050142,93.714 C231.568142,94.38 231.420142,95.268 230.754142,95.786 L228.312142,98.006 C227.424142,98.82 226.906142,98.228 226.314142,97.71 C224.982142,96.23 222.836142,94.898 220.394142,94.898 C215.584142,94.898 211.810142,98.968 211.810142,104 C211.810142,109.106 215.510142,113.176 220.320142,113.176 C224.094142,113.176 225.648142,111.252 227.202142,109.772 C227.868142,109.106 228.534142,109.106 229.200142,109.624 L231.198142,111.252 C231.938142,111.844 232.234142,112.584 231.716142,113.324 C229.348142,117.098 225.352142,119.54 220.246142,119.54 C211.958142,119.54 204.780142,112.954 204.780142,104.074 Z M239.116142,117.394 L239.116142,68.406 C239.116142,67.666 239.782142,67 240.522142,67 L244.814142,67 C245.554142,67 246.220142,67.666 246.220142,68.406 L246.220142,91.642 C246.960142,91.124 250.364142,88.46 255.100142,88.46 C263.462142,88.46 267.458142,94.454 267.458142,102.52 L267.458142,117.394 C267.458142,118.134 266.792142,118.8 266.052142,118.8 L261.908142,118.8 C261.094142,118.8 260.502142,118.134 260.502142,117.394 L260.502142,102.372 C260.502142,97.562 258.060142,94.898 254.212142,94.898 C249.698142,94.898 246.590142,98.302 246.220142,99.56 L246.220142,117.394 C246.220142,118.208 245.702142,118.8 244.740142,118.8 L240.522142,118.8 C239.782142,118.8 239.116142,118.134 239.116142,117.394 Z M274.562142,109.624 C274.562142,104.222 278.854142,100.078 286.402142,100.078 C289.510142,100.078 292.248142,100.966 292.248142,100.966 C292.322142,96.304 291.434142,94.454 287.660142,94.454 C284.256142,94.454 280.926142,95.342 279.372142,95.786 C278.484142,96.008 277.966142,95.416 277.744142,94.602 L277.152142,91.864 C276.930142,90.902 277.448142,90.384 278.114142,90.162 C278.632142,89.94 282.850142,88.46 288.326142,88.46 C297.798142,88.46 298.686142,94.232 298.686142,101.632 L298.686142,117.394 C298.686142,118.134 298.020142,118.8 297.280142,118.8 L295.208142,118.8 C294.542142,118.8 294.246142,118.504 293.950142,117.764 L293.210142,115.766 C291.582142,117.32 288.696142,119.54 284.108142,119.54 C278.558142,119.54 274.562142,115.766 274.562142,109.624 Z M281.000142,109.55 C281.000142,112.214 282.776142,114.286 285.514142,114.286 C288.474142,114.286 291.286142,112.066 292.174142,110.586 L292.174142,105.85 C291.730142,105.554 289.658142,104.666 286.994142,104.666 C283.442142,104.666 281.000142,106.516 281.000142,109.55 Z M308.010142,117.394 L308.010142,90.606 C308.010142,89.866 308.676142,89.2 309.416142,89.2 L311.562142,89.2 C312.154142,89.2 312.598142,89.57 312.746142,90.088 L313.634142,92.604 C314.152142,92.012 318.074142,88.46 323.994142,88.46 C333.022142,88.46 336.352142,94.824 336.352142,102.52 L336.352142,117.394 C336.352142,118.134 335.686142,118.8 334.946142,118.8 L330.728142,118.8 C329.914142,118.8 329.322142,118.134 329.322142,117.394 L329.322142,102.224 C329.322142,97.488 327.028142,94.898 323.180142,94.898 C318.518142,94.898 315.336142,98.302 314.966142,99.338 L314.966142,117.394 C314.966142,118.356 314.522142,118.8 313.264142,118.8 L309.416142,118.8 C308.676142,118.8 308.010142,118.134 308.010142,117.394 Z M347.896142,108.588 C347.896142,108.588 347.896133,108.587989 347.896133,108.587989 L347.896142,108.588 Z M347.896133,108.587989 C347.890903,108.581741 345.602142,105.844927 345.602142,101.41 C345.602142,94.528 350.782142,88.46 358.330142,88.46 L371.280142,88.46 C372.094142,88.46 372.686142,89.052 372.686142,89.866 L372.686142,91.716 C372.686142,92.234 372.390142,92.9 371.872142,92.974 L367.802142,94.084 C367.802142,94.084 370.984142,96.452 370.984142,102.002 C370.984142,108.292 366.100142,114.064 358.404142,114.064 C354.630142,114.064 352.558142,112.88 351.966142,112.88 C351.448142,112.88 348.932142,114.138 348.932142,116.506 C348.932142,118.208 350.264142,119.54 352.484142,119.54 L362.548142,119.54 C368.986142,119.54 374.166142,123.018 374.166142,129.456 C374.166142,135.968 368.246142,141.74 358.404142,141.74 C347.970142,141.74 343.752142,136.412 343.752142,131.602 C343.752142,127.162 347.378142,125.09 348.118142,124.646 L348.118142,124.424 C346.564142,123.98 342.642142,121.982 342.642142,117.024 C342.642142,111.328336 347.891835,108.590245 347.89614,108.588001 L347.896133,108.587989 Z M358.478142,108.366 C362.178142,108.366 364.694142,105.554 364.694142,101.558 C364.694142,97.562 362.178142,94.75 358.478142,94.75 C354.704142,94.75 351.966142,97.562 351.966142,101.558 C351.966142,105.554 354.704142,108.366 358.478142,108.366 Z M350.634142,130.418 C350.634142,133.452 353.816142,135.672 358.330142,135.672 C362.844142,135.672 366.766142,133.378 366.766142,129.826 C366.766142,128.642 366.026142,125.608 361.216142,125.608 C359.070142,125.608 356.850142,125.608 354.704142,125.756 C354.260142,125.904 350.634142,127.088 350.634142,130.418 Z M377.496142,104 C377.496142,95.638 383.416142,88.46 392.296142,88.46 C399.992142,88.46 405.912142,94.232 405.912142,102.15 C405.912142,102.668 405.838142,103.63 405.764142,104.148 C405.690142,104.888 405.098142,105.406 404.432142,105.406 L384.304142,105.406 C384.526142,109.402 388.004142,113.324 392.814142,113.324 C395.478142,113.324 397.920142,112.14 399.400142,111.178 C400.288142,110.66 400.806142,110.364 401.398142,111.104 L403.470142,113.916 C403.988142,114.508 404.210142,115.1 403.322142,115.84 C401.176142,117.69 397.328142,119.54 392.370142,119.54 C383.416142,119.54 377.496142,112.51 377.496142,104 Z M384.674142,100.744 L399.030142,100.744 C398.808142,97.192 395.848142,94.158 392.222142,94.158 C388.226142,94.158 385.118142,97.044 384.674142,100.744 Z" id="vendexchange-copy"></path>
                <g id="Group-Copy-2" transform="translate(173.000000, 0.000000)" fill-rule="nonzero">
                    <path d="M7.18049245,5.0604029 L29.4611382,43.4426244 C30.6226884,45.5631891 33.5793618,45.5631891 34.740912,43.4426244 L46.673201,22.5550619 C47.8347512,20.5405254 46.3564145,17.9958477 44.033314,17.9958477 L34.8465075,17.9958477 C33.0513844,17.9958477 31.6786432,16.5114524 31.7842387,14.7089724 L31.7842387,14.6029442 C31.8898341,13.0125206 33.2625753,11.7401818 34.8465075,11.7401818 L54.6984572,11.9522383 C57.0215577,11.9522383 58.4998944,14.4969159 57.3383442,16.5114524 L34.6353165,56.4840974 C33.4737663,58.4986339 30.5170929,58.4986339 29.3555427,56.4840974 L0.527977386,8.13522175 C-0.633572864,6.01465703 0.844763818,3.46997936 3.16786432,3.46997936 L4.43501005,3.46997936 C5.5965603,3.46997936 6.65251507,4.10614878 7.18049245,5.0604029 Z" id="Combined-Shape-Copy"></path>
                    <path d="M33.8961482,23.509316 L34.2129346,23.509316 C36.3248442,23.509316 37.6975854,25.735909 36.7472261,27.6444172 L34.740912,31.4614337 C33.6849572,33.4759702 30.9394748,33.4759702 29.7779246,31.5674619 L13.727412,4.31820525 C12.6714573,2.409697 13.938603,0.0770758041 16.156108,0.0770758041 L62.0901406,0.0770758041 C64.2020502,0.0770758041 65.5747914,2.30366876 64.6244321,4.21217701 C64.0964547,5.16643114 63.1460954,5.69657232 62.0901406,5.69657232 L26.3988693,5.69657232 C24.1813643,5.69657232 22.8086231,8.13522175 23.9701733,10.04373 L31.4674522,22.2369772 C31.9954296,23.0852031 32.9457889,23.509316 33.8961482,23.509316 Z" id="Shape-Copy-9"></path>
                </g>
            </g>
        </g>
    </g>
</svg>