<?xml version="1.0" encoding="UTF-8"?>
<svg width="406px" height="173px" viewBox="0 0 406 173" version="1.1" xmlns="http://www.w3.org/2000/svg" xmlns:xlink="http://www.w3.org/1999/xlink">
    <!-- Generator: Sketch 48.2 (47327) - http://www.bohemiancoding.com/sketch -->
    <title>Group</title>
    <desc>Created with Sketch.</desc>
    <defs></defs>
    <g id="Page-1" stroke="none" stroke-width="1" fill="none" fill-rule="evenodd">
        <g id="Group" transform="translate(-4.000000, 0.000000)" fill="#FFFFFF">
            <path d="M13.876,166.046 L21.884,166.046 L17.88,159.832 L13.876,166.046 Z M22.664,167.268 L13.096,167.268 L10.054,172 L8.26,172 L17.88,157.05 L27.5,172 L25.706,172 L22.664,167.268 Z M29.97,157.492 L44.4,157.492 L44.4,158.74 L31.53,158.74 L31.53,163.758 L42.372,163.758 L42.372,165.006 L31.504,165.006 L31.504,172 L29.97,172 L29.97,157.492 Z M49.158,163.888 L56.36,163.888 C57.8680075,163.888 58.9383302,163.671335 59.571,163.238 C60.2036698,162.804665 60.52,162.163338 60.52,161.314 C60.52,160.464662 60.2036698,159.823335 59.571,159.39 C58.9383302,158.956664 57.8680075,158.74 56.36,158.74 L49.158,158.74 L49.158,163.888 Z M49.158,172 L47.65,172 L47.65,157.492 L56.646,157.492 C57.2873365,157.492 57.93733,157.552666 58.596,157.674 C59.25467,157.795334 59.8483307,158.007665 60.377,158.311 C60.9056693,158.614335 61.334665,159.008664 61.664,159.494 C61.993335,159.979336 62.158,160.585996 62.158,161.314 C62.158,161.851336 62.0453345,162.327998 61.82,162.744 C61.5946655,163.160002 61.2956685,163.523998 60.923,163.836 C60.5503315,164.148002 60.1126692,164.403666 59.61,164.603 C59.1073308,164.802334 58.587336,164.962666 58.05,165.084 L62.522,172 L60.78,172 L56.438,165.136 L49.158,165.136 L49.158,172 Z M66.942,172 L66.942,157.492 L68.476,157.492 L68.476,172 L66.942,172 Z M74.3,164.746 C74.3,165.664671 74.5339977,166.522663 75.002,167.32 C75.4700023,168.117337 76.1026627,168.814997 76.9,169.413 C77.6973373,170.011003 78.633328,170.483332 79.708,170.83 C80.782672,171.176668 81.9353272,171.35 83.166,171.35 C84.5353402,171.35 85.8136607,171.146335 87.001,170.739 C88.1883393,170.331665 89.1979958,169.764004 90.03,169.036 L90.03,170.7 C89.0939953,171.30667 88.0453391,171.770332 86.884,172.091 C85.7226609,172.411668 84.4833399,172.572 83.166,172.572 C81.7099927,172.572 80.3406731,172.368335 79.058,171.961 C77.7753269,171.553665 76.6616714,170.99467 75.717,170.284 C74.7723286,169.57333 74.0226694,168.745671 73.468,167.801 C72.9133306,166.856329 72.636,165.838005 72.636,164.746 C72.636,163.653995 72.9133306,162.631338 73.468,161.678 C74.0226694,160.724662 74.7723286,159.89267 75.717,159.182 C76.6616714,158.47133 77.7753269,157.912335 79.058,157.505 C80.3406731,157.097665 81.7099927,156.894 83.166,156.894 C84.5006733,156.894 85.7443276,157.058665 86.897,157.388 C88.0496724,157.717335 89.0939953,158.18533 90.03,158.792 L90.03,160.482 C89.1979958,159.753996 88.1883393,159.177669 87.001,158.753 C85.8136607,158.328331 84.5353402,158.116 83.166,158.116 C81.9353272,158.116 80.782672,158.289332 79.708,158.636 C78.633328,158.982668 77.6973373,159.454997 76.9,160.053 C76.1026627,160.651003 75.4700023,161.352996 75.002,162.159 C74.5339977,162.965004 74.3,163.827329 74.3,164.746 Z M97.986,166.046 L105.994,166.046 L101.99,159.832 L97.986,166.046 Z M106.774,167.268 L97.206,167.268 L94.164,172 L92.37,172 L101.99,157.05 L111.61,172 L109.816,172 L106.774,167.268 Z M114.158,160.404 L113.43,157.648 L113.43,154.502 L114.886,154.502 L114.886,157.648 L114.158,160.404 Z M131.994,168.204 C131.994,169.001337 131.773002,169.677331 131.331,170.232 C130.888998,170.786669 130.308337,171.237332 129.589,171.584 C128.869663,171.930668 128.046338,172.181999 127.119,172.338 C126.191662,172.494001 125.251338,172.572 124.298,172.572 C123.58733,172.572 122.894003,172.537334 122.218,172.468 C121.541997,172.398666 120.90067,172.299001 120.294,172.169 C119.68733,172.038999 119.124003,171.883001 118.604,171.701 C118.083997,171.518999 117.642002,171.306668 117.278,171.064 L117.278,169.452 C117.676669,169.712001 118.148997,169.954666 118.695,170.18 C119.241003,170.405334 119.821664,170.604666 120.437,170.778 C121.052336,170.951334 121.693663,171.089999 122.361,171.194 C123.028337,171.298001 123.69133,171.35 124.35,171.35 C125.268671,171.35 126.09633,171.267667 126.833,171.103 C127.56967,170.938333 128.197997,170.717335 128.718,170.44 C129.238003,170.162665 129.640999,169.846335 129.927,169.491 C130.213001,169.135665 130.356,168.776002 130.356,168.412 C130.356,167.857331 130.161002,167.411002 129.771,167.073 C129.380998,166.734998 128.874003,166.457668 128.25,166.241 C127.625997,166.024332 126.911004,165.846667 126.105,165.708 C125.298996,165.569333 124.471338,165.430667 123.622,165.292 C122.772662,165.153333 121.945004,164.993001 121.139,164.811 C120.332996,164.628999 119.618003,164.377668 118.994,164.057 C118.369997,163.736332 117.863002,163.324669 117.473,162.822 C117.082998,162.319331 116.888,161.68667 116.888,160.924 C116.888,160.247997 117.100331,159.663002 117.525,159.169 C117.949669,158.674998 118.50433,158.267668 119.189,157.947 C119.87367,157.626332 120.640662,157.392334 121.49,157.245 C122.339338,157.097666 123.197329,157.024 124.064,157.024 C124.67067,157.024 125.27733,157.05 125.884,157.102 C126.49067,157.154 127.071331,157.236333 127.626,157.349 C128.180669,157.461667 128.696331,157.595999 129.173,157.752 C129.649669,157.908001 130.052665,158.089999 130.382,158.298 L130.382,159.806 C129.497996,159.303331 128.488339,158.922001 127.353,158.662 C126.217661,158.401999 125.026006,158.272 123.778,158.272 C123.361998,158.272 122.859336,158.311 122.27,158.389 C121.680664,158.467 121.113003,158.605666 120.567,158.805 C120.020997,159.004334 119.553002,159.277332 119.163,159.624 C118.772998,159.970668 118.578,160.412664 118.578,160.95 C118.578,161.504669 118.751332,161.955332 119.098,162.302 C119.444668,162.648668 119.899664,162.938999 120.463,163.173 C121.026336,163.407001 121.67633,163.593333 122.413,163.732 C123.14967,163.870667 123.907996,164.000666 124.688,164.122 C125.502671,164.260667 126.338996,164.420999 127.197,164.603 C128.055004,164.785001 128.83933,165.031998 129.55,165.344 C130.26067,165.656002 130.845664,166.041664 131.305,166.501 C131.764336,166.960336 131.994,167.527997 131.994,168.204 Z M140.756,158.74 L140.756,157.492 L157.89,157.492 L157.89,158.74 L150.09,158.74 L150.09,172 L148.582,172 L148.582,158.74 L140.756,158.74 Z M161.374,164.746 C161.374,165.664671 161.607998,166.522663 162.076,167.32 C162.544002,168.117337 163.176663,168.814997 163.974,169.413 C164.771337,170.011003 165.707328,170.483332 166.782,170.83 C167.856672,171.176668 169.009327,171.35 170.24,171.35 C171.453339,171.35 172.601661,171.176668 173.685,170.83 C174.768339,170.483332 175.708663,170.011003 176.506,169.413 C177.303337,168.814997 177.935998,168.117337 178.404,167.32 C178.872002,166.522663 179.106,165.664671 179.106,164.746 C179.106,163.827329 178.872002,162.965004 178.404,162.159 C177.935998,161.352996 177.303337,160.651003 176.506,160.053 C175.708663,159.454997 174.768339,158.982668 173.685,158.636 C172.601661,158.289332 171.453339,158.116 170.24,158.116 C169.009327,158.116 167.856672,158.289332 166.782,158.636 C165.707328,158.982668 164.771337,159.454997 163.974,160.053 C163.176663,160.651003 162.544002,161.352996 162.076,162.159 C161.607998,162.965004 161.374,163.827329 161.374,164.746 Z M159.71,164.746 C159.71,163.653995 159.987331,162.631338 160.542,161.678 C161.096669,160.724662 161.846329,159.89267 162.791,159.182 C163.735671,158.47133 164.849327,157.912335 166.132,157.505 C167.414673,157.097665 168.783993,156.894 170.24,156.894 C171.696007,156.894 173.065327,157.097665 174.348,157.505 C175.630673,157.912335 176.744329,158.47133 177.689,159.182 C178.633671,159.89267 179.383331,160.724662 179.938,161.678 C180.492669,162.631338 180.77,163.653995 180.77,164.746 C180.77,165.838005 180.492669,166.856329 179.938,167.801 C179.383331,168.745671 178.633671,169.57333 177.689,170.284 C176.744329,170.99467 175.630673,171.553665 174.348,171.961 C173.065327,172.368335 171.696007,172.572 170.24,172.572 C168.783993,172.572 167.414673,172.368335 166.132,171.961 C164.849327,171.553665 163.735671,170.99467 162.791,170.284 C161.846329,169.57333 161.096669,168.745671 160.542,167.801 C159.987331,166.856329 159.71,165.838005 159.71,164.746 Z M186.074,172 L184.54,172 L184.54,157.492 L186.074,157.492 L186.074,165.292 L195.044,157.492 L197.384,157.492 L191.95,162.198 L200.374,172 L198.346,172 L190.806,163.212 L186.074,167.268 L186.074,172 Z M202.974,157.492 L217.404,157.492 L217.404,158.74 L204.534,158.74 L204.534,163.758 L215.376,163.758 L215.376,165.006 L204.508,165.006 L204.508,170.752 L217.404,170.752 L217.404,172 L202.974,172 L202.974,157.492 Z M221.174,172 L221.174,157.024 L236.852,169.296 L236.852,157.492 L238.36,157.492 L238.36,172.39 L222.682,160.326 L222.682,172 L221.174,172 Z M254.376,163.888 L261.578,163.888 C263.086008,163.888 264.151997,163.671335 264.776,163.238 C265.400003,162.804665 265.712,162.163338 265.712,161.314 C265.712,160.464662 265.400003,159.823335 264.776,159.39 C264.151997,158.956664 263.086008,158.74 261.578,158.74 L254.376,158.74 L254.376,163.888 Z M254.376,172 L252.868,172 L252.868,157.492 L261.838,157.492 C262.479337,157.492 263.12933,157.552666 263.788,157.674 C264.44667,157.795334 265.044664,158.007665 265.582,158.311 C266.119336,158.614335 266.552665,159.008664 266.882,159.494 C267.211335,159.979336 267.376,160.585996 267.376,161.314 C267.376,162.042004 267.211335,162.648664 266.882,163.134 C266.552665,163.619336 266.119336,164.013665 265.582,164.317 C265.044664,164.620335 264.44667,164.832666 263.788,164.954 C263.12933,165.075334 262.479337,165.136 261.838,165.136 L254.376,165.136 L254.376,172 Z M272.134,170.752 L284.744,170.752 L284.744,172 L270.626,172 L270.626,157.492 L272.134,157.492 L272.134,170.752 Z M290.88,166.046 L298.888,166.046 L294.884,159.832 L290.88,166.046 Z M299.668,167.268 L290.1,167.268 L287.058,172 L285.264,172 L294.884,157.05 L304.504,172 L302.71,172 L299.668,167.268 Z M303.074,158.74 L303.074,157.492 L320.208,157.492 L320.208,158.74 L312.408,158.74 L312.408,172 L310.9,172 L310.9,158.74 L303.074,158.74 Z M322.678,157.492 L337.108,157.492 L337.108,158.74 L324.238,158.74 L324.238,163.758 L335.08,163.758 L335.08,165.006 L324.212,165.006 L324.212,172 L322.678,172 L322.678,157.492 Z M341.372,164.746 C341.372,165.664671 341.605998,166.522663 342.074,167.32 C342.542002,168.117337 343.174663,168.814997 343.972,169.413 C344.769337,170.011003 345.705328,170.483332 346.78,170.83 C347.854672,171.176668 349.007327,171.35 350.238,171.35 C351.451339,171.35 352.599661,171.176668 353.683,170.83 C354.766339,170.483332 355.706663,170.011003 356.504,169.413 C357.301337,168.814997 357.933998,168.117337 358.402,167.32 C358.870002,166.522663 359.104,165.664671 359.104,164.746 C359.104,163.827329 358.870002,162.965004 358.402,162.159 C357.933998,161.352996 357.301337,160.651003 356.504,160.053 C355.706663,159.454997 354.766339,158.982668 353.683,158.636 C352.599661,158.289332 351.451339,158.116 350.238,158.116 C349.007327,158.116 347.854672,158.289332 346.78,158.636 C345.705328,158.982668 344.769337,159.454997 343.972,160.053 C343.174663,160.651003 342.542002,161.352996 342.074,162.159 C341.605998,162.965004 341.372,163.827329 341.372,164.746 Z M339.708,164.746 C339.708,163.653995 339.985331,162.631338 340.54,161.678 C341.094669,160.724662 341.844329,159.89267 342.789,159.182 C343.733671,158.47133 344.847327,157.912335 346.13,157.505 C347.412673,157.097665 348.781993,156.894 350.238,156.894 C351.694007,156.894 353.063327,157.097665 354.346,157.505 C355.628673,157.912335 356.742329,158.47133 357.687,159.182 C358.631671,159.89267 359.381331,160.724662 359.936,161.678 C360.490669,162.631338 360.768,163.653995 360.768,164.746 C360.768,165.838005 360.490669,166.856329 359.936,167.801 C359.381331,168.745671 358.631671,169.57333 357.687,170.284 C356.742329,170.99467 355.628673,171.553665 354.346,171.961 C353.063327,172.368335 351.694007,172.572 350.238,172.572 C348.781993,172.572 347.412673,172.368335 346.13,171.961 C344.847327,171.553665 343.733671,170.99467 342.789,170.284 C341.844329,169.57333 341.094669,168.745671 340.54,167.801 C339.985331,166.856329 339.708,165.838005 339.708,164.746 Z M366.046,163.888 L373.248,163.888 C374.756008,163.888 375.82633,163.671335 376.459,163.238 C377.09167,162.804665 377.408,162.163338 377.408,161.314 C377.408,160.464662 377.09167,159.823335 376.459,159.39 C375.82633,158.956664 374.756008,158.74 373.248,158.74 L366.046,158.74 L366.046,163.888 Z M366.046,172 L364.538,172 L364.538,157.492 L373.534,157.492 C374.175337,157.492 374.82533,157.552666 375.484,157.674 C376.14267,157.795334 376.736331,158.007665 377.265,158.311 C377.793669,158.614335 378.222665,159.008664 378.552,159.494 C378.881335,159.979336 379.046,160.585996 379.046,161.314 C379.046,161.851336 378.933334,162.327998 378.708,162.744 C378.482666,163.160002 378.183669,163.523998 377.811,163.836 C377.438331,164.148002 377.000669,164.403666 376.498,164.603 C375.995331,164.802334 375.475336,164.962666 374.938,165.084 L379.41,172 L377.668,172 L373.326,165.136 L366.046,165.136 L366.046,172 Z M383.492,172 L381.88,172 L387.21,157.102 L395.452,169.712 L403.72,157.102 L409.05,172 L407.438,172 L403.278,160.404 L395.478,172.442 L387.678,160.404 L383.492,172 Z" id="Africa's-Token-Platf"></path>
            <g id="Group-2" transform="translate(4.000000, 0.000000)">
                <path d="M13.2681423,118.8 L0.170142316,90.902 C-0.273857684,89.94 0.170142316,89.2 1.28014232,89.2 L5.64614232,89.2 C6.38614232,89.2 6.75614232,89.57 6.97814232,90.014 L14.6741423,107.478 L14.7481423,107.478 L22.7401423,90.014 C23.1101423,89.2 23.9241423,89.2 24.7381423,89.2 L28.1421423,89.2 C29.2521423,89.2 29.6961423,89.94 29.2521423,90.902 L16.1541423,118.8 C16.0061423,119.17 15.5621423,119.54 14.8961423,119.54 L14.5261423,119.54 C13.8601423,119.54 13.4161423,119.17 13.2681423,118.8 Z M32.7301423,104 C32.7301423,95.638 38.6501423,88.46 47.5301423,88.46 C55.2261423,88.46 61.1461423,94.232 61.1461423,102.15 C61.1461423,102.668 61.0721423,103.63 60.9981423,104.148 C60.9241423,104.888 60.3321423,105.406 59.6661423,105.406 L39.5381423,105.406 C39.7601423,109.402 43.2381423,113.324 48.0481423,113.324 C50.7121423,113.324 53.1541423,112.14 54.6341423,111.178 C55.5221423,110.66 56.0401423,110.364 56.6321423,111.104 L58.7041423,113.916 C59.2221423,114.508 59.4441423,115.1 58.5561423,115.84 C56.4101423,117.69 52.5621423,119.54 47.6041423,119.54 C38.6501423,119.54 32.7301423,112.51 32.7301423,104 Z M39.9081423,100.744 L54.2641423,100.744 C54.0421423,97.192 51.0821423,94.158 47.4561423,94.158 C43.4601423,94.158 40.3521423,97.044 39.9081423,100.744 Z M68.2501423,117.394 L68.2501423,90.606 C68.2501423,89.866 68.9161423,89.2 69.6561423,89.2 L71.8021423,89.2 C72.3941423,89.2 72.8381423,89.57 72.9861423,90.088 L73.8741423,92.604 C74.3921423,92.012 78.3141423,88.46 84.2341423,88.46 C93.2621423,88.46 96.5921423,94.824 96.5921423,102.52 L96.5921423,117.394 C96.5921423,118.134 95.9261423,118.8 95.1861423,118.8 L90.9681423,118.8 C90.1541423,118.8 89.5621423,118.134 89.5621423,117.394 L89.5621423,102.224 C89.5621423,97.488 87.2681423,94.898 83.4201423,94.898 C78.7581423,94.898 75.5761423,98.302 75.2061423,99.338 L75.2061423,117.394 C75.2061423,118.356 74.7621423,118.8 73.5041423,118.8 L69.6561423,118.8 C68.9161423,118.8 68.2501423,118.134 68.2501423,117.394 Z M103.696142,104 C103.696142,95.342 110.060142,88.46 118.274142,88.46 C122.048142,88.46 124.712142,89.866 125.378142,90.088 L125.378142,68.406 C125.378142,67.666 126.044142,67 126.784142,67 L131.076142,67 C131.816142,67 132.482142,67.666 132.482142,68.406 L132.482142,117.394 C132.482142,118.134 131.816142,118.8 131.076142,118.8 L128.856142,118.8 C128.190142,118.8 127.746142,118.282 127.524142,117.542 L126.932142,115.396 C126.932142,115.396 123.380142,119.54 117.534142,119.54 C109.690142,119.54 103.696142,112.51 103.696142,104 Z M110.578142,104 C110.578142,108.958 113.686142,113.176 118.422142,113.176 C122.936142,113.176 125.082142,109.55 125.452142,108.736 L125.452142,96.674 C125.452142,96.674 122.862142,94.898 119.014142,94.898 C114.056142,94.898 110.578142,98.968 110.578142,104 Z M139.956142,104 C139.956142,95.638 145.876142,88.46 154.756142,88.46 C162.452142,88.46 168.372142,94.232 168.372142,102.15 C168.372142,102.668 168.298142,103.63 168.224142,104.148 C168.150142,104.888 167.558142,105.406 166.892142,105.406 L146.764142,105.406 C146.986142,109.402 150.464142,113.324 155.274142,113.324 C157.938142,113.324 160.380142,112.14 161.860142,111.178 C162.748142,110.66 163.266142,110.364 163.858142,111.104 L165.930142,113.916 C166.448142,114.508 166.670142,115.1 165.782142,115.84 C163.636142,117.69 159.788142,119.54 154.830142,119.54 C145.876142,119.54 139.956142,112.51 139.956142,104 Z M147.134142,100.744 L161.490142,100.744 C161.268142,97.192 158.308142,94.158 154.682142,94.158 C150.686142,94.158 147.578142,97.044 147.134142,100.744 Z M172.812142,116.876 L182.432142,103.704 L173.108142,91.198 C172.368142,90.236 172.886142,89.2 173.996142,89.2 L178.806142,89.2 C179.472142,89.2 180.138142,89.422 180.582142,90.014 L186.502142,98.524 L186.576142,98.524 L192.644142,90.014 C193.014142,89.496 193.606142,89.2 194.346142,89.2 L199.230142,89.2 C200.488142,89.2 200.858142,90.162 200.118142,91.124 L190.794142,103.63 L200.192142,116.876 C200.858142,117.838 200.488142,118.8 199.304142,118.8 L194.642142,118.8 C194.050142,118.8 193.458142,118.43 193.088142,117.912 L186.576142,108.736 L186.502142,108.736 L179.842142,118.208 C179.620142,118.504 179.250142,118.8 178.658142,118.8 L173.700142,118.8 C172.442142,118.8 172.146142,117.838 172.812142,116.876 Z M204.780142,104.074 C204.780142,95.342 212.106142,88.46 220.320142,88.46 C224.834142,88.46 228.312142,90.31 231.050142,93.714 C231.568142,94.38 231.420142,95.268 230.754142,95.786 L228.312142,98.006 C227.424142,98.82 226.906142,98.228 226.314142,97.71 C224.982142,96.23 222.836142,94.898 220.394142,94.898 C215.584142,94.898 211.810142,98.968 211.810142,104 C211.810142,109.106 215.510142,113.176 220.320142,113.176 C224.094142,113.176 225.648142,111.252 227.202142,109.772 C227.868142,109.106 228.534142,109.106 229.200142,109.624 L231.198142,111.252 C231.938142,111.844 232.234142,112.584 231.716142,113.324 C229.348142,117.098 225.352142,119.54 220.246142,119.54 C211.958142,119.54 204.780142,112.954 204.780142,104.074 Z M239.116142,117.394 L239.116142,68.406 C239.116142,67.666 239.782142,67 240.522142,67 L244.814142,67 C245.554142,67 246.220142,67.666 246.220142,68.406 L246.220142,91.642 C246.960142,91.124 250.364142,88.46 255.100142,88.46 C263.462142,88.46 267.458142,94.454 267.458142,102.52 L267.458142,117.394 C267.458142,118.134 266.792142,118.8 266.052142,118.8 L261.908142,118.8 C261.094142,118.8 260.502142,118.134 260.502142,117.394 L260.502142,102.372 C260.502142,97.562 258.060142,94.898 254.212142,94.898 C249.698142,94.898 246.590142,98.302 246.220142,99.56 L246.220142,117.394 C246.220142,118.208 245.702142,118.8 244.740142,118.8 L240.522142,118.8 C239.782142,118.8 239.116142,118.134 239.116142,117.394 Z M274.562142,109.624 C274.562142,104.222 278.854142,100.078 286.402142,100.078 C289.510142,100.078 292.248142,100.966 292.248142,100.966 C292.322142,96.304 291.434142,94.454 287.660142,94.454 C284.256142,94.454 280.926142,95.342 279.372142,95.786 C278.484142,96.008 277.966142,95.416 277.744142,94.602 L277.152142,91.864 C276.930142,90.902 277.448142,90.384 278.114142,90.162 C278.632142,89.94 282.850142,88.46 288.326142,88.46 C297.798142,88.46 298.686142,94.232 298.686142,101.632 L298.686142,117.394 C298.686142,118.134 298.020142,118.8 297.280142,118.8 L295.208142,118.8 C294.542142,118.8 294.246142,118.504 293.950142,117.764 L293.210142,115.766 C291.582142,117.32 288.696142,119.54 284.108142,119.54 C278.558142,119.54 274.562142,115.766 274.562142,109.624 Z M281.000142,109.55 C281.000142,112.214 282.776142,114.286 285.514142,114.286 C288.474142,114.286 291.286142,112.066 292.174142,110.586 L292.174142,105.85 C291.730142,105.554 289.658142,104.666 286.994142,104.666 C283.442142,104.666 281.000142,106.516 281.000142,109.55 Z M308.010142,117.394 L308.010142,90.606 C308.010142,89.866 308.676142,89.2 309.416142,89.2 L311.562142,89.2 C312.154142,89.2 312.598142,89.57 312.746142,90.088 L313.634142,92.604 C314.152142,92.012 318.074142,88.46 323.994142,88.46 C333.022142,88.46 336.352142,94.824 336.352142,102.52 L336.352142,117.394 C336.352142,118.134 335.686142,118.8 334.946142,118.8 L330.728142,118.8 C329.914142,118.8 329.322142,118.134 329.322142,117.394 L329.322142,102.224 C329.322142,97.488 327.028142,94.898 323.180142,94.898 C318.518142,94.898 315.336142,98.302 314.966142,99.338 L314.966142,117.394 C314.966142,118.356 314.522142,118.8 313.264142,118.8 L309.416142,118.8 C308.676142,118.8 308.010142,118.134 308.010142,117.394 Z M347.896142,108.588 C347.896142,108.588 347.896133,108.587989 347.896133,108.587989 L347.896142,108.588 Z M347.896133,108.587989 C347.890903,108.581741 345.602142,105.844927 345.602142,101.41 C345.602142,94.528 350.782142,88.46 358.330142,88.46 L371.280142,88.46 C372.094142,88.46 372.686142,89.052 372.686142,89.866 L372.686142,91.716 C372.686142,92.234 372.390142,92.9 371.872142,92.974 L367.802142,94.084 C367.802142,94.084 370.984142,96.452 370.984142,102.002 C370.984142,108.292 366.100142,114.064 358.404142,114.064 C354.630142,114.064 352.558142,112.88 351.966142,112.88 C351.448142,112.88 348.932142,114.138 348.932142,116.506 C348.932142,118.208 350.264142,119.54 352.484142,119.54 L362.548142,119.54 C368.986142,119.54 374.166142,123.018 374.166142,129.456 C374.166142,135.968 368.246142,141.74 358.404142,141.74 C347.970142,141.74 343.752142,136.412 343.752142,131.602 C343.752142,127.162 347.378142,125.09 348.118142,124.646 L348.118142,124.424 C346.564142,123.98 342.642142,121.982 342.642142,117.024 C342.642142,111.328336 347.891835,108.590245 347.89614,108.588001 L347.896133,108.587989 Z M358.478142,108.366 C362.178142,108.366 364.694142,105.554 364.694142,101.558 C364.694142,97.562 362.178142,94.75 358.478142,94.75 C354.704142,94.75 351.966142,97.562 351.966142,101.558 C351.966142,105.554 354.704142,108.366 358.478142,108.366 Z M350.634142,130.418 C350.634142,133.452 353.816142,135.672 358.330142,135.672 C362.844142,135.672 366.766142,133.378 366.766142,129.826 C366.766142,128.642 366.026142,125.608 361.216142,125.608 C359.070142,125.608 356.850142,125.608 354.704142,125.756 C354.260142,125.904 350.634142,127.088 350.634142,130.418 Z M377.496142,104 C377.496142,95.638 383.416142,88.46 392.296142,88.46 C399.992142,88.46 405.912142,94.232 405.912142,102.15 C405.912142,102.668 405.838142,103.63 405.764142,104.148 C405.690142,104.888 405.098142,105.406 404.432142,105.406 L384.304142,105.406 C384.526142,109.402 388.004142,113.324 392.814142,113.324 C395.478142,113.324 397.920142,112.14 399.400142,111.178 C400.288142,110.66 400.806142,110.364 401.398142,111.104 L403.470142,113.916 C403.988142,114.508 404.210142,115.1 403.322142,115.84 C401.176142,117.69 397.328142,119.54 392.370142,119.54 C383.416142,119.54 377.496142,112.51 377.496142,104 Z M384.674142,100.744 L399.030142,100.744 C398.808142,97.192 395.848142,94.158 392.222142,94.158 C388.226142,94.158 385.118142,97.044 384.674142,100.744 Z" id="vendexchange-copy"></path>
                <g id="Group-Copy-2" transform="translate(173.000000, 0.000000)" fill-rule="nonzero">
                    <path d="M7.18049245,5.0604029 L29.4611382,43.4426244 C30.6226884,45.5631891 33.5793618,45.5631891 34.740912,43.4426244 L46.673201,22.5550619 C47.8347512,20.5405254 46.3564145,17.9958477 44.033314,17.9958477 L34.8465075,17.9958477 C33.0513844,17.9958477 31.6786432,16.5114524 31.7842387,14.7089724 L31.7842387,14.6029442 C31.8898341,13.0125206 33.2625753,11.7401818 34.8465075,11.7401818 L54.6984572,11.9522383 C57.0215577,11.9522383 58.4998944,14.4969159 57.3383442,16.5114524 L34.6353165,56.4840974 C33.4737663,58.4986339 30.5170929,58.4986339 29.3555427,56.4840974 L0.527977386,8.13522175 C-0.633572864,6.01465703 0.844763818,3.46997936 3.16786432,3.46997936 L4.43501005,3.46997936 C5.5965603,3.46997936 6.65251507,4.10614878 7.18049245,5.0604029 Z" id="Combined-Shape-Copy"></path>
                    <path d="M33.8961482,23.509316 L34.2129346,23.509316 C36.3248442,23.509316 37.6975854,25.735909 36.7472261,27.6444172 L34.740912,31.4614337 C33.6849572,33.4759702 30.9394748,33.4759702 29.7779246,31.5674619 L13.727412,4.31820525 C12.6714573,2.409697 13.938603,0.0770758041 16.156108,0.0770758041 L62.0901406,0.0770758041 C64.2020502,0.0770758041 65.5747914,2.30366876 64.6244321,4.21217701 C64.0964547,5.16643114 63.1460954,5.69657232 62.0901406,5.69657232 L26.3988693,5.69657232 C24.1813643,5.69657232 22.8086231,8.13522175 23.9701733,10.04373 L31.4674522,22.2369772 C31.9954296,23.0852031 32.9457889,23.509316 33.8961482,23.509316 Z" id="Shape-Copy-9"></path>
                </g>
            </g>
        </g>
    </g>
</svg>