<?xml version="1.0" encoding="UTF-8"?>
<svg width="167px" height="102px" viewBox="0 0 167 102" version="1.1" xmlns="http://www.w3.org/2000/svg" xmlns:xlink="http://www.w3.org/1999/xlink">
    <!-- Generator: Sketch 48.2 (47327) - http://www.bohemiancoding.com/sketch -->
    <title>Group 2</title>
    <desc>Created with Sketch.</desc>
    <defs></defs>
    <g id="Page-1" stroke="none" stroke-width="1" fill="none" fill-rule="evenodd">
        <g id="Group" transform="translate(-25.000000, -13.000000)" fill="#FFFFFF">
            <g id="Group-2" transform="translate(25.000000, 13.000000)">
                <g id="Group-Copy-2" transform="translate(54.166667, 0.000000)" fill-rule="nonzero">
                    <path d="M6.90431967,4.79865793 L28.3280175,41.1955921 C29.4448927,43.2064724 32.2878479,43.2064724 33.4047231,41.1955921 L44.8780778,21.3884207 C45.9949531,19.4780844 44.5734755,17.065028 42.339725,17.065028 L33.5062572,17.065028 C31.7801773,17.065028 30.4602338,15.6574118 30.5617679,13.9481635 L30.5617679,13.8476195 C30.6633021,12.3394592 31.9832455,11.132931 33.5062572,11.132931 L52.5946704,11.334019 C54.8284209,11.334019 56.2498985,13.7470754 55.1330232,15.6574118 L33.303189,53.5625062 C32.1863137,55.4728425 29.3433586,55.4728425 28.2264833,53.5625062 L0.507670564,7.71443442 C-0.609204677,5.70355408 0.812272902,3.29049767 3.04602338,3.29049767 L4.26443274,3.29049767 C5.38130798,3.29049767 6.3966491,3.89376177 6.90431967,4.79865793 Z" id="Combined-Shape-Copy"></path>
                    <path d="M32.5924502,22.2933169 L32.8970525,22.2933169 C34.9277348,22.2933169 36.2476783,24.4047413 35.3338712,26.2145336 L33.4047231,29.8341182 C32.389382,31.7444545 29.749495,31.7444545 28.6326198,29.9346622 L13.1994347,4.09484981 C12.1840935,2.2850575 13.4025029,0.0730891246 15.5347193,0.0730891246 L59.7020583,0.0730891246 C61.7327406,0.0730891246 63.052684,2.18451348 62.138877,3.99430579 C61.6312064,4.89920194 60.7173994,5.40192203 59.7020583,5.40192203 L25.3835282,5.40192203 C23.2513118,5.40192203 21.9313684,7.71443442 23.0482436,9.52422673 L30.2571656,21.0867887 C30.7648362,21.8911408 31.6786432,22.2933169 32.5924502,22.2933169 Z" id="Shape-Copy-9"></path>
                </g>
                <text id="vendex" font-family="BrandonGrotesque-Medium, Brandon Grotesque" font-size="61.6666667" font-weight="400">
                    <tspan x="0" y="100.833333">vendex</tspan>
                </text>
            </g>
        </g>
    </g>
</svg>