<?xml version="1.0" encoding="UTF-8"?>
<svg width="414px" height="164px" viewBox="0 0 414 164" version="1.1" xmlns="http://www.w3.org/2000/svg" xmlns:xlink="http://www.w3.org/1999/xlink">
    <!-- Generator: Sketch 48.2 (47327) - http://www.bohemiancoding.com/sketch -->
    <title>Group</title>
    <desc>Created with Sketch.</desc>
    <defs></defs>
    <g id="Page-1" stroke="none" stroke-width="1" fill="none" fill-rule="evenodd">
        <g id="Group" fill="#FFFFFF">
            <path d="M4,150.765751 L4,148.827141 L19.7590361,148.827141 L19.7590361,150.765751 L12.9156627,150.765751 L12.9156627,163.250404 L10.8674699,163.250404 L10.8674699,150.765751 L4,150.765751 Z M34.2650602,157.227787 L24.0481928,157.227787 L24.0481928,163.250404 L22.0481928,163.250404 L22.0481928,150.274637 L24.0481928,150.274637 L24.0481928,155.315024 L34.2650602,155.315024 L34.2650602,150.274637 L36.2650602,150.274637 L36.2650602,163.250404 L34.2650602,163.250404 L34.2650602,157.227787 Z M40.3614458,150.274637 L52.4096386,150.274637 L52.4096386,152.187399 L42.4096386,152.187399 L42.4096386,155.495961 L50.8192771,155.495961 L50.8192771,157.434572 L42.3855422,157.434572 L42.3855422,161.337641 L52.4096386,161.337641 L52.4096386,163.250404 L40.3614458,163.250404 L40.3614458,150.274637 Z M67.2289157,156.865913 L72.9156627,156.865913 L70.0722892,152.135703 L67.2289157,156.865913 Z M74.0722892,158.804523 L66.0722892,158.804523 L63.3975904,163.250404 L60.9638554,163.250404 L70.0722892,148.077544 L79.1807229,163.250404 L76.746988,163.250404 L74.0722892,158.804523 Z M81.4698795,150.274637 L93.5180723,150.274637 L93.5180723,152.187399 L83.5180723,152.187399 L83.5180723,155.495961 L91.9277108,155.495961 L91.9277108,157.434572 L83.4939759,157.434572 L83.4939759,163.250404 L81.4698795,163.250404 L81.4698795,150.274637 Z M98.8915663,155.625202 L104.096386,155.625202 C105.108439,155.625202 105.827307,155.474423 106.253012,155.172859 C106.678717,154.871296 106.891566,154.444806 106.891566,153.893376 C106.891566,153.341947 106.678717,152.919765 106.253012,152.626817 C105.827307,152.33387 105.108439,152.187399 104.096386,152.187399 L98.8915663,152.187399 L98.8915663,155.625202 Z M98.8915663,163.250404 L96.8915663,163.250404 L96.8915663,150.274637 L104.313253,150.274637 C104.85944,150.274637 105.409636,150.334948 105.963855,150.455574 C106.518075,150.576199 107.020078,150.774366 107.46988,151.050081 C107.919681,151.325796 108.285139,151.696282 108.566265,152.161551 C108.847391,152.62682 108.987952,153.204089 108.987952,153.893376 C108.987952,154.410342 108.907631,154.858372 108.746988,155.23748 C108.586345,155.616588 108.373495,155.948302 108.108434,156.232633 C107.843372,156.516964 107.534138,156.749595 107.180723,156.930533 C106.827307,157.111471 106.449801,157.253634 106.048193,157.357027 L109.638554,163.250404 L107.301205,163.250404 L103.903614,157.537964 L98.8915663,157.537964 L98.8915663,163.250404 Z M113.73494,163.250404 L113.73494,150.274637 L115.710843,150.274637 L115.710843,163.250404 L113.73494,163.250404 Z M121.686747,156.736672 C121.686747,157.443191 121.85542,158.102313 122.192771,158.714055 C122.530122,159.325797 122.991965,159.855679 123.578313,160.303716 C124.164662,160.751752 124.847386,161.109315 125.626506,161.376414 C126.405626,161.643512 127.244975,161.77706 128.144578,161.77706 C129.349404,161.77706 130.45381,161.548737 131.457831,161.092084 C132.461852,160.635431 133.277105,159.993542 133.903614,159.166397 L133.903614,161.932149 C133.132526,162.483578 132.257033,162.918684 131.277108,163.23748 C130.297184,163.556275 129.253018,163.71567 128.144578,163.71567 C126.955817,163.71567 125.839363,163.534735 124.795181,163.172859 C123.750999,162.810984 122.843377,162.311258 122.072289,161.673667 C121.301201,161.036077 120.690765,160.295104 120.240964,159.450727 C119.791162,158.60635 119.566265,157.701674 119.566265,156.736672 C119.566265,155.77167 119.791162,154.862686 120.240964,154.009693 C120.690765,153.1567 121.301201,152.415727 122.072289,151.786753 C122.843377,151.157778 123.750999,150.658052 124.795181,150.287561 C125.839363,149.917069 126.955817,149.731826 128.144578,149.731826 C129.253018,149.731826 130.297184,149.895529 131.277108,150.22294 C132.257033,150.550352 133.132526,150.989766 133.903614,151.541195 L133.903614,154.332795 C133.277105,153.50565 132.457836,152.855145 131.445783,152.38126 C130.43373,151.907375 129.333339,151.670436 128.144578,151.670436 C127.244975,151.670436 126.405626,151.803984 125.626506,152.071082 C124.847386,152.338181 124.164662,152.700052 123.578313,153.156704 C122.991965,153.613357 122.530122,154.147547 122.192771,154.759289 C121.85542,155.371032 121.686747,156.030153 121.686747,156.736672 Z M141.927711,157.408724 L146.626506,157.408724 L144.289157,153.479806 L141.927711,157.408724 Z M147.759036,159.295638 L140.795181,159.295638 L138.433735,163.250404 L136.072289,163.250404 L144.289157,149.52504 L152.53012,163.250404 L150.144578,163.250404 L147.759036,159.295638 Z M155.325301,148.025848 L157.373494,148.025848 L155.73494,152.44588 L154.216867,152.44588 L155.325301,148.025848 Z M171.060241,159.631664 C171.060241,160.38988 170.87952,161.027461 170.518072,161.544426 C170.156625,162.061392 169.674702,162.483574 169.072289,162.810985 C168.469877,163.138397 167.787152,163.375336 167.024096,163.521809 C166.26104,163.668283 165.485948,163.741519 164.698795,163.741519 C164.120479,163.741519 163.542172,163.707055 162.963855,163.638126 C162.385539,163.569197 161.83936,163.470114 161.325301,163.340872 C160.811242,163.211631 160.341368,163.056544 159.915663,162.875606 C159.489958,162.694668 159.1245,162.492193 158.819277,162.268174 L158.819277,159.760905 C159.092371,160.019387 159.445781,160.26925 159.879518,160.510501 C160.313255,160.751751 160.791162,160.971458 161.313253,161.169628 C161.835344,161.367799 162.393571,161.522886 162.987952,161.634895 C163.582332,161.746904 164.168672,161.802908 164.746988,161.802908 C165.389561,161.802908 165.971885,161.746904 166.493976,161.634895 C167.016067,161.522886 167.45783,161.372106 167.819277,161.182553 C168.180725,160.992999 168.461846,160.781907 168.662651,160.549273 C168.863455,160.316639 168.963855,160.071084 168.963855,159.812601 C168.963855,159.502422 168.843375,159.235327 168.60241,159.011309 C168.361445,158.78729 168.040163,158.597739 167.638554,158.442649 C167.236946,158.28756 166.787151,158.154012 166.289157,158.042003 C165.791162,157.929994 165.285143,157.830911 164.771084,157.74475 C164.048189,157.624124 163.313257,157.481961 162.566265,157.318255 C161.819273,157.15455 161.144581,156.926227 160.542169,156.633279 C159.939756,156.340332 159.449801,155.948306 159.072289,155.457189 C158.694777,154.966072 158.506024,154.341415 158.506024,153.583199 C158.506024,152.945608 158.682729,152.389879 159.036145,151.915994 C159.38956,151.442109 159.851403,151.058698 160.421687,150.765751 C160.991971,150.472804 161.634535,150.253097 162.349398,150.106624 C163.064261,149.96015 163.783129,149.886914 164.506024,149.886914 C165.020083,149.886914 165.534134,149.912762 166.048193,149.964459 C166.562252,150.016155 167.056223,150.098007 167.53012,150.210016 C168.004018,150.322025 168.437749,150.455573 168.831325,150.610662 C169.224902,150.765752 169.5502,150.946687 169.807229,151.153473 L169.807229,153.453958 C169.084334,152.91976 168.253017,152.510502 167.313253,152.226171 C166.373489,151.94184 165.365467,151.799677 164.289157,151.799677 C163.999999,151.799677 163.646588,151.825525 163.228916,151.877221 C162.811243,151.928918 162.413657,152.023693 162.036145,152.161551 C161.658633,152.299408 161.333335,152.484652 161.060241,152.717286 C160.787147,152.94992 160.650602,153.247171 160.650602,153.609047 C160.650602,153.970923 160.775099,154.268173 161.024096,154.500808 C161.273094,154.733442 161.602408,154.931609 162.012048,155.095315 C162.421689,155.259021 162.891564,155.392568 163.421687,155.495961 C163.95181,155.599354 164.489957,155.702746 165.036145,155.806139 C165.742975,155.926764 166.453812,156.06462 167.168675,156.219709 C167.883538,156.374799 168.530118,156.590198 169.108434,156.865913 C169.68675,157.141628 170.156625,157.49919 170.518072,157.938611 C170.87952,158.378031 171.060241,158.942377 171.060241,159.631664 Z M179.180723,150.765751 L179.180723,148.827141 L194.939759,148.827141 L194.939759,150.765751 L188.096386,150.765751 L188.096386,163.250404 L186.048193,163.250404 L186.048193,150.765751 L179.180723,150.765751 Z M198.746988,156.788368 C198.746988,157.494888 198.915661,158.154009 199.253012,158.765751 C199.590363,159.377494 200.052206,159.907375 200.638554,160.355412 C201.224903,160.803449 201.911643,161.161011 202.698795,161.42811 C203.485948,161.695209 204.329313,161.828756 205.228916,161.828756 C206.112454,161.828756 206.947787,161.695209 207.73494,161.42811 C208.522092,161.161011 209.208832,160.803449 209.795181,160.355412 C210.381529,159.907375 210.843372,159.377494 211.180723,158.765751 C211.518074,158.154009 211.686747,157.494888 211.686747,156.788368 C211.686747,156.081849 211.518074,155.422728 211.180723,154.810985 C210.843372,154.199243 210.381529,153.665053 209.795181,153.208401 C209.208832,152.751748 208.522092,152.389877 207.73494,152.122779 C206.947787,151.85568 206.112454,151.722132 205.228916,151.722132 C204.329313,151.722132 203.485948,151.85568 202.698795,152.122779 C201.911643,152.389877 201.224903,152.751748 200.638554,153.208401 C200.052206,153.665053 199.590363,154.199243 199.253012,154.810985 C198.915661,155.422728 198.746988,156.081849 198.746988,156.788368 Z M196.626506,156.788368 C196.626506,155.823366 196.851403,154.914382 197.301205,154.061389 C197.751006,153.208396 198.365458,152.467424 199.144578,151.838449 C199.923699,151.209475 200.835336,150.709749 201.879518,150.339257 C202.9237,149.968765 204.040155,149.783522 205.228916,149.783522 C206.417677,149.783522 207.534131,149.968765 208.578313,150.339257 C209.622495,150.709749 210.530117,151.209475 211.301205,151.838449 C212.072293,152.467424 212.682729,153.208396 213.13253,154.061389 C213.582332,154.914382 213.807229,155.823366 213.807229,156.788368 C213.807229,157.75337 213.582332,158.658046 213.13253,159.502423 C212.682729,160.3468 212.072293,161.087773 211.301205,161.725363 C210.530117,162.362954 209.622495,162.86268 208.578313,163.224556 C207.534131,163.586432 206.417677,163.767367 205.228916,163.767367 C204.040155,163.767367 202.9237,163.586432 201.879518,163.224556 C200.835336,162.86268 199.923699,162.362954 199.144578,161.725363 C198.365458,161.087773 197.751006,160.3468 197.301205,159.502423 C196.851403,158.658046 196.626506,157.75337 196.626506,156.788368 Z M219.39759,163.250404 L217.421687,163.250404 L217.421687,150.274637 L219.39759,150.274637 L219.39759,156.581583 L226.216867,150.274637 L228.891566,150.274637 L224.289157,154.591276 L230.891566,163.250404 L228.409639,163.250404 L222.626506,156.038772 L219.39759,158.98546 L219.39759,163.250404 Z M233.277108,150.274637 L245.325301,150.274637 L245.325301,152.187399 L235.325301,152.187399 L235.325301,155.495961 L243.73494,155.495961 L243.73494,157.434572 L235.301205,157.434572 L235.301205,161.337641 L245.325301,161.337641 L245.325301,163.250404 L233.277108,163.250404 L233.277108,150.274637 Z M248.819277,163.250404 L248.819277,149.705977 L260.987952,159.528271 L260.987952,150.274637 L262.963855,150.274637 L262.963855,163.767367 L250.795181,153.893376 L250.795181,163.250404 L248.819277,163.250404 Z M278.457831,154.849758 L284.409639,154.849758 C285.614464,154.849758 286.461845,154.677438 286.951807,154.332795 C287.44177,153.988151 287.686747,153.479809 287.686747,152.807754 C287.686747,152.135699 287.44177,151.627358 286.951807,151.282714 C286.461845,150.93807 285.614464,150.765751 284.409639,150.765751 L278.457831,150.765751 L278.457831,154.849758 Z M278.457831,163.250404 L276.409639,163.250404 L276.409639,148.827141 L284.650602,148.827141 C285.261047,148.827141 285.875499,148.89176 286.493976,149.021002 C287.112453,149.150243 287.67068,149.36995 288.168675,149.680129 C288.666669,149.990308 289.072288,150.399567 289.385542,150.907916 C289.698797,151.416265 289.855422,152.049538 289.855422,152.807754 C289.855422,153.56597 289.698797,154.199244 289.385542,154.707593 C289.072288,155.215942 288.666669,155.6252 288.168675,155.93538 C287.67068,156.245559 287.112453,156.465266 286.493976,156.594507 C285.875499,156.723749 285.261047,156.788368 284.650602,156.788368 L278.457831,156.788368 L278.457831,163.250404 Z M294.891566,161.337641 L304.698795,161.337641 L304.698795,163.250404 L292.86747,163.250404 L292.86747,150.274637 L294.891566,150.274637 L294.891566,161.337641 Z M311.036145,157.408724 L315.73494,157.408724 L313.39759,153.479806 L311.036145,157.408724 Z M316.86747,159.295638 L309.903614,159.295638 L307.542169,163.250404 L305.180723,163.250404 L313.39759,149.52504 L321.638554,163.250404 L319.253012,163.250404 L316.86747,159.295638 Z M322.120482,152.187399 L322.120482,150.274637 L336.289157,150.274637 L336.289157,152.187399 L330.216867,152.187399 L330.216867,163.250404 L328.192771,163.250404 L328.192771,152.187399 L322.120482,152.187399 Z M338.578313,150.274637 L350.626506,150.274637 L350.626506,152.187399 L340.626506,152.187399 L340.626506,155.495961 L349.036145,155.495961 L349.036145,157.434572 L340.60241,157.434572 L340.60241,163.250404 L338.578313,163.250404 L338.578313,150.274637 Z M355.156627,156.788368 C355.156627,157.494888 355.3253,158.154009 355.662651,158.765751 C356.000002,159.377494 356.461844,159.907375 357.048193,160.355412 C357.634541,160.803449 358.321281,161.161011 359.108434,161.42811 C359.895586,161.695209 360.738951,161.828756 361.638554,161.828756 C362.522093,161.828756 363.357426,161.695209 364.144578,161.42811 C364.931731,161.161011 365.618471,160.803449 366.204819,160.355412 C366.791168,159.907375 367.25301,159.377494 367.590361,158.765751 C367.927713,158.154009 368.096386,157.494888 368.096386,156.788368 C368.096386,156.081849 367.927713,155.422728 367.590361,154.810985 C367.25301,154.199243 366.791168,153.665053 366.204819,153.208401 C365.618471,152.751748 364.931731,152.389877 364.144578,152.122779 C363.357426,151.85568 362.522093,151.722132 361.638554,151.722132 C360.738951,151.722132 359.895586,151.85568 359.108434,152.122779 C358.321281,152.389877 357.634541,152.751748 357.048193,153.208401 C356.461844,153.665053 356.000002,154.199243 355.662651,154.810985 C355.3253,155.422728 355.156627,156.081849 355.156627,156.788368 Z M353.036145,156.788368 C353.036145,155.823366 353.261042,154.914382 353.710843,154.061389 C354.160645,153.208396 354.775097,152.467424 355.554217,151.838449 C356.333337,151.209475 357.244975,150.709749 358.289157,150.339257 C359.333339,149.968765 360.449793,149.783522 361.638554,149.783522 C362.827315,149.783522 363.94377,149.968765 364.987952,150.339257 C366.032134,150.709749 366.939755,151.209475 367.710843,151.838449 C368.481932,152.467424 369.092367,153.208396 369.542169,154.061389 C369.99197,154.914382 370.216867,155.823366 370.216867,156.788368 C370.216867,157.75337 369.99197,158.658046 369.542169,159.502423 C369.092367,160.3468 368.481932,161.087773 367.710843,161.725363 C366.939755,162.362954 366.032134,162.86268 364.987952,163.224556 C363.94377,163.586432 362.827315,163.767367 361.638554,163.767367 C360.449793,163.767367 359.333339,163.586432 358.289157,163.224556 C357.244975,162.86268 356.333337,162.362954 355.554217,161.725363 C354.775097,161.087773 354.160645,160.3468 353.710843,159.502423 C353.261042,158.658046 353.036145,157.75337 353.036145,156.788368 Z M376.072289,155.625202 L381.277108,155.625202 C382.289162,155.625202 383.00803,155.474423 383.433735,155.172859 C383.85944,154.871296 384.072289,154.444806 384.072289,153.893376 C384.072289,153.341947 383.85944,152.919765 383.433735,152.626817 C383.00803,152.33387 382.289162,152.187399 381.277108,152.187399 L376.072289,152.187399 L376.072289,155.625202 Z M376.072289,163.250404 L374.072289,163.250404 L374.072289,150.274637 L381.493976,150.274637 C382.040163,150.274637 382.590359,150.334948 383.144578,150.455574 C383.698798,150.576199 384.200801,150.774366 384.650602,151.050081 C385.100404,151.325796 385.465862,151.696282 385.746988,152.161551 C386.028114,152.62682 386.168675,153.204089 386.168675,153.893376 C386.168675,154.410342 386.088354,154.858372 385.927711,155.23748 C385.767067,155.616588 385.554218,155.948302 385.289157,156.232633 C385.024095,156.516964 384.714861,156.749595 384.361446,156.930533 C384.00803,157.111471 383.630524,157.253634 383.228916,157.357027 L386.819277,163.250404 L384.481928,163.250404 L381.084337,157.537964 L376.072289,157.537964 L376.072289,163.250404 Z M391.277108,163.250404 L389.108434,163.250404 L394.240964,148 L401.542169,159.993538 L408.86747,148 L414,163.250404 L411.807229,163.250404 L408.289157,152.833603 L401.566265,164 L394.819277,152.833603 L391.277108,163.250404 Z" id="The-Africa’s-Token-P"></path>
            <text id="vendexchange" font-family="BrandonGrotesque-Medium, Brandon Grotesque" font-size="74" font-weight="400">
                <tspan x="0" y="119">vendexchange</tspan>
            </text>
            <g id="Group-Copy-2" transform="translate(177.000000, 0.000000)" fill-rule="nonzero">
                <path d="M7.18049245,5.0604029 L29.4611382,43.4426244 C30.6226884,45.5631891 33.5793618,45.5631891 34.740912,43.4426244 L46.673201,22.5550619 C47.8347512,20.5405254 46.3564145,17.9958477 44.033314,17.9958477 L34.8465075,17.9958477 C33.0513844,17.9958477 31.6786432,16.5114524 31.7842387,14.7089724 L31.7842387,14.6029442 C31.8898341,13.0125206 33.2625753,11.7401818 34.8465075,11.7401818 L54.6984572,11.9522383 C57.0215577,11.9522383 58.4998944,14.4969159 57.3383442,16.5114524 L34.6353165,56.4840974 C33.4737663,58.4986339 30.5170929,58.4986339 29.3555427,56.4840974 L0.527977386,8.13522175 C-0.633572864,6.01465703 0.844763818,3.46997936 3.16786432,3.46997936 L4.43501005,3.46997936 C5.5965603,3.46997936 6.65251507,4.10614878 7.18049245,5.0604029 Z" id="Combined-Shape-Copy"></path>
                <path d="M33.8961482,23.509316 L34.2129346,23.509316 C36.3248442,23.509316 37.6975854,25.735909 36.7472261,27.6444172 L34.740912,31.4614337 C33.6849572,33.4759702 30.9394748,33.4759702 29.7779246,31.5674619 L13.727412,4.31820525 C12.6714573,2.409697 13.938603,0.0770758041 16.156108,0.0770758041 L62.0901406,0.0770758041 C64.2020502,0.0770758041 65.5747914,2.30366876 64.6244321,4.21217701 C64.0964547,5.16643114 63.1460954,5.69657232 62.0901406,5.69657232 L26.3988693,5.69657232 C24.1813643,5.69657232 22.8086231,8.13522175 23.9701733,10.04373 L31.4674522,22.2369772 C31.9954296,23.0852031 32.9457889,23.509316 33.8961482,23.509316 Z" id="Shape-Copy-9"></path>
            </g>
        </g>
    </g>
</svg>